%FSLAX24Y24*%
%MOIN*%
G70*
G01*
G75*
G04 Layer_Physical_Order=1*
G04 Layer_Color=255*
%ADD10R,0.0374X0.0394*%
%ADD11R,0.0512X0.0728*%
%ADD12R,0.0394X0.0374*%
%ADD13R,0.0728X0.0512*%
%ADD14R,0.1004X0.0965*%
%ADD15O,0.0276X0.1024*%
%ADD16R,0.4760X0.2250*%
%ADD17R,0.0965X0.1004*%
%ADD18R,0.1100X0.1500*%
%ADD19R,0.1500X0.1100*%
%ADD20O,0.0276X0.0984*%
%ADD21C,0.0250*%
%ADD22C,0.0500*%
%ADD23C,0.1000*%
%ADD24C,0.2000*%
%ADD25C,0.1500*%
%ADD26C,0.0800*%
%ADD27C,0.3937*%
%ADD28C,0.0748*%
%ADD29R,0.0750X0.0750*%
%ADD30C,0.1000*%
%ADD31C,0.0950*%
%ADD32C,0.0500*%
%ADD33C,0.0400*%
%ADD34C,0.0250*%
%ADD35C,0.0580*%
G36*
X39822Y178D02*
X178D01*
Y49822D01*
X39822D01*
Y178D01*
D02*
G37*
%LPC*%
G36*
X2550Y17846D02*
Y17550D01*
X2846D01*
X2841Y17591D01*
X2806Y17677D01*
X2750Y17750D01*
X2677Y17806D01*
X2591Y17841D01*
X2550Y17846D01*
D02*
G37*
G36*
X2450D02*
X2409Y17841D01*
X2323Y17806D01*
X2250Y17750D01*
X2194Y17677D01*
X2159Y17591D01*
X2154Y17550D01*
X2450D01*
Y17846D01*
D02*
G37*
G36*
X7450D02*
X7409Y17841D01*
X7323Y17806D01*
X7250Y17750D01*
X7194Y17677D01*
X7159Y17591D01*
X7154Y17550D01*
X7450D01*
Y17846D01*
D02*
G37*
G36*
X13700D02*
X13659Y17841D01*
X13573Y17806D01*
X13500Y17750D01*
X13444Y17677D01*
X13409Y17591D01*
X13404Y17550D01*
X13700D01*
Y17846D01*
D02*
G37*
G36*
X7550D02*
Y17550D01*
X7846D01*
X7841Y17591D01*
X7806Y17677D01*
X7750Y17750D01*
X7677Y17806D01*
X7591Y17841D01*
X7550Y17846D01*
D02*
G37*
G36*
X36150Y17646D02*
Y17350D01*
X36446D01*
X36441Y17391D01*
X36406Y17477D01*
X36350Y17550D01*
X36277Y17606D01*
X36191Y17641D01*
X36150Y17646D01*
D02*
G37*
G36*
X7846Y17450D02*
X7550D01*
Y17154D01*
X7591Y17159D01*
X7677Y17194D01*
X7750Y17250D01*
X7806Y17323D01*
X7841Y17409D01*
X7846Y17450D01*
D02*
G37*
G36*
X7450D02*
X7154D01*
X7159Y17409D01*
X7194Y17323D01*
X7250Y17250D01*
X7323Y17194D01*
X7409Y17159D01*
X7450Y17154D01*
Y17450D01*
D02*
G37*
G36*
X13700D02*
X13404D01*
X13409Y17409D01*
X13444Y17323D01*
X13500Y17250D01*
X13573Y17194D01*
X13659Y17159D01*
X13700Y17154D01*
Y17450D01*
D02*
G37*
G36*
X36050Y17646D02*
X36009Y17641D01*
X35923Y17606D01*
X35850Y17550D01*
X35794Y17477D01*
X35759Y17391D01*
X35754Y17350D01*
X36050D01*
Y17646D01*
D02*
G37*
G36*
X14096Y17450D02*
X13800D01*
Y17154D01*
X13841Y17159D01*
X13927Y17194D01*
X14000Y17250D01*
X14056Y17323D01*
X14091Y17409D01*
X14096Y17450D01*
D02*
G37*
G36*
X13800Y17846D02*
Y17550D01*
X14096D01*
X14091Y17591D01*
X14056Y17677D01*
X14000Y17750D01*
X13927Y17806D01*
X13841Y17841D01*
X13800Y17846D01*
D02*
G37*
G36*
X2450Y22450D02*
X2154D01*
X2159Y22409D01*
X2194Y22323D01*
X2250Y22250D01*
X2323Y22194D01*
X2409Y22159D01*
X2450Y22154D01*
Y22450D01*
D02*
G37*
G36*
X17850Y19996D02*
Y19700D01*
X18146D01*
X18141Y19741D01*
X18106Y19827D01*
X18050Y19900D01*
X17977Y19956D01*
X17891Y19991D01*
X17850Y19996D01*
D02*
G37*
G36*
X2846Y22450D02*
X2550D01*
Y22154D01*
X2591Y22159D01*
X2677Y22194D01*
X2750Y22250D01*
X2806Y22323D01*
X2841Y22409D01*
X2846Y22450D01*
D02*
G37*
G36*
X7846D02*
X7550D01*
Y22154D01*
X7591Y22159D01*
X7677Y22194D01*
X7750Y22250D01*
X7806Y22323D01*
X7841Y22409D01*
X7846Y22450D01*
D02*
G37*
G36*
X7450D02*
X7154D01*
X7159Y22409D01*
X7194Y22323D01*
X7250Y22250D01*
X7323Y22194D01*
X7409Y22159D01*
X7450Y22154D01*
Y22450D01*
D02*
G37*
G36*
X18146Y19600D02*
X17850D01*
Y19304D01*
X17891Y19309D01*
X17977Y19344D01*
X18050Y19400D01*
X18106Y19473D01*
X18141Y19559D01*
X18146Y19600D01*
D02*
G37*
G36*
X17746Y18500D02*
X17450D01*
Y18204D01*
X17491Y18209D01*
X17577Y18244D01*
X17650Y18300D01*
X17706Y18373D01*
X17741Y18459D01*
X17746Y18500D01*
D02*
G37*
G36*
X33650Y18645D02*
X32850D01*
Y18045D01*
X33650D01*
Y18645D01*
D02*
G37*
G36*
X17450Y18896D02*
Y18600D01*
X17746D01*
X17741Y18641D01*
X17706Y18727D01*
X17650Y18800D01*
X17577Y18856D01*
X17491Y18891D01*
X17450Y18896D01*
D02*
G37*
G36*
X17200Y20222D02*
Y19635D01*
Y19049D01*
X17243Y19057D01*
X17321Y19110D01*
X17374Y19188D01*
X17392Y19281D01*
Y19463D01*
X17491Y19483D01*
X17494Y19473D01*
X17550Y19400D01*
X17623Y19344D01*
X17709Y19309D01*
X17750Y19304D01*
Y19650D01*
Y19996D01*
X17709Y19991D01*
X17623Y19956D01*
X17550Y19900D01*
X17494Y19827D01*
X17491Y19817D01*
X17392Y19837D01*
Y19990D01*
X17374Y20083D01*
X17321Y20161D01*
X17243Y20214D01*
X17200Y20222D01*
D02*
G37*
G36*
X17350Y18896D02*
X17309Y18891D01*
X17223Y18856D01*
X17151Y18800D01*
X17145Y18804D01*
X17062Y18868D01*
Y18887D01*
X16815D01*
Y18600D01*
Y18313D01*
X17062D01*
Y18313D01*
X17141Y18313D01*
X17150Y18300D01*
X17223Y18244D01*
X17309Y18209D01*
X17350Y18204D01*
Y18550D01*
Y18896D01*
D02*
G37*
G36*
X17550Y14050D02*
X17254D01*
X17259Y14009D01*
X17294Y13923D01*
X17350Y13850D01*
X17423Y13794D01*
X17509Y13759D01*
X17550Y13754D01*
Y14050D01*
D02*
G37*
G36*
X19211Y14182D02*
X18659D01*
Y13650D01*
X19211D01*
Y14182D01*
D02*
G37*
G36*
X17550Y14446D02*
X17509Y14441D01*
X17423Y14406D01*
X17350Y14350D01*
X17294Y14277D01*
X17259Y14191D01*
X17254Y14150D01*
X17550D01*
Y14446D01*
D02*
G37*
G36*
X1748Y14950D02*
X1300D01*
Y14502D01*
X1381Y14513D01*
X1502Y14563D01*
X1607Y14643D01*
X1687Y14748D01*
X1737Y14869D01*
X1748Y14950D01*
D02*
G37*
G36*
X1200D02*
X752D01*
X763Y14869D01*
X813Y14748D01*
X893Y14643D01*
X998Y14563D01*
X1119Y14513D01*
X1200Y14502D01*
Y14950D01*
D02*
G37*
G36*
X17650Y14446D02*
Y14100D01*
Y13754D01*
X17691Y13759D01*
X17777Y13794D01*
X17850Y13850D01*
X17906Y13923D01*
X17909Y13931D01*
X18007Y13912D01*
Y13650D01*
X18559D01*
Y14182D01*
X18018D01*
X18018Y14182D01*
X18018Y14182D01*
X18007Y14182D01*
X18007D01*
X17942D01*
X17941Y14191D01*
X17906Y14277D01*
X17850Y14350D01*
X17777Y14406D01*
X17691Y14441D01*
X17650Y14446D01*
D02*
G37*
G36*
X7070Y14950D02*
X5050D01*
Y12930D01*
X5271Y12945D01*
X5537Y12998D01*
X5793Y13085D01*
X6036Y13205D01*
X6262Y13355D01*
X6466Y13534D01*
X6645Y13738D01*
X6795Y13964D01*
X6915Y14207D01*
X7002Y14463D01*
X7055Y14729D01*
X7070Y14950D01*
D02*
G37*
G36*
X4950D02*
X2930D01*
X2945Y14729D01*
X2998Y14463D01*
X3085Y14207D01*
X3205Y13964D01*
X3355Y13738D01*
X3534Y13534D01*
X3738Y13355D01*
X3964Y13205D01*
X4207Y13085D01*
X4463Y12998D01*
X4729Y12945D01*
X4950Y12930D01*
Y14950D01*
D02*
G37*
G36*
X19211Y13550D02*
X18659D01*
Y13018D01*
X19211D01*
Y13550D01*
D02*
G37*
G36*
X18559D02*
X18007D01*
Y13288D01*
X17909Y13269D01*
X17906Y13277D01*
X17850Y13350D01*
X17777Y13406D01*
X17691Y13441D01*
X17650Y13446D01*
Y13100D01*
Y12754D01*
X17691Y12759D01*
X17777Y12794D01*
X17850Y12850D01*
X17906Y12923D01*
X17941Y13009D01*
X17942Y13018D01*
X18007D01*
X18007D01*
X18018Y13018D01*
X18018Y13018D01*
X18018Y13018D01*
X18559D01*
Y13550D01*
D02*
G37*
G36*
X17550Y13446D02*
X17509Y13441D01*
X17423Y13406D01*
X17350Y13350D01*
X17294Y13277D01*
X17259Y13191D01*
X17254Y13150D01*
X17550D01*
Y13446D01*
D02*
G37*
G36*
X1200Y15498D02*
X1119Y15487D01*
X998Y15437D01*
X893Y15357D01*
X813Y15252D01*
X763Y15131D01*
X752Y15050D01*
X1200D01*
Y15498D01*
D02*
G37*
G36*
X36050Y17250D02*
X35754D01*
X35759Y17209D01*
X35794Y17123D01*
X35850Y17050D01*
X35923Y16994D01*
X36009Y16959D01*
X36050Y16954D01*
Y17250D01*
D02*
G37*
G36*
X31246D02*
X30950D01*
Y16954D01*
X30991Y16959D01*
X31077Y16994D01*
X31150Y17050D01*
X31206Y17123D01*
X31241Y17209D01*
X31246Y17250D01*
D02*
G37*
G36*
X36446D02*
X36150D01*
Y16954D01*
X36191Y16959D01*
X36277Y16994D01*
X36350Y17050D01*
X36406Y17123D01*
X36441Y17209D01*
X36446Y17250D01*
D02*
G37*
G36*
X2846Y17450D02*
X2550D01*
Y17154D01*
X2591Y17159D01*
X2677Y17194D01*
X2750Y17250D01*
X2806Y17323D01*
X2841Y17409D01*
X2846Y17450D01*
D02*
G37*
G36*
X2450D02*
X2154D01*
X2159Y17409D01*
X2194Y17323D01*
X2250Y17250D01*
X2323Y17194D01*
X2409Y17159D01*
X2450Y17154D01*
Y17450D01*
D02*
G37*
G36*
X33987Y16950D02*
X33650D01*
Y16613D01*
X33702Y16620D01*
X33797Y16659D01*
X33878Y16722D01*
X33941Y16803D01*
X33980Y16898D01*
X33987Y16950D01*
D02*
G37*
G36*
X4950Y17070D02*
X4729Y17055D01*
X4463Y17002D01*
X4207Y16915D01*
X3964Y16795D01*
X3738Y16645D01*
X3534Y16466D01*
X3355Y16262D01*
X3205Y16036D01*
X3085Y15793D01*
X2998Y15537D01*
X2945Y15271D01*
X2930Y15050D01*
X4950D01*
Y17070D01*
D02*
G37*
G36*
X1300Y15498D02*
Y15050D01*
X1748D01*
X1737Y15131D01*
X1687Y15252D01*
X1607Y15357D01*
X1502Y15437D01*
X1381Y15487D01*
X1300Y15498D01*
D02*
G37*
G36*
X5050Y17070D02*
Y15050D01*
X7070D01*
X7055Y15271D01*
X7002Y15537D01*
X6915Y15793D01*
X6795Y16036D01*
X6645Y16262D01*
X6466Y16466D01*
X6262Y16645D01*
X6036Y16795D01*
X5793Y16915D01*
X5537Y17002D01*
X5271Y17055D01*
X5050Y17070D01*
D02*
G37*
G36*
X33650Y17945D02*
X31950D01*
Y17387D01*
X31898Y17380D01*
X31803Y17341D01*
X31722Y17278D01*
X31659Y17197D01*
X31620Y17102D01*
X31613Y17050D01*
X32000D01*
Y17000D01*
X32050D01*
Y16613D01*
X32102Y16620D01*
X32197Y16659D01*
X32278Y16722D01*
X32341Y16803D01*
X32350Y16826D01*
X32450D01*
X32459Y16803D01*
X32522Y16722D01*
X32603Y16659D01*
X32698Y16620D01*
X32750Y16613D01*
Y17000D01*
X32850D01*
Y16613D01*
X32902Y16620D01*
X32997Y16659D01*
X33078Y16722D01*
X33141Y16803D01*
X33150Y16826D01*
X33250D01*
X33259Y16803D01*
X33322Y16722D01*
X33403Y16659D01*
X33498Y16620D01*
X33550Y16613D01*
Y17000D01*
X33600D01*
Y17050D01*
X33987D01*
X33980Y17102D01*
X33941Y17197D01*
X33878Y17278D01*
X33797Y17341D01*
X33702Y17380D01*
X33650Y17387D01*
Y17945D01*
D02*
G37*
G36*
X31950Y16950D02*
X31613D01*
X31620Y16898D01*
X31659Y16803D01*
X31722Y16722D01*
X31803Y16659D01*
X31898Y16620D01*
X31950Y16613D01*
Y16950D01*
D02*
G37*
G36*
X9582Y27559D02*
X9050D01*
Y27007D01*
X9181D01*
X9226Y26917D01*
X9194Y26877D01*
X9159Y26791D01*
X9154Y26750D01*
X9846D01*
X9841Y26791D01*
X9806Y26877D01*
X9750Y26950D01*
X9677Y27006D01*
X9591Y27041D01*
X9582Y27042D01*
Y27559D01*
D02*
G37*
G36*
X8950D02*
X8418D01*
Y27042D01*
X8409Y27041D01*
X8323Y27006D01*
X8250Y26950D01*
X8194Y26877D01*
X8159Y26791D01*
X8154Y26750D01*
X8846D01*
X8841Y26791D01*
X8806Y26877D01*
X8774Y26917D01*
X8819Y27007D01*
X8950D01*
Y27559D01*
D02*
G37*
G36*
X2450Y27450D02*
X2154D01*
X2159Y27409D01*
X2194Y27323D01*
X2250Y27250D01*
X2323Y27194D01*
X2409Y27159D01*
X2450Y27154D01*
Y27450D01*
D02*
G37*
G36*
X7450D02*
X7154D01*
X7159Y27409D01*
X7194Y27323D01*
X7250Y27250D01*
X7323Y27194D01*
X7409Y27159D01*
X7450Y27154D01*
Y27450D01*
D02*
G37*
G36*
X2846D02*
X2550D01*
Y27154D01*
X2591Y27159D01*
X2677Y27194D01*
X2750Y27250D01*
X2806Y27323D01*
X2841Y27409D01*
X2846Y27450D01*
D02*
G37*
G36*
X9846Y26650D02*
X9550D01*
Y26354D01*
X9591Y26359D01*
X9677Y26394D01*
X9750Y26450D01*
X9806Y26523D01*
X9841Y26609D01*
X9846Y26650D01*
D02*
G37*
G36*
X5464Y26285D02*
X5050D01*
Y25979D01*
X5464D01*
Y26285D01*
D02*
G37*
G36*
X4950D02*
X4536D01*
Y25979D01*
X4950D01*
Y26285D01*
D02*
G37*
G36*
X8450Y26650D02*
X8154D01*
X8159Y26609D01*
X8194Y26523D01*
X8250Y26450D01*
X8323Y26394D01*
X8409Y26359D01*
X8450Y26354D01*
Y26650D01*
D02*
G37*
G36*
X9450D02*
X9154D01*
X9159Y26609D01*
X9194Y26523D01*
X9250Y26450D01*
X9323Y26394D01*
X9409Y26359D01*
X9450Y26354D01*
Y26650D01*
D02*
G37*
G36*
X8846D02*
X8550D01*
Y26354D01*
X8591Y26359D01*
X8677Y26394D01*
X8750Y26450D01*
X8806Y26523D01*
X8841Y26609D01*
X8846Y26650D01*
D02*
G37*
G36*
X7846Y27450D02*
X7550D01*
Y27154D01*
X7591Y27159D01*
X7677Y27194D01*
X7750Y27250D01*
X7806Y27323D01*
X7841Y27409D01*
X7846Y27450D01*
D02*
G37*
G36*
X7550Y27846D02*
Y27550D01*
X7846D01*
X7841Y27591D01*
X7806Y27677D01*
X7750Y27750D01*
X7677Y27806D01*
X7591Y27841D01*
X7550Y27846D01*
D02*
G37*
G36*
X7450D02*
X7409Y27841D01*
X7323Y27806D01*
X7250Y27750D01*
X7194Y27677D01*
X7159Y27591D01*
X7154Y27550D01*
X7450D01*
Y27846D01*
D02*
G37*
G36*
X13700D02*
X13659Y27841D01*
X13573Y27806D01*
X13500Y27750D01*
X13444Y27677D01*
X13409Y27591D01*
X13404Y27550D01*
X13700D01*
Y27846D01*
D02*
G37*
G36*
X18700D02*
X18659Y27841D01*
X18573Y27806D01*
X18500Y27750D01*
X18444Y27677D01*
X18409Y27591D01*
X18404Y27550D01*
X18700D01*
Y27846D01*
D02*
G37*
G36*
X13800D02*
Y27550D01*
X14096D01*
X14091Y27591D01*
X14056Y27677D01*
X14000Y27750D01*
X13927Y27806D01*
X13841Y27841D01*
X13800Y27846D01*
D02*
G37*
G36*
X2550D02*
Y27550D01*
X2846D01*
X2841Y27591D01*
X2806Y27677D01*
X2750Y27750D01*
X2677Y27806D01*
X2591Y27841D01*
X2550Y27846D01*
D02*
G37*
G36*
X14096Y27450D02*
X13800D01*
Y27154D01*
X13841Y27159D01*
X13927Y27194D01*
X14000Y27250D01*
X14056Y27323D01*
X14091Y27409D01*
X14096Y27450D01*
D02*
G37*
G36*
X13700D02*
X13404D01*
X13409Y27409D01*
X13444Y27323D01*
X13500Y27250D01*
X13573Y27194D01*
X13659Y27159D01*
X13700Y27154D01*
Y27450D01*
D02*
G37*
G36*
X18700D02*
X18404D01*
X18409Y27409D01*
X18444Y27323D01*
X18500Y27250D01*
X18573Y27194D01*
X18659Y27159D01*
X18700Y27154D01*
Y27450D01*
D02*
G37*
G36*
X2450Y27846D02*
X2409Y27841D01*
X2323Y27806D01*
X2250Y27750D01*
X2194Y27677D01*
X2159Y27591D01*
X2154Y27550D01*
X2450D01*
Y27846D01*
D02*
G37*
G36*
X19096Y27450D02*
X18800D01*
Y27154D01*
X18841Y27159D01*
X18927Y27194D01*
X19000Y27250D01*
X19056Y27323D01*
X19091Y27409D01*
X19096Y27450D01*
D02*
G37*
G36*
X7550Y22846D02*
Y22550D01*
X7846D01*
X7841Y22591D01*
X7806Y22677D01*
X7750Y22750D01*
X7677Y22806D01*
X7591Y22841D01*
X7550Y22846D01*
D02*
G37*
G36*
X7450D02*
X7409Y22841D01*
X7323Y22806D01*
X7250Y22750D01*
X7194Y22677D01*
X7159Y22591D01*
X7154Y22550D01*
X7450D01*
Y22846D01*
D02*
G37*
G36*
X27450D02*
X27409Y22841D01*
X27323Y22806D01*
X27250Y22750D01*
X27194Y22677D01*
X27159Y22591D01*
X27154Y22550D01*
X27450D01*
Y22846D01*
D02*
G37*
G36*
X18650Y22996D02*
Y22700D01*
X18946D01*
X18941Y22741D01*
X18906Y22827D01*
X18850Y22900D01*
X18777Y22956D01*
X18691Y22991D01*
X18650Y22996D01*
D02*
G37*
G36*
X27550Y22846D02*
Y22550D01*
X27846D01*
X27841Y22591D01*
X27806Y22677D01*
X27750Y22750D01*
X27677Y22806D01*
X27591Y22841D01*
X27550Y22846D01*
D02*
G37*
G36*
X2550D02*
Y22550D01*
X2846D01*
X2841Y22591D01*
X2806Y22677D01*
X2750Y22750D01*
X2677Y22806D01*
X2591Y22841D01*
X2550Y22846D01*
D02*
G37*
G36*
X27846Y22450D02*
X27550D01*
Y22154D01*
X27591Y22159D01*
X27677Y22194D01*
X27750Y22250D01*
X27806Y22323D01*
X27841Y22409D01*
X27846Y22450D01*
D02*
G37*
G36*
X27450D02*
X27154D01*
X27159Y22409D01*
X27194Y22323D01*
X27250Y22250D01*
X27323Y22194D01*
X27409Y22159D01*
X27450Y22154D01*
Y22450D01*
D02*
G37*
G36*
X18946Y22600D02*
X18650D01*
Y22304D01*
X18691Y22309D01*
X18777Y22344D01*
X18850Y22400D01*
X18906Y22473D01*
X18941Y22559D01*
X18946Y22600D01*
D02*
G37*
G36*
X2450Y22846D02*
X2409Y22841D01*
X2323Y22806D01*
X2250Y22750D01*
X2194Y22677D01*
X2159Y22591D01*
X2154Y22550D01*
X2450D01*
Y22846D01*
D02*
G37*
G36*
X12950Y22800D02*
X12654D01*
X12659Y22759D01*
X12694Y22673D01*
X12750Y22600D01*
X12823Y22544D01*
X12909Y22509D01*
X12950Y22504D01*
Y22800D01*
D02*
G37*
G36*
X14511Y23300D02*
X13959D01*
Y22768D01*
X14511D01*
Y23300D01*
D02*
G37*
G36*
X12950Y24196D02*
X12909Y24191D01*
X12823Y24156D01*
X12750Y24100D01*
X12694Y24027D01*
X12659Y23941D01*
X12654Y23900D01*
X12950D01*
Y24196D01*
D02*
G37*
G36*
Y23800D02*
X12654D01*
X12659Y23759D01*
X12694Y23673D01*
X12750Y23600D01*
X12823Y23544D01*
X12909Y23509D01*
X12950Y23504D01*
Y23800D01*
D02*
G37*
G36*
X4950Y25150D02*
X4654D01*
X4659Y25109D01*
X4694Y25023D01*
X4750Y24950D01*
X4823Y24894D01*
X4909Y24859D01*
X4950Y24854D01*
Y25150D01*
D02*
G37*
G36*
X5464Y25879D02*
X4536D01*
Y25573D01*
X4756D01*
X4788Y25479D01*
X4750Y25450D01*
X4694Y25377D01*
X4659Y25291D01*
X4654Y25250D01*
X5346D01*
X5341Y25291D01*
X5306Y25377D01*
X5250Y25450D01*
X5212Y25479D01*
X5244Y25573D01*
X5464D01*
Y25879D01*
D02*
G37*
G36*
X5346Y25150D02*
X5050D01*
Y24854D01*
X5091Y24859D01*
X5177Y24894D01*
X5250Y24950D01*
X5306Y25023D01*
X5341Y25109D01*
X5346Y25150D01*
D02*
G37*
G36*
X14511Y23932D02*
X13959D01*
Y23400D01*
X14511D01*
Y23932D01*
D02*
G37*
G36*
X12950Y23196D02*
X12909Y23191D01*
X12823Y23156D01*
X12750Y23100D01*
X12694Y23027D01*
X12659Y22941D01*
X12654Y22900D01*
X12950D01*
Y23196D01*
D02*
G37*
G36*
X18550Y22996D02*
X18509Y22991D01*
X18423Y22956D01*
X18350Y22900D01*
X18306Y22842D01*
X18212Y22875D01*
Y22937D01*
X17965D01*
Y22650D01*
Y22363D01*
X18212D01*
Y22425D01*
X18306Y22458D01*
X18350Y22400D01*
X18423Y22344D01*
X18509Y22309D01*
X18550Y22304D01*
Y22650D01*
Y22996D01*
D02*
G37*
G36*
X21700Y23346D02*
X21659Y23341D01*
X21573Y23306D01*
X21500Y23250D01*
X21444Y23177D01*
X21409Y23091D01*
X21404Y23050D01*
X21700D01*
Y23346D01*
D02*
G37*
G36*
X13050Y24196D02*
Y23850D01*
Y23504D01*
X13091Y23509D01*
X13177Y23544D01*
X13217Y23576D01*
X13307Y23531D01*
Y23400D01*
X13859D01*
Y23932D01*
X13342D01*
X13341Y23941D01*
X13306Y24027D01*
X13250Y24100D01*
X13177Y24156D01*
X13091Y24191D01*
X13050Y24196D01*
D02*
G37*
G36*
X13859Y23300D02*
X13307D01*
Y23169D01*
X13217Y23124D01*
X13177Y23156D01*
X13091Y23191D01*
X13050Y23196D01*
Y22850D01*
Y22504D01*
X13091Y22509D01*
X13177Y22544D01*
X13250Y22600D01*
X13306Y22673D01*
X13341Y22759D01*
X13342Y22768D01*
X13859D01*
Y23300D01*
D02*
G37*
G36*
X37450Y2846D02*
X37409Y2841D01*
X37323Y2806D01*
X37250Y2750D01*
X37194Y2677D01*
X37159Y2591D01*
X37154Y2550D01*
X37450D01*
Y2846D01*
D02*
G37*
G36*
X32550D02*
Y2550D01*
X32846D01*
X32841Y2591D01*
X32806Y2677D01*
X32750Y2750D01*
X32677Y2806D01*
X32591Y2841D01*
X32550Y2846D01*
D02*
G37*
G36*
X37550D02*
Y2550D01*
X37846D01*
X37841Y2591D01*
X37806Y2677D01*
X37750Y2750D01*
X37677Y2806D01*
X37591Y2841D01*
X37550Y2846D01*
D02*
G37*
G36*
X2746Y7350D02*
X2450D01*
Y7054D01*
X2491Y7059D01*
X2577Y7094D01*
X2650Y7150D01*
X2706Y7223D01*
X2741Y7309D01*
X2746Y7350D01*
D02*
G37*
G36*
X2350D02*
X2054D01*
X2059Y7309D01*
X2094Y7223D01*
X2150Y7150D01*
X2223Y7094D01*
X2309Y7059D01*
X2350Y7054D01*
Y7350D01*
D02*
G37*
G36*
X32450Y2846D02*
X32409Y2841D01*
X32323Y2806D01*
X32250Y2750D01*
X32194Y2677D01*
X32159Y2591D01*
X32154Y2550D01*
X32450D01*
Y2846D01*
D02*
G37*
G36*
X22450D02*
X22409Y2841D01*
X22323Y2806D01*
X22250Y2750D01*
X22194Y2677D01*
X22159Y2591D01*
X22154Y2550D01*
X22450D01*
Y2846D01*
D02*
G37*
G36*
X17550D02*
Y2550D01*
X17846D01*
X17841Y2591D01*
X17806Y2677D01*
X17750Y2750D01*
X17677Y2806D01*
X17591Y2841D01*
X17550Y2846D01*
D02*
G37*
G36*
X22550D02*
Y2550D01*
X22846D01*
X22841Y2591D01*
X22806Y2677D01*
X22750Y2750D01*
X22677Y2806D01*
X22591Y2841D01*
X22550Y2846D01*
D02*
G37*
G36*
X27550D02*
Y2550D01*
X27846D01*
X27841Y2591D01*
X27806Y2677D01*
X27750Y2750D01*
X27677Y2806D01*
X27591Y2841D01*
X27550Y2846D01*
D02*
G37*
G36*
X27450D02*
X27409Y2841D01*
X27323Y2806D01*
X27250Y2750D01*
X27194Y2677D01*
X27159Y2591D01*
X27154Y2550D01*
X27450D01*
Y2846D01*
D02*
G37*
G36*
X7450Y7450D02*
X7154D01*
X7159Y7409D01*
X7194Y7323D01*
X7250Y7250D01*
X7323Y7194D01*
X7409Y7159D01*
X7450Y7154D01*
Y7450D01*
D02*
G37*
G36*
X27450D02*
X27154D01*
X27159Y7409D01*
X27194Y7323D01*
X27250Y7250D01*
X27323Y7194D01*
X27409Y7159D01*
X27450Y7154D01*
Y7450D01*
D02*
G37*
G36*
X22846D02*
X22550D01*
Y7154D01*
X22591Y7159D01*
X22677Y7194D01*
X22750Y7250D01*
X22806Y7323D01*
X22841Y7409D01*
X22846Y7450D01*
D02*
G37*
G36*
X27846D02*
X27550D01*
Y7154D01*
X27591Y7159D01*
X27677Y7194D01*
X27750Y7250D01*
X27806Y7323D01*
X27841Y7409D01*
X27846Y7450D01*
D02*
G37*
G36*
X37846D02*
X37550D01*
Y7154D01*
X37591Y7159D01*
X37677Y7194D01*
X37750Y7250D01*
X37806Y7323D01*
X37841Y7409D01*
X37846Y7450D01*
D02*
G37*
G36*
X37450D02*
X37154D01*
X37159Y7409D01*
X37194Y7323D01*
X37250Y7250D01*
X37323Y7194D01*
X37409Y7159D01*
X37450Y7154D01*
Y7450D01*
D02*
G37*
G36*
X22450D02*
X22154D01*
X22159Y7409D01*
X22194Y7323D01*
X22250Y7250D01*
X22323Y7194D01*
X22409Y7159D01*
X22450Y7154D01*
Y7450D01*
D02*
G37*
G36*
X12450D02*
X12154D01*
X12159Y7409D01*
X12194Y7323D01*
X12250Y7250D01*
X12323Y7194D01*
X12409Y7159D01*
X12450Y7154D01*
Y7450D01*
D02*
G37*
G36*
X7846D02*
X7550D01*
Y7154D01*
X7591Y7159D01*
X7677Y7194D01*
X7750Y7250D01*
X7806Y7323D01*
X7841Y7409D01*
X7846Y7450D01*
D02*
G37*
G36*
X12846D02*
X12550D01*
Y7154D01*
X12591Y7159D01*
X12677Y7194D01*
X12750Y7250D01*
X12806Y7323D01*
X12841Y7409D01*
X12846Y7450D01*
D02*
G37*
G36*
X17846D02*
X17550D01*
Y7154D01*
X17591Y7159D01*
X17677Y7194D01*
X17750Y7250D01*
X17806Y7323D01*
X17841Y7409D01*
X17846Y7450D01*
D02*
G37*
G36*
X17450D02*
X17154D01*
X17159Y7409D01*
X17194Y7323D01*
X17250Y7250D01*
X17323Y7194D01*
X17409Y7159D01*
X17450Y7154D01*
Y7450D01*
D02*
G37*
G36*
X17846Y2450D02*
X17550D01*
Y2154D01*
X17591Y2159D01*
X17677Y2194D01*
X17750Y2250D01*
X17806Y2323D01*
X17841Y2409D01*
X17846Y2450D01*
D02*
G37*
G36*
X17450D02*
X17154D01*
X17159Y2409D01*
X17194Y2323D01*
X17250Y2250D01*
X17323Y2194D01*
X17409Y2159D01*
X17450Y2154D01*
Y2450D01*
D02*
G37*
G36*
X22450D02*
X22154D01*
X22159Y2409D01*
X22194Y2323D01*
X22250Y2250D01*
X22323Y2194D01*
X22409Y2159D01*
X22450Y2154D01*
Y2450D01*
D02*
G37*
G36*
X27450D02*
X27154D01*
X27159Y2409D01*
X27194Y2323D01*
X27250Y2250D01*
X27323Y2194D01*
X27409Y2159D01*
X27450Y2154D01*
Y2450D01*
D02*
G37*
G36*
X22846D02*
X22550D01*
Y2154D01*
X22591Y2159D01*
X22677Y2194D01*
X22750Y2250D01*
X22806Y2323D01*
X22841Y2409D01*
X22846Y2450D01*
D02*
G37*
G36*
X12846D02*
X12550D01*
Y2154D01*
X12591Y2159D01*
X12677Y2194D01*
X12750Y2250D01*
X12806Y2323D01*
X12841Y2409D01*
X12846Y2450D01*
D02*
G37*
G36*
X2846D02*
X2550D01*
Y2154D01*
X2591Y2159D01*
X2677Y2194D01*
X2750Y2250D01*
X2806Y2323D01*
X2841Y2409D01*
X2846Y2450D01*
D02*
G37*
G36*
X2450D02*
X2154D01*
X2159Y2409D01*
X2194Y2323D01*
X2250Y2250D01*
X2323Y2194D01*
X2409Y2159D01*
X2450Y2154D01*
Y2450D01*
D02*
G37*
G36*
X7450D02*
X7154D01*
X7159Y2409D01*
X7194Y2323D01*
X7250Y2250D01*
X7323Y2194D01*
X7409Y2159D01*
X7450Y2154D01*
Y2450D01*
D02*
G37*
G36*
X12450D02*
X12154D01*
X12159Y2409D01*
X12194Y2323D01*
X12250Y2250D01*
X12323Y2194D01*
X12409Y2159D01*
X12450Y2154D01*
Y2450D01*
D02*
G37*
G36*
X7846D02*
X7550D01*
Y2154D01*
X7591Y2159D01*
X7677Y2194D01*
X7750Y2250D01*
X7806Y2323D01*
X7841Y2409D01*
X7846Y2450D01*
D02*
G37*
G36*
X27846D02*
X27550D01*
Y2154D01*
X27591Y2159D01*
X27677Y2194D01*
X27750Y2250D01*
X27806Y2323D01*
X27841Y2409D01*
X27846Y2450D01*
D02*
G37*
G36*
X7550Y2846D02*
Y2550D01*
X7846D01*
X7841Y2591D01*
X7806Y2677D01*
X7750Y2750D01*
X7677Y2806D01*
X7591Y2841D01*
X7550Y2846D01*
D02*
G37*
G36*
X7450D02*
X7409Y2841D01*
X7323Y2806D01*
X7250Y2750D01*
X7194Y2677D01*
X7159Y2591D01*
X7154Y2550D01*
X7450D01*
Y2846D01*
D02*
G37*
G36*
X12450D02*
X12409Y2841D01*
X12323Y2806D01*
X12250Y2750D01*
X12194Y2677D01*
X12159Y2591D01*
X12154Y2550D01*
X12450D01*
Y2846D01*
D02*
G37*
G36*
X17450D02*
X17409Y2841D01*
X17323Y2806D01*
X17250Y2750D01*
X17194Y2677D01*
X17159Y2591D01*
X17154Y2550D01*
X17450D01*
Y2846D01*
D02*
G37*
G36*
X12550D02*
Y2550D01*
X12846D01*
X12841Y2591D01*
X12806Y2677D01*
X12750Y2750D01*
X12677Y2806D01*
X12591Y2841D01*
X12550Y2846D01*
D02*
G37*
G36*
X2550D02*
Y2550D01*
X2846D01*
X2841Y2591D01*
X2806Y2677D01*
X2750Y2750D01*
X2677Y2806D01*
X2591Y2841D01*
X2550Y2846D01*
D02*
G37*
G36*
X32846Y2450D02*
X32550D01*
Y2154D01*
X32591Y2159D01*
X32677Y2194D01*
X32750Y2250D01*
X32806Y2323D01*
X32841Y2409D01*
X32846Y2450D01*
D02*
G37*
G36*
X32450D02*
X32154D01*
X32159Y2409D01*
X32194Y2323D01*
X32250Y2250D01*
X32323Y2194D01*
X32409Y2159D01*
X32450Y2154D01*
Y2450D01*
D02*
G37*
G36*
X37450D02*
X37154D01*
X37159Y2409D01*
X37194Y2323D01*
X37250Y2250D01*
X37323Y2194D01*
X37409Y2159D01*
X37450Y2154D01*
Y2450D01*
D02*
G37*
G36*
X2450Y2846D02*
X2409Y2841D01*
X2323Y2806D01*
X2250Y2750D01*
X2194Y2677D01*
X2159Y2591D01*
X2154Y2550D01*
X2450D01*
Y2846D01*
D02*
G37*
G36*
X37846Y2450D02*
X37550D01*
Y2154D01*
X37591Y2159D01*
X37677Y2194D01*
X37750Y2250D01*
X37806Y2323D01*
X37841Y2409D01*
X37846Y2450D01*
D02*
G37*
G36*
X27846Y12450D02*
X27550D01*
Y12154D01*
X27591Y12159D01*
X27677Y12194D01*
X27750Y12250D01*
X27806Y12323D01*
X27841Y12409D01*
X27846Y12450D01*
D02*
G37*
G36*
X27450D02*
X27154D01*
X27159Y12409D01*
X27194Y12323D01*
X27250Y12250D01*
X27323Y12194D01*
X27409Y12159D01*
X27450Y12154D01*
Y12450D01*
D02*
G37*
G36*
X32450D02*
X32154D01*
X32159Y12409D01*
X32194Y12323D01*
X32250Y12250D01*
X32323Y12194D01*
X32409Y12159D01*
X32450Y12154D01*
Y12450D01*
D02*
G37*
G36*
X37450D02*
X37154D01*
X37159Y12409D01*
X37194Y12323D01*
X37250Y12250D01*
X37323Y12194D01*
X37409Y12159D01*
X37450Y12154D01*
Y12450D01*
D02*
G37*
G36*
X32846D02*
X32550D01*
Y12154D01*
X32591Y12159D01*
X32677Y12194D01*
X32750Y12250D01*
X32806Y12323D01*
X32841Y12409D01*
X32846Y12450D01*
D02*
G37*
G36*
X7846D02*
X7550D01*
Y12154D01*
X7591Y12159D01*
X7677Y12194D01*
X7750Y12250D01*
X7806Y12323D01*
X7841Y12409D01*
X7846Y12450D01*
D02*
G37*
G36*
X23237Y11900D02*
X22663D01*
Y11653D01*
X22725D01*
X22758Y11558D01*
X22700Y11515D01*
X22644Y11441D01*
X22609Y11356D01*
X22604Y11315D01*
X23296D01*
X23291Y11356D01*
X23256Y11441D01*
X23200Y11515D01*
X23142Y11558D01*
X23175Y11653D01*
X23237D01*
Y11900D01*
D02*
G37*
G36*
X23296Y11215D02*
X23000D01*
Y10919D01*
X23041Y10924D01*
X23127Y10959D01*
X23200Y11015D01*
X23256Y11088D01*
X23291Y11174D01*
X23296Y11215D01*
D02*
G37*
G36*
X2450Y12450D02*
X2154D01*
X2159Y12409D01*
X2194Y12323D01*
X2250Y12250D01*
X2323Y12194D01*
X2409Y12159D01*
X2450Y12154D01*
Y12450D01*
D02*
G37*
G36*
X7450D02*
X7154D01*
X7159Y12409D01*
X7194Y12323D01*
X7250Y12250D01*
X7323Y12194D01*
X7409Y12159D01*
X7450Y12154D01*
Y12450D01*
D02*
G37*
G36*
X2846D02*
X2550D01*
Y12154D01*
X2591Y12159D01*
X2677Y12194D01*
X2750Y12250D01*
X2806Y12323D01*
X2841Y12409D01*
X2846Y12450D01*
D02*
G37*
G36*
X37846D02*
X37550D01*
Y12154D01*
X37591Y12159D01*
X37677Y12194D01*
X37750Y12250D01*
X37806Y12323D01*
X37841Y12409D01*
X37846Y12450D01*
D02*
G37*
G36*
X32550Y12846D02*
Y12550D01*
X32846D01*
X32841Y12591D01*
X32806Y12677D01*
X32750Y12750D01*
X32677Y12806D01*
X32591Y12841D01*
X32550Y12846D01*
D02*
G37*
G36*
X32450D02*
X32409Y12841D01*
X32323Y12806D01*
X32250Y12750D01*
X32194Y12677D01*
X32159Y12591D01*
X32154Y12550D01*
X32450D01*
Y12846D01*
D02*
G37*
G36*
X37450D02*
X37409Y12841D01*
X37323Y12806D01*
X37250Y12750D01*
X37194Y12677D01*
X37159Y12591D01*
X37154Y12550D01*
X37450D01*
Y12846D01*
D02*
G37*
G36*
X17550Y13050D02*
X17254D01*
X17259Y13009D01*
X17294Y12923D01*
X17350Y12850D01*
X17423Y12794D01*
X17509Y12759D01*
X17550Y12754D01*
Y13050D01*
D02*
G37*
G36*
X37550Y12846D02*
Y12550D01*
X37846D01*
X37841Y12591D01*
X37806Y12677D01*
X37750Y12750D01*
X37677Y12806D01*
X37591Y12841D01*
X37550Y12846D01*
D02*
G37*
G36*
X27550D02*
Y12550D01*
X27846D01*
X27841Y12591D01*
X27806Y12677D01*
X27750Y12750D01*
X27677Y12806D01*
X27591Y12841D01*
X27550Y12846D01*
D02*
G37*
G36*
X2550D02*
Y12550D01*
X2846D01*
X2841Y12591D01*
X2806Y12677D01*
X2750Y12750D01*
X2677Y12806D01*
X2591Y12841D01*
X2550Y12846D01*
D02*
G37*
G36*
X2450D02*
X2409Y12841D01*
X2323Y12806D01*
X2250Y12750D01*
X2194Y12677D01*
X2159Y12591D01*
X2154Y12550D01*
X2450D01*
Y12846D01*
D02*
G37*
G36*
X7450D02*
X7409Y12841D01*
X7323Y12806D01*
X7250Y12750D01*
X7194Y12677D01*
X7159Y12591D01*
X7154Y12550D01*
X7450D01*
Y12846D01*
D02*
G37*
G36*
X27450D02*
X27409Y12841D01*
X27323Y12806D01*
X27250Y12750D01*
X27194Y12677D01*
X27159Y12591D01*
X27154Y12550D01*
X27450D01*
Y12846D01*
D02*
G37*
G36*
X7550D02*
Y12550D01*
X7846D01*
X7841Y12591D01*
X7806Y12677D01*
X7750Y12750D01*
X7677Y12806D01*
X7591Y12841D01*
X7550Y12846D01*
D02*
G37*
G36*
Y7846D02*
Y7550D01*
X7846D01*
X7841Y7591D01*
X7806Y7677D01*
X7750Y7750D01*
X7677Y7806D01*
X7591Y7841D01*
X7550Y7846D01*
D02*
G37*
G36*
X7450D02*
X7409Y7841D01*
X7323Y7806D01*
X7250Y7750D01*
X7194Y7677D01*
X7159Y7591D01*
X7154Y7550D01*
X7450D01*
Y7846D01*
D02*
G37*
G36*
X12450D02*
X12409Y7841D01*
X12323Y7806D01*
X12250Y7750D01*
X12194Y7677D01*
X12159Y7591D01*
X12154Y7550D01*
X12450D01*
Y7846D01*
D02*
G37*
G36*
X17450D02*
X17409Y7841D01*
X17323Y7806D01*
X17250Y7750D01*
X17194Y7677D01*
X17159Y7591D01*
X17154Y7550D01*
X17450D01*
Y7846D01*
D02*
G37*
G36*
X12550D02*
Y7550D01*
X12846D01*
X12841Y7591D01*
X12806Y7677D01*
X12750Y7750D01*
X12677Y7806D01*
X12591Y7841D01*
X12550Y7846D01*
D02*
G37*
G36*
X33098Y7950D02*
X32650D01*
Y7502D01*
X32731Y7513D01*
X32852Y7563D01*
X32957Y7643D01*
X33037Y7748D01*
X33087Y7869D01*
X33098Y7950D01*
D02*
G37*
G36*
X10498Y7850D02*
X10050D01*
Y7402D01*
X10131Y7413D01*
X10252Y7463D01*
X10357Y7543D01*
X10437Y7648D01*
X10487Y7769D01*
X10498Y7850D01*
D02*
G37*
G36*
X9950D02*
X9502D01*
X9513Y7769D01*
X9563Y7648D01*
X9643Y7543D01*
X9748Y7463D01*
X9869Y7413D01*
X9950Y7402D01*
Y7850D01*
D02*
G37*
G36*
X2350Y7746D02*
X2309Y7741D01*
X2223Y7706D01*
X2150Y7650D01*
X2094Y7577D01*
X2059Y7491D01*
X2054Y7450D01*
X2350D01*
Y7746D01*
D02*
G37*
G36*
X32550Y7950D02*
X32102D01*
X32113Y7869D01*
X32163Y7748D01*
X32243Y7643D01*
X32348Y7563D01*
X32469Y7513D01*
X32550Y7502D01*
Y7950D01*
D02*
G37*
G36*
X2450Y7746D02*
Y7450D01*
X2746D01*
X2741Y7491D01*
X2706Y7577D01*
X2650Y7650D01*
X2577Y7706D01*
X2491Y7741D01*
X2450Y7746D01*
D02*
G37*
G36*
X17550Y7846D02*
Y7550D01*
X17846D01*
X17841Y7591D01*
X17806Y7677D01*
X17750Y7750D01*
X17677Y7806D01*
X17591Y7841D01*
X17550Y7846D01*
D02*
G37*
G36*
X10050Y8398D02*
Y7950D01*
X10498D01*
X10487Y8031D01*
X10437Y8152D01*
X10357Y8257D01*
X10252Y8337D01*
X10131Y8387D01*
X10050Y8398D01*
D02*
G37*
G36*
X9950D02*
X9869Y8387D01*
X9748Y8337D01*
X9643Y8257D01*
X9563Y8152D01*
X9513Y8031D01*
X9502Y7950D01*
X9950D01*
Y8398D01*
D02*
G37*
G36*
X32550Y8498D02*
X32469Y8487D01*
X32348Y8437D01*
X32243Y8357D01*
X32163Y8252D01*
X32113Y8131D01*
X32102Y8050D01*
X32550D01*
Y8498D01*
D02*
G37*
G36*
X22900Y11215D02*
X22604D01*
X22609Y11174D01*
X22644Y11088D01*
X22700Y11015D01*
X22773Y10959D01*
X22859Y10924D01*
X22900Y10919D01*
Y11215D01*
D02*
G37*
G36*
X32650Y8498D02*
Y8050D01*
X33098D01*
X33087Y8131D01*
X33037Y8252D01*
X32957Y8357D01*
X32852Y8437D01*
X32731Y8487D01*
X32650Y8498D01*
D02*
G37*
G36*
X37550Y7846D02*
Y7550D01*
X37846D01*
X37841Y7591D01*
X37806Y7677D01*
X37750Y7750D01*
X37677Y7806D01*
X37591Y7841D01*
X37550Y7846D01*
D02*
G37*
G36*
X22550D02*
Y7550D01*
X22846D01*
X22841Y7591D01*
X22806Y7677D01*
X22750Y7750D01*
X22677Y7806D01*
X22591Y7841D01*
X22550Y7846D01*
D02*
G37*
G36*
X22450D02*
X22409Y7841D01*
X22323Y7806D01*
X22250Y7750D01*
X22194Y7677D01*
X22159Y7591D01*
X22154Y7550D01*
X22450D01*
Y7846D01*
D02*
G37*
G36*
X27450D02*
X27409Y7841D01*
X27323Y7806D01*
X27250Y7750D01*
X27194Y7677D01*
X27159Y7591D01*
X27154Y7550D01*
X27450D01*
Y7846D01*
D02*
G37*
G36*
X37450D02*
X37409Y7841D01*
X37323Y7806D01*
X37250Y7750D01*
X37194Y7677D01*
X37159Y7591D01*
X37154Y7550D01*
X37450D01*
Y7846D01*
D02*
G37*
G36*
X27550D02*
Y7550D01*
X27846D01*
X27841Y7591D01*
X27806Y7677D01*
X27750Y7750D01*
X27677Y7806D01*
X27591Y7841D01*
X27550Y7846D01*
D02*
G37*
G36*
X2550Y42846D02*
Y42550D01*
X2846D01*
X2841Y42591D01*
X2806Y42677D01*
X2750Y42750D01*
X2677Y42806D01*
X2591Y42841D01*
X2550Y42846D01*
D02*
G37*
G36*
X2450D02*
X2409Y42841D01*
X2323Y42806D01*
X2250Y42750D01*
X2194Y42677D01*
X2159Y42591D01*
X2154Y42550D01*
X2450D01*
Y42846D01*
D02*
G37*
G36*
X37846Y42450D02*
X37550D01*
Y42154D01*
X37591Y42159D01*
X37677Y42194D01*
X37750Y42250D01*
X37806Y42323D01*
X37841Y42409D01*
X37846Y42450D01*
D02*
G37*
G36*
X12450Y42846D02*
X12409Y42841D01*
X12323Y42806D01*
X12250Y42750D01*
X12194Y42677D01*
X12159Y42591D01*
X12154Y42550D01*
X12450D01*
Y42846D01*
D02*
G37*
G36*
X7550D02*
Y42550D01*
X7846D01*
X7841Y42591D01*
X7806Y42677D01*
X7750Y42750D01*
X7677Y42806D01*
X7591Y42841D01*
X7550Y42846D01*
D02*
G37*
G36*
X7450D02*
X7409Y42841D01*
X7323Y42806D01*
X7250Y42750D01*
X7194Y42677D01*
X7159Y42591D01*
X7154Y42550D01*
X7450D01*
Y42846D01*
D02*
G37*
G36*
X27846Y42450D02*
X27550D01*
Y42154D01*
X27591Y42159D01*
X27677Y42194D01*
X27750Y42250D01*
X27806Y42323D01*
X27841Y42409D01*
X27846Y42450D01*
D02*
G37*
G36*
X27450D02*
X27154D01*
X27159Y42409D01*
X27194Y42323D01*
X27250Y42250D01*
X27323Y42194D01*
X27409Y42159D01*
X27450Y42154D01*
Y42450D01*
D02*
G37*
G36*
X17846D02*
X17550D01*
Y42154D01*
X17591Y42159D01*
X17677Y42194D01*
X17750Y42250D01*
X17806Y42323D01*
X17841Y42409D01*
X17846Y42450D01*
D02*
G37*
G36*
X37450D02*
X37154D01*
X37159Y42409D01*
X37194Y42323D01*
X37250Y42250D01*
X37323Y42194D01*
X37409Y42159D01*
X37450Y42154D01*
Y42450D01*
D02*
G37*
G36*
X32846D02*
X32550D01*
Y42154D01*
X32591Y42159D01*
X32677Y42194D01*
X32750Y42250D01*
X32806Y42323D01*
X32841Y42409D01*
X32846Y42450D01*
D02*
G37*
G36*
X32450D02*
X32154D01*
X32159Y42409D01*
X32194Y42323D01*
X32250Y42250D01*
X32323Y42194D01*
X32409Y42159D01*
X32450Y42154D01*
Y42450D01*
D02*
G37*
G36*
X37550Y42846D02*
Y42550D01*
X37846D01*
X37841Y42591D01*
X37806Y42677D01*
X37750Y42750D01*
X37677Y42806D01*
X37591Y42841D01*
X37550Y42846D01*
D02*
G37*
G36*
X37450D02*
X37409Y42841D01*
X37323Y42806D01*
X37250Y42750D01*
X37194Y42677D01*
X37159Y42591D01*
X37154Y42550D01*
X37450D01*
Y42846D01*
D02*
G37*
G36*
X32550D02*
Y42550D01*
X32846D01*
X32841Y42591D01*
X32806Y42677D01*
X32750Y42750D01*
X32677Y42806D01*
X32591Y42841D01*
X32550Y42846D01*
D02*
G37*
G36*
X22050Y43896D02*
X22009Y43891D01*
X21923Y43856D01*
X21850Y43800D01*
X21794Y43727D01*
X21759Y43641D01*
X21754Y43600D01*
X22050D01*
Y43896D01*
D02*
G37*
G36*
X22446Y43500D02*
X22150D01*
Y43204D01*
X22191Y43209D01*
X22277Y43244D01*
X22350Y43300D01*
X22406Y43373D01*
X22441Y43459D01*
X22446Y43500D01*
D02*
G37*
G36*
X22050D02*
X21754D01*
X21759Y43459D01*
X21794Y43373D01*
X21850Y43300D01*
X21923Y43244D01*
X22009Y43209D01*
X22050Y43204D01*
Y43500D01*
D02*
G37*
G36*
X17550Y42846D02*
Y42550D01*
X17846D01*
X17841Y42591D01*
X17806Y42677D01*
X17750Y42750D01*
X17677Y42806D01*
X17591Y42841D01*
X17550Y42846D01*
D02*
G37*
G36*
X17450D02*
X17409Y42841D01*
X17323Y42806D01*
X17250Y42750D01*
X17194Y42677D01*
X17159Y42591D01*
X17154Y42550D01*
X17450D01*
Y42846D01*
D02*
G37*
G36*
X12550D02*
Y42550D01*
X12846D01*
X12841Y42591D01*
X12806Y42677D01*
X12750Y42750D01*
X12677Y42806D01*
X12591Y42841D01*
X12550Y42846D01*
D02*
G37*
G36*
X32450D02*
X32409Y42841D01*
X32323Y42806D01*
X32250Y42750D01*
X32194Y42677D01*
X32159Y42591D01*
X32154Y42550D01*
X32450D01*
Y42846D01*
D02*
G37*
G36*
X27550D02*
Y42550D01*
X27846D01*
X27841Y42591D01*
X27806Y42677D01*
X27750Y42750D01*
X27677Y42806D01*
X27591Y42841D01*
X27550Y42846D01*
D02*
G37*
G36*
X27450D02*
X27409Y42841D01*
X27323Y42806D01*
X27250Y42750D01*
X27194Y42677D01*
X27159Y42591D01*
X27154Y42550D01*
X27450D01*
Y42846D01*
D02*
G37*
G36*
X17450Y42450D02*
X17154D01*
X17159Y42409D01*
X17194Y42323D01*
X17250Y42250D01*
X17323Y42194D01*
X17409Y42159D01*
X17450Y42154D01*
Y42450D01*
D02*
G37*
G36*
X9950Y39700D02*
X9502D01*
X9513Y39619D01*
X9563Y39498D01*
X9643Y39393D01*
X9748Y39313D01*
X9869Y39263D01*
X9950Y39252D01*
Y39700D01*
D02*
G37*
G36*
X37550Y37846D02*
Y37550D01*
X37846D01*
X37841Y37591D01*
X37806Y37677D01*
X37750Y37750D01*
X37677Y37806D01*
X37591Y37841D01*
X37550Y37846D01*
D02*
G37*
G36*
X37450D02*
X37409Y37841D01*
X37323Y37806D01*
X37250Y37750D01*
X37194Y37677D01*
X37159Y37591D01*
X37154Y37550D01*
X37450D01*
Y37846D01*
D02*
G37*
G36*
X32998Y39700D02*
X32550D01*
Y39252D01*
X32631Y39263D01*
X32752Y39313D01*
X32857Y39393D01*
X32937Y39498D01*
X32987Y39619D01*
X32998Y39700D01*
D02*
G37*
G36*
X32450D02*
X32002D01*
X32013Y39619D01*
X32063Y39498D01*
X32143Y39393D01*
X32248Y39313D01*
X32369Y39263D01*
X32450Y39252D01*
Y39700D01*
D02*
G37*
G36*
X10498D02*
X10050D01*
Y39252D01*
X10131Y39263D01*
X10252Y39313D01*
X10357Y39393D01*
X10437Y39498D01*
X10487Y39619D01*
X10498Y39700D01*
D02*
G37*
G36*
X17450Y37846D02*
X17409Y37841D01*
X17323Y37806D01*
X17250Y37750D01*
X17194Y37677D01*
X17159Y37591D01*
X17154Y37550D01*
X17450D01*
Y37846D01*
D02*
G37*
G36*
X12550D02*
Y37550D01*
X12846D01*
X12841Y37591D01*
X12806Y37677D01*
X12750Y37750D01*
X12677Y37806D01*
X12591Y37841D01*
X12550Y37846D01*
D02*
G37*
G36*
X12450D02*
X12409Y37841D01*
X12323Y37806D01*
X12250Y37750D01*
X12194Y37677D01*
X12159Y37591D01*
X12154Y37550D01*
X12450D01*
Y37846D01*
D02*
G37*
G36*
X27550D02*
Y37550D01*
X27846D01*
X27841Y37591D01*
X27806Y37677D01*
X27750Y37750D01*
X27677Y37806D01*
X27591Y37841D01*
X27550Y37846D01*
D02*
G37*
G36*
X27450D02*
X27409Y37841D01*
X27323Y37806D01*
X27250Y37750D01*
X27194Y37677D01*
X27159Y37591D01*
X27154Y37550D01*
X27450D01*
Y37846D01*
D02*
G37*
G36*
X17550D02*
Y37550D01*
X17846D01*
X17841Y37591D01*
X17806Y37677D01*
X17750Y37750D01*
X17677Y37806D01*
X17591Y37841D01*
X17550Y37846D01*
D02*
G37*
G36*
X7450Y42450D02*
X7154D01*
X7159Y42409D01*
X7194Y42323D01*
X7250Y42250D01*
X7323Y42194D01*
X7409Y42159D01*
X7450Y42154D01*
Y42450D01*
D02*
G37*
G36*
X2846D02*
X2550D01*
Y42154D01*
X2591Y42159D01*
X2677Y42194D01*
X2750Y42250D01*
X2806Y42323D01*
X2841Y42409D01*
X2846Y42450D01*
D02*
G37*
G36*
X2450D02*
X2154D01*
X2159Y42409D01*
X2194Y42323D01*
X2250Y42250D01*
X2323Y42194D01*
X2409Y42159D01*
X2450Y42154D01*
Y42450D01*
D02*
G37*
G36*
X12846D02*
X12550D01*
Y42154D01*
X12591Y42159D01*
X12677Y42194D01*
X12750Y42250D01*
X12806Y42323D01*
X12841Y42409D01*
X12846Y42450D01*
D02*
G37*
G36*
X12450D02*
X12154D01*
X12159Y42409D01*
X12194Y42323D01*
X12250Y42250D01*
X12323Y42194D01*
X12409Y42159D01*
X12450Y42154D01*
Y42450D01*
D02*
G37*
G36*
X7846D02*
X7550D01*
Y42154D01*
X7591Y42159D01*
X7677Y42194D01*
X7750Y42250D01*
X7806Y42323D01*
X7841Y42409D01*
X7846Y42450D01*
D02*
G37*
G36*
X32450Y40248D02*
X32369Y40237D01*
X32248Y40187D01*
X32143Y40107D01*
X32063Y40002D01*
X32013Y39881D01*
X32002Y39800D01*
X32450D01*
Y40248D01*
D02*
G37*
G36*
X10050D02*
Y39800D01*
X10498D01*
X10487Y39881D01*
X10437Y40002D01*
X10357Y40107D01*
X10252Y40187D01*
X10131Y40237D01*
X10050Y40248D01*
D02*
G37*
G36*
X9950D02*
X9869Y40237D01*
X9748Y40187D01*
X9643Y40107D01*
X9563Y40002D01*
X9513Y39881D01*
X9502Y39800D01*
X9950D01*
Y40248D01*
D02*
G37*
G36*
X20250Y40846D02*
X20209Y40841D01*
X20123Y40806D01*
X20050Y40750D01*
X19994Y40677D01*
X19959Y40591D01*
X19954Y40550D01*
X20250D01*
Y40846D01*
D02*
G37*
G36*
Y40450D02*
X19954D01*
X19959Y40409D01*
X19994Y40323D01*
X20050Y40250D01*
X20123Y40194D01*
X20209Y40159D01*
X20250Y40154D01*
Y40450D01*
D02*
G37*
G36*
X32550Y40248D02*
Y39800D01*
X32998D01*
X32987Y39881D01*
X32937Y40002D01*
X32857Y40107D01*
X32752Y40187D01*
X32631Y40237D01*
X32550Y40248D01*
D02*
G37*
G36*
X22700Y47848D02*
X22632Y47841D01*
X22519Y47807D01*
X22415Y47751D01*
X22324Y47676D01*
X22249Y47585D01*
X22193Y47481D01*
X22159Y47368D01*
X22152Y47300D01*
X22700D01*
Y47848D01*
D02*
G37*
G36*
X37846Y47450D02*
X37550D01*
Y47154D01*
X37591Y47159D01*
X37677Y47194D01*
X37750Y47250D01*
X37806Y47323D01*
X37841Y47409D01*
X37846Y47450D01*
D02*
G37*
G36*
X37450D02*
X37154D01*
X37159Y47409D01*
X37194Y47323D01*
X37250Y47250D01*
X37323Y47194D01*
X37409Y47159D01*
X37450Y47154D01*
Y47450D01*
D02*
G37*
G36*
X24800Y47848D02*
Y47300D01*
X25348D01*
X25341Y47368D01*
X25307Y47481D01*
X25251Y47585D01*
X25176Y47676D01*
X25085Y47751D01*
X24981Y47807D01*
X24868Y47841D01*
X24800Y47848D01*
D02*
G37*
G36*
X24700D02*
X24632Y47841D01*
X24519Y47807D01*
X24415Y47751D01*
X24324Y47676D01*
X24249Y47585D01*
X24193Y47481D01*
X24159Y47368D01*
X24152Y47300D01*
X24700D01*
Y47848D01*
D02*
G37*
G36*
X22800D02*
Y47300D01*
X23348D01*
X23341Y47368D01*
X23307Y47481D01*
X23251Y47585D01*
X23176Y47676D01*
X23085Y47751D01*
X22981Y47807D01*
X22868Y47841D01*
X22800Y47848D01*
D02*
G37*
G36*
X17450Y47450D02*
X17154D01*
X17159Y47409D01*
X17194Y47323D01*
X17250Y47250D01*
X17323Y47194D01*
X17409Y47159D01*
X17450Y47154D01*
Y47450D01*
D02*
G37*
G36*
X12846D02*
X12550D01*
Y47154D01*
X12591Y47159D01*
X12677Y47194D01*
X12750Y47250D01*
X12806Y47323D01*
X12841Y47409D01*
X12846Y47450D01*
D02*
G37*
G36*
X12450D02*
X12154D01*
X12159Y47409D01*
X12194Y47323D01*
X12250Y47250D01*
X12323Y47194D01*
X12409Y47159D01*
X12450Y47154D01*
Y47450D01*
D02*
G37*
G36*
X32846D02*
X32550D01*
Y47154D01*
X32591Y47159D01*
X32677Y47194D01*
X32750Y47250D01*
X32806Y47323D01*
X32841Y47409D01*
X32846Y47450D01*
D02*
G37*
G36*
X32450D02*
X32154D01*
X32159Y47409D01*
X32194Y47323D01*
X32250Y47250D01*
X32323Y47194D01*
X32409Y47159D01*
X32450Y47154D01*
Y47450D01*
D02*
G37*
G36*
X17846D02*
X17550D01*
Y47154D01*
X17591Y47159D01*
X17677Y47194D01*
X17750Y47250D01*
X17806Y47323D01*
X17841Y47409D01*
X17846Y47450D01*
D02*
G37*
G36*
X32450Y47846D02*
X32409Y47841D01*
X32323Y47806D01*
X32250Y47750D01*
X32194Y47677D01*
X32159Y47591D01*
X32154Y47550D01*
X32450D01*
Y47846D01*
D02*
G37*
G36*
X17550D02*
Y47550D01*
X17846D01*
X17841Y47591D01*
X17806Y47677D01*
X17750Y47750D01*
X17677Y47806D01*
X17591Y47841D01*
X17550Y47846D01*
D02*
G37*
G36*
X17450D02*
X17409Y47841D01*
X17323Y47806D01*
X17250Y47750D01*
X17194Y47677D01*
X17159Y47591D01*
X17154Y47550D01*
X17450D01*
Y47846D01*
D02*
G37*
G36*
X37550D02*
Y47550D01*
X37846D01*
X37841Y47591D01*
X37806Y47677D01*
X37750Y47750D01*
X37677Y47806D01*
X37591Y47841D01*
X37550Y47846D01*
D02*
G37*
G36*
X37450D02*
X37409Y47841D01*
X37323Y47806D01*
X37250Y47750D01*
X37194Y47677D01*
X37159Y47591D01*
X37154Y47550D01*
X37450D01*
Y47846D01*
D02*
G37*
G36*
X32550D02*
Y47550D01*
X32846D01*
X32841Y47591D01*
X32806Y47677D01*
X32750Y47750D01*
X32677Y47806D01*
X32591Y47841D01*
X32550Y47846D01*
D02*
G37*
G36*
X7450D02*
X7409Y47841D01*
X7323Y47806D01*
X7250Y47750D01*
X7194Y47677D01*
X7159Y47591D01*
X7154Y47550D01*
X7450D01*
Y47846D01*
D02*
G37*
G36*
X2550D02*
Y47550D01*
X2846D01*
X2841Y47591D01*
X2806Y47677D01*
X2750Y47750D01*
X2677Y47806D01*
X2591Y47841D01*
X2550Y47846D01*
D02*
G37*
G36*
X2450D02*
X2409Y47841D01*
X2323Y47806D01*
X2250Y47750D01*
X2194Y47677D01*
X2159Y47591D01*
X2154Y47550D01*
X2450D01*
Y47846D01*
D02*
G37*
G36*
X12550D02*
Y47550D01*
X12846D01*
X12841Y47591D01*
X12806Y47677D01*
X12750Y47750D01*
X12677Y47806D01*
X12591Y47841D01*
X12550Y47846D01*
D02*
G37*
G36*
X12450D02*
X12409Y47841D01*
X12323Y47806D01*
X12250Y47750D01*
X12194Y47677D01*
X12159Y47591D01*
X12154Y47550D01*
X12450D01*
Y47846D01*
D02*
G37*
G36*
X7550D02*
Y47550D01*
X7846D01*
X7841Y47591D01*
X7806Y47677D01*
X7750Y47750D01*
X7677Y47806D01*
X7591Y47841D01*
X7550Y47846D01*
D02*
G37*
G36*
X7846Y47450D02*
X7550D01*
Y47154D01*
X7591Y47159D01*
X7677Y47194D01*
X7750Y47250D01*
X7806Y47323D01*
X7841Y47409D01*
X7846Y47450D01*
D02*
G37*
G36*
X22700Y45848D02*
X22632Y45841D01*
X22519Y45807D01*
X22415Y45751D01*
X22324Y45676D01*
X22249Y45585D01*
X22193Y45481D01*
X22159Y45368D01*
X22152Y45300D01*
X22700D01*
Y45848D01*
D02*
G37*
G36*
X25348Y45200D02*
X24800D01*
Y44652D01*
X24868Y44659D01*
X24981Y44693D01*
X25085Y44749D01*
X25176Y44824D01*
X25251Y44915D01*
X25307Y45019D01*
X25341Y45132D01*
X25348Y45200D01*
D02*
G37*
G36*
X24700D02*
X24152D01*
X24159Y45132D01*
X24193Y45019D01*
X24249Y44915D01*
X24324Y44824D01*
X24415Y44749D01*
X24519Y44693D01*
X24632Y44659D01*
X24700Y44652D01*
Y45200D01*
D02*
G37*
G36*
X24800Y45848D02*
Y45300D01*
X25348D01*
X25341Y45368D01*
X25307Y45481D01*
X25251Y45585D01*
X25176Y45676D01*
X25085Y45751D01*
X24981Y45807D01*
X24868Y45841D01*
X24800Y45848D01*
D02*
G37*
G36*
X24700D02*
X24632Y45841D01*
X24519Y45807D01*
X24415Y45751D01*
X24324Y45676D01*
X24249Y45585D01*
X24193Y45481D01*
X24159Y45368D01*
X24152Y45300D01*
X24700D01*
Y45848D01*
D02*
G37*
G36*
X22800D02*
Y45300D01*
X23348D01*
X23341Y45368D01*
X23307Y45481D01*
X23251Y45585D01*
X23176Y45676D01*
X23085Y45751D01*
X22981Y45807D01*
X22868Y45841D01*
X22800Y45848D01*
D02*
G37*
G36*
X25100Y44346D02*
Y44050D01*
X25396D01*
X25391Y44091D01*
X25356Y44177D01*
X25300Y44250D01*
X25227Y44306D01*
X25141Y44341D01*
X25100Y44346D01*
D02*
G37*
G36*
X25396Y43950D02*
X25100D01*
Y43654D01*
X25141Y43659D01*
X25227Y43694D01*
X25300Y43750D01*
X25356Y43823D01*
X25391Y43909D01*
X25396Y43950D01*
D02*
G37*
G36*
X22150Y43896D02*
Y43600D01*
X22446D01*
X22441Y43641D01*
X22406Y43727D01*
X22350Y43800D01*
X22277Y43856D01*
X22191Y43891D01*
X22150Y43896D01*
D02*
G37*
G36*
X23348Y45200D02*
X22800D01*
Y44652D01*
X22868Y44659D01*
X22981Y44693D01*
X23085Y44749D01*
X23176Y44824D01*
X23251Y44915D01*
X23307Y45019D01*
X23341Y45132D01*
X23348Y45200D01*
D02*
G37*
G36*
X22700D02*
X22152D01*
X22159Y45132D01*
X22193Y45019D01*
X22249Y44915D01*
X22324Y44824D01*
X22415Y44749D01*
X22519Y44693D01*
X22632Y44659D01*
X22700Y44652D01*
Y45200D01*
D02*
G37*
G36*
X25000Y44346D02*
X24959Y44341D01*
X24873Y44306D01*
X24800Y44250D01*
D01*
X24800Y44250D01*
X24800Y44250D01*
X24800Y44250D01*
Y44250D01*
X24712Y44183D01*
Y44287D01*
X24465D01*
Y44000D01*
Y43713D01*
X24712D01*
Y43817D01*
X24800Y43750D01*
Y43750D01*
X24800Y43750D01*
X24800Y43750D01*
X24800Y43750D01*
D01*
X24873Y43694D01*
X24959Y43659D01*
X25000Y43654D01*
Y44000D01*
Y44346D01*
D02*
G37*
G36*
X25348Y47200D02*
X24800D01*
Y46652D01*
X24868Y46659D01*
X24981Y46693D01*
X25085Y46749D01*
X25176Y46824D01*
X25251Y46915D01*
X25307Y47019D01*
X25341Y47132D01*
X25348Y47200D01*
D02*
G37*
G36*
X24700D02*
X24152D01*
X24159Y47132D01*
X24193Y47019D01*
X24249Y46915D01*
X24324Y46824D01*
X24415Y46749D01*
X24519Y46693D01*
X24632Y46659D01*
X24700Y46652D01*
Y47200D01*
D02*
G37*
G36*
X23348D02*
X22800D01*
Y46652D01*
X22868Y46659D01*
X22981Y46693D01*
X23085Y46749D01*
X23176Y46824D01*
X23251Y46915D01*
X23307Y47019D01*
X23341Y47132D01*
X23348Y47200D01*
D02*
G37*
G36*
X7450Y47450D02*
X7154D01*
X7159Y47409D01*
X7194Y47323D01*
X7250Y47250D01*
X7323Y47194D01*
X7409Y47159D01*
X7450Y47154D01*
Y47450D01*
D02*
G37*
G36*
X2846D02*
X2550D01*
Y47154D01*
X2591Y47159D01*
X2677Y47194D01*
X2750Y47250D01*
X2806Y47323D01*
X2841Y47409D01*
X2846Y47450D01*
D02*
G37*
G36*
X2450D02*
X2154D01*
X2159Y47409D01*
X2194Y47323D01*
X2250Y47250D01*
X2323Y47194D01*
X2409Y47159D01*
X2450Y47154D01*
Y47450D01*
D02*
G37*
G36*
X27950Y46748D02*
X27869Y46737D01*
X27748Y46687D01*
X27643Y46607D01*
X27563Y46502D01*
X27513Y46381D01*
X27502Y46300D01*
X27950D01*
Y46748D01*
D02*
G37*
G36*
X28498Y46200D02*
X28050D01*
Y45752D01*
X28131Y45763D01*
X28252Y45813D01*
X28357Y45893D01*
X28437Y45998D01*
X28487Y46119D01*
X28498Y46200D01*
D02*
G37*
G36*
X27950D02*
X27502D01*
X27513Y46119D01*
X27563Y45998D01*
X27643Y45893D01*
X27748Y45813D01*
X27869Y45763D01*
X27950Y45752D01*
Y46200D01*
D02*
G37*
G36*
X22700Y47200D02*
X22152D01*
X22159Y47132D01*
X22193Y47019D01*
X22249Y46915D01*
X22324Y46824D01*
X22415Y46749D01*
X22519Y46693D01*
X22632Y46659D01*
X22700Y46652D01*
Y47200D01*
D02*
G37*
G36*
X23750Y46830D02*
X23600Y46810D01*
X23460Y46752D01*
X23340Y46660D01*
X23248Y46540D01*
X23223Y46479D01*
X20446D01*
X20437Y46502D01*
X20357Y46607D01*
X20252Y46687D01*
X20131Y46737D01*
X20000Y46754D01*
X19869Y46737D01*
X19748Y46687D01*
X19643Y46607D01*
X19563Y46502D01*
X19513Y46381D01*
X19496Y46250D01*
X19513Y46119D01*
X19563Y45998D01*
X19643Y45893D01*
X19748Y45813D01*
X19869Y45763D01*
X20000Y45746D01*
X20131Y45763D01*
X20252Y45813D01*
X20357Y45893D01*
X20437Y45998D01*
X20446Y46021D01*
X23223D01*
X23248Y45960D01*
X23340Y45840D01*
X23460Y45748D01*
X23521Y45723D01*
Y44287D01*
X23488D01*
Y43713D01*
X23521D01*
Y41627D01*
X23464D01*
X23464D01*
X23442Y41627D01*
X23442Y41627D01*
Y41627D01*
X22969D01*
X22468Y42127D01*
X22437Y42148D01*
Y42262D01*
X21863D01*
Y41668D01*
X21863Y41668D01*
X21863Y41632D01*
X21863D01*
Y41467D01*
X21771Y41429D01*
X21350Y41850D01*
X21277Y41906D01*
X21191Y41941D01*
X21100Y41953D01*
X18150D01*
X18059Y41941D01*
X17973Y41906D01*
X17900Y41850D01*
X16154Y40103D01*
X14859D01*
X14857Y40107D01*
X14752Y40187D01*
X14631Y40237D01*
X14500Y40254D01*
X14369Y40237D01*
X14248Y40187D01*
X14143Y40107D01*
X14063Y40002D01*
X14013Y39881D01*
X13996Y39750D01*
X14013Y39619D01*
X14063Y39498D01*
X14143Y39393D01*
X14248Y39313D01*
X14369Y39263D01*
X14500Y39246D01*
X14631Y39263D01*
X14752Y39313D01*
X14857Y39393D01*
X14859Y39397D01*
X15947D01*
Y31700D01*
X15947Y31700D01*
X15947D01*
X15959Y31609D01*
X15994Y31523D01*
X16050Y31450D01*
X16123Y31394D01*
X16209Y31359D01*
X16300Y31347D01*
X16391Y31359D01*
X16477Y31394D01*
X16550Y31450D01*
X16606Y31523D01*
X16641Y31609D01*
X16653Y31700D01*
Y39604D01*
X18296Y41247D01*
X20954D01*
X21144Y41057D01*
X21106Y40964D01*
X21029D01*
Y40550D01*
X21335D01*
Y40735D01*
X21427Y40773D01*
X21765Y40436D01*
Y40036D01*
X21891D01*
Y39829D01*
X21909Y39741D01*
X21959Y39667D01*
X21959D01*
D01*
D01*
Y39667D01*
X21907Y39598D01*
X21907D01*
X21907Y39598D01*
X21829Y39545D01*
X21818Y39529D01*
X21720Y39549D01*
X21712Y39588D01*
X21662Y39662D01*
X21362Y39962D01*
X21335Y39980D01*
X21335Y40036D01*
X21335D01*
Y40450D01*
X20979D01*
Y40500D01*
X20929D01*
Y40964D01*
X20623D01*
Y40806D01*
X20534Y40762D01*
X20477Y40806D01*
X20391Y40841D01*
X20350Y40846D01*
Y40500D01*
Y40154D01*
X20391Y40159D01*
X20477Y40194D01*
X20534Y40238D01*
X20623Y40194D01*
Y40036D01*
D01*
Y40036D01*
X20617Y40029D01*
X19800D01*
X19712Y40012D01*
X19638Y39962D01*
X18638Y38962D01*
X18588Y38888D01*
X18571Y38800D01*
Y34100D01*
X18588Y34012D01*
X18638Y33938D01*
X18638Y33938D01*
X18638D01*
Y33938D01*
X18638Y33938D01*
X20138Y32438D01*
X20138D01*
X20138Y32438D01*
X20138Y32438D01*
Y32438D01*
X20187Y32405D01*
Y31103D01*
X6751D01*
X6645Y31262D01*
X6466Y31466D01*
X6262Y31645D01*
X6036Y31795D01*
X5793Y31915D01*
X5537Y32002D01*
X5271Y32055D01*
X5000Y32073D01*
X4729Y32055D01*
X4463Y32002D01*
X4207Y31915D01*
X3964Y31795D01*
X3738Y31645D01*
X3534Y31466D01*
X3355Y31262D01*
X3205Y31036D01*
X3085Y30793D01*
X3020Y30603D01*
X1250D01*
X1132Y30591D01*
X1019Y30557D01*
X915Y30501D01*
X824Y30426D01*
X749Y30335D01*
X693Y30231D01*
X659Y30118D01*
X647Y30000D01*
X659Y29882D01*
X693Y29769D01*
X749Y29665D01*
X824Y29574D01*
X915Y29499D01*
X1019Y29443D01*
X1132Y29409D01*
X1250Y29397D01*
X3020D01*
X3085Y29207D01*
X3205Y28964D01*
X3355Y28738D01*
X3534Y28534D01*
X3738Y28355D01*
X3964Y28205D01*
X4207Y28085D01*
X4397Y28020D01*
Y27071D01*
X4409Y26953D01*
X4443Y26840D01*
X4499Y26736D01*
X4574Y26645D01*
X4665Y26570D01*
X4769Y26514D01*
X4882Y26480D01*
X5000Y26468D01*
X5118Y26480D01*
X5231Y26514D01*
X5335Y26570D01*
X5426Y26645D01*
X5501Y26736D01*
X5557Y26840D01*
X5591Y26953D01*
X5603Y27071D01*
Y28020D01*
X5793Y28085D01*
X6036Y28205D01*
X6262Y28355D01*
X6466Y28534D01*
X6645Y28738D01*
X6751Y28897D01*
X10396D01*
Y14000D01*
X10396Y14000D01*
X10396D01*
X10412Y13833D01*
X10461Y13673D01*
X10540Y13525D01*
X10646Y13396D01*
X13046Y10996D01*
Y10996D01*
X13046Y10996D01*
X13046Y10996D01*
Y10996D01*
X13175Y10890D01*
X13323Y10811D01*
X13323Y10811D01*
X13323Y10811D01*
D01*
X13323Y10811D01*
X13323Y10811D01*
X13483Y10762D01*
X13650Y10746D01*
X19500D01*
X19667Y10762D01*
X19827Y10811D01*
X19975Y10890D01*
X20104Y10996D01*
X21595Y12487D01*
X21701Y12616D01*
X21780Y12764D01*
X21829Y12924D01*
X21845Y13091D01*
Y13600D01*
X21829Y13767D01*
X21780Y13927D01*
X21742Y13998D01*
Y14513D01*
X21834Y14551D01*
X22663Y13723D01*
Y13583D01*
X22663Y13583D01*
X22663Y13547D01*
X22663D01*
Y13451D01*
X22644Y13427D01*
X22609Y13341D01*
X22597Y13250D01*
Y12580D01*
X22609Y12489D01*
X22644Y12403D01*
X22663Y12379D01*
Y12283D01*
X22663Y12283D01*
X22663Y12247D01*
X22663D01*
Y12000D01*
X23237D01*
Y12247D01*
D01*
Y12247D01*
X23237Y12247D01*
Y12283D01*
X23237D01*
Y12379D01*
X23256Y12403D01*
X23291Y12489D01*
X23303Y12580D01*
Y13250D01*
X23291Y13341D01*
X23256Y13427D01*
X23237Y13451D01*
Y13547D01*
D01*
Y13547D01*
X23237Y13547D01*
Y13583D01*
D01*
X23237Y13611D01*
X26461D01*
X26627Y13628D01*
X26787Y13676D01*
X26935Y13755D01*
X27065Y13862D01*
X30462Y17259D01*
X30557Y17227D01*
X30559Y17209D01*
X30594Y17123D01*
X30650Y17050D01*
X30723Y16994D01*
X30809Y16959D01*
X30850Y16954D01*
Y17300D01*
X30900D01*
Y17350D01*
X31246D01*
X31241Y17391D01*
X31206Y17477D01*
X31150Y17550D01*
X31077Y17606D01*
X30991Y17641D01*
X30973Y17643D01*
X30941Y17738D01*
X31858Y18655D01*
X31878Y18646D01*
D01*
X31950Y18616D01*
Y18045D01*
X32750D01*
Y18645D01*
X31979D01*
X31949Y18717D01*
D01*
X31940Y18737D01*
X33358Y20155D01*
X33650D01*
Y20763D01*
X33654Y20805D01*
Y21600D01*
Y22350D01*
X33855D01*
Y22642D01*
X34159Y22946D01*
X35997D01*
Y19300D01*
X36009Y19182D01*
X36043Y19069D01*
X36099Y18965D01*
X36174Y18874D01*
X36265Y18799D01*
X36369Y18743D01*
X36482Y18709D01*
X36600Y18697D01*
X36718Y18709D01*
X36831Y18743D01*
X36935Y18799D01*
X37026Y18874D01*
X37101Y18965D01*
X37157Y19069D01*
X37191Y19182D01*
X37203Y19300D01*
Y23195D01*
X37204Y23196D01*
X37310Y23325D01*
X37389Y23473D01*
X37438Y23633D01*
X37454Y23800D01*
X37438Y23967D01*
X37389Y24127D01*
X37310Y24275D01*
X37204Y24404D01*
X37075Y24510D01*
X36927Y24589D01*
X36767Y24638D01*
X36600Y24654D01*
X33805D01*
X33638Y24638D01*
X33478Y24589D01*
X33330Y24510D01*
X33201Y24404D01*
X32847Y24050D01*
X32555D01*
Y23758D01*
X32196Y23399D01*
X32090Y23270D01*
X32011Y23122D01*
X31962Y22962D01*
X31946Y22795D01*
Y21953D01*
X27296D01*
X26600Y22650D01*
X26527Y22706D01*
X26441Y22741D01*
X26350Y22753D01*
X23950D01*
X23859Y22741D01*
X23773Y22706D01*
X23700Y22650D01*
X23297Y22246D01*
X23204Y22284D01*
Y24630D01*
X23275Y24700D01*
X23300Y24697D01*
X23391Y24709D01*
X23477Y24744D01*
X23550Y24800D01*
X23606Y24873D01*
X23641Y24959D01*
X23653Y25050D01*
X23641Y25141D01*
X23606Y25227D01*
X23550Y25300D01*
X23477Y25356D01*
X23391Y25391D01*
X23300Y25403D01*
X23209Y25391D01*
X23123Y25356D01*
X23050Y25300D01*
X22994Y25227D01*
X22959Y25141D01*
X22947Y25050D01*
X22950Y25025D01*
X22813Y24887D01*
X22763Y24813D01*
X22746Y24725D01*
Y23280D01*
X22651Y23248D01*
X22650Y23250D01*
X22577Y23306D01*
X22491Y23341D01*
X22450Y23346D01*
Y23000D01*
X22350D01*
Y23346D01*
X22309Y23341D01*
X22223Y23306D01*
X22150Y23250D01*
X22125Y23217D01*
X22025D01*
X22000Y23250D01*
X21927Y23306D01*
X21841Y23341D01*
X21800Y23346D01*
Y23000D01*
X21750D01*
Y22950D01*
X21404D01*
X21409Y22909D01*
X21444Y22823D01*
X21500Y22750D01*
X21573Y22694D01*
X21586Y22689D01*
Y22627D01*
D01*
D01*
D01*
Y22627D01*
X21586Y22483D01*
X21586Y22483D01*
X21586D01*
Y22321D01*
X22050D01*
Y22271D01*
X22100D01*
Y21915D01*
X22492D01*
Y21915D01*
X22492Y21915D01*
X22514Y21915D01*
X22563Y21866D01*
Y21485D01*
X22514D01*
D01*
D01*
X22514D01*
Y21485D01*
X22114D01*
X21777Y21823D01*
X21815Y21915D01*
X22000D01*
Y22221D01*
X21586D01*
Y22144D01*
X21493Y22106D01*
X18400Y25200D01*
X18327Y25256D01*
X18241Y25291D01*
X18150Y25303D01*
X16653D01*
Y28350D01*
X16641Y28441D01*
X16606Y28527D01*
X16550Y28600D01*
X16477Y28656D01*
X16391Y28691D01*
X16300Y28703D01*
X16209Y28691D01*
X16123Y28656D01*
X16050Y28600D01*
X15994Y28527D01*
X15959Y28441D01*
X15947Y28350D01*
Y24950D01*
Y23932D01*
X15689D01*
Y22768D01*
X15947D01*
Y22572D01*
X15938Y22504D01*
X15950Y22412D01*
X15985Y22327D01*
X16041Y22254D01*
X16058Y22241D01*
X16055Y22141D01*
X15979Y22090D01*
X15950Y22048D01*
X15850D01*
X15821Y22090D01*
X15743Y22143D01*
X15650Y22161D01*
X15557Y22143D01*
X15479Y22090D01*
X15426Y22012D01*
X15408Y21919D01*
Y21210D01*
X15426Y21117D01*
X15479Y21039D01*
X15557Y20986D01*
X15650Y20968D01*
X15743Y20986D01*
X15821Y21039D01*
X15850Y21082D01*
X15950D01*
X15979Y21039D01*
X16057Y20986D01*
X16150Y20968D01*
X16243Y20986D01*
X16321Y21039D01*
X16350Y21082D01*
X16450D01*
X16479Y21039D01*
X16557Y20986D01*
X16650Y20968D01*
X16743Y20986D01*
X16821Y21039D01*
X16850Y21082D01*
X16950D01*
X16979Y21039D01*
X17057Y20986D01*
X17150Y20968D01*
X17243Y20986D01*
X17321Y21039D01*
X17374Y21117D01*
X17392Y21210D01*
Y21919D01*
X17379Y21984D01*
Y22070D01*
X17447Y22138D01*
X17497Y22212D01*
X17514Y22300D01*
X17547Y22363D01*
Y22363D01*
X17582Y22363D01*
X17600D01*
X17618D01*
X17653Y22363D01*
X17653Y22363D01*
Y22363D01*
X17865D01*
Y22650D01*
Y22937D01*
X17653D01*
Y22937D01*
X17653Y22937D01*
X17618Y22937D01*
X17600D01*
X17582D01*
X17547Y22937D01*
X17547Y22937D01*
Y22937D01*
X16988D01*
Y22937D01*
X16964D01*
X16893Y23008D01*
Y23932D01*
X16653D01*
Y24597D01*
X18004D01*
X21249Y21352D01*
X21250Y21350D01*
X21554Y21046D01*
X21535Y20948D01*
X21493Y20931D01*
X21262Y21162D01*
X21188Y21212D01*
X21100Y21229D01*
X19500D01*
X19412Y21212D01*
X19338Y21162D01*
X18738Y20562D01*
X18688Y20488D01*
X18671Y20400D01*
Y15050D01*
X18688Y14962D01*
X18738Y14888D01*
X18738Y14888D01*
X18738Y14888D01*
X20137Y13489D01*
Y13445D01*
X19146Y12454D01*
X16488D01*
Y18107D01*
X16476Y18199D01*
X16463Y18230D01*
X16519Y18313D01*
X16715D01*
Y18600D01*
Y18887D01*
X16503D01*
Y18887D01*
X16503Y18887D01*
X16468Y18887D01*
X16450D01*
X16432D01*
X16432D01*
X16397D01*
X16397D01*
D01*
X16379Y18887D01*
Y19086D01*
X16475Y19115D01*
X16479Y19110D01*
X16557Y19057D01*
X16650Y19039D01*
X16743Y19057D01*
X16821Y19110D01*
X16850Y19152D01*
X16950D01*
X16979Y19110D01*
X17057Y19057D01*
X17100Y19049D01*
Y19635D01*
Y20222D01*
X17057Y20214D01*
X16979Y20161D01*
X16950Y20118D01*
X16850D01*
X16821Y20161D01*
X16743Y20214D01*
X16650Y20232D01*
X16557Y20214D01*
X16479Y20161D01*
X16450Y20118D01*
X16350D01*
X16321Y20161D01*
X16243Y20214D01*
X16150Y20232D01*
X16057Y20214D01*
X15979Y20161D01*
X15950Y20118D01*
X15850D01*
X15821Y20161D01*
X15743Y20214D01*
X15650Y20232D01*
X15557Y20214D01*
X15479Y20161D01*
X15426Y20083D01*
X15408Y19990D01*
Y19281D01*
X15426Y19188D01*
X15479Y19110D01*
X15557Y19057D01*
X15650Y19039D01*
X15743Y19057D01*
X15821Y19110D01*
X15825Y19115D01*
X15921Y19086D01*
Y18887D01*
X15838D01*
Y18313D01*
X15838Y18313D01*
X15838D01*
X15843Y18302D01*
X15829Y18284D01*
X15794Y18199D01*
X15782Y18107D01*
Y12454D01*
X14004D01*
X12104Y14354D01*
Y28897D01*
X20343D01*
X25220Y24020D01*
X25291Y23959D01*
X25351Y23907D01*
X25442Y23852D01*
X25499Y23817D01*
X25593Y23778D01*
X25659Y23751D01*
X25699Y23741D01*
X25827Y23710D01*
X26000Y23697D01*
X29292D01*
Y23200D01*
X29305Y23027D01*
X29346Y22859D01*
X29412Y22699D01*
X29502Y22551D01*
X29615Y22420D01*
X29747Y22307D01*
X29894Y22217D01*
X30054Y22151D01*
X30222Y22110D01*
X30395Y22097D01*
X30568Y22110D01*
X30736Y22151D01*
X30896Y22217D01*
X31044Y22307D01*
X31175Y22420D01*
X31288Y22551D01*
X31378Y22699D01*
X31444Y22859D01*
X31485Y23027D01*
X31498Y23200D01*
Y24800D01*
Y26000D01*
X31485Y26173D01*
X31444Y26341D01*
X31378Y26501D01*
X31288Y26649D01*
X31175Y26780D01*
X31044Y26893D01*
X30896Y26983D01*
X30736Y27049D01*
X30568Y27090D01*
X30395Y27103D01*
X30222Y27090D01*
X30054Y27049D01*
X29894Y26983D01*
X29747Y26893D01*
X29615Y26780D01*
X29502Y26649D01*
X29412Y26501D01*
X29346Y26341D01*
X29305Y26173D01*
X29292Y26000D01*
Y25903D01*
X26457D01*
X21895Y30465D01*
Y32600D01*
X21879Y32767D01*
X21830Y32927D01*
X21751Y33075D01*
X21742Y33086D01*
Y33563D01*
X21834Y33601D01*
X22513Y32923D01*
Y32683D01*
X22513Y32683D01*
X22513Y32647D01*
X22513D01*
Y32551D01*
X22494Y32527D01*
X22459Y32441D01*
X22447Y32350D01*
Y31680D01*
X22459Y31589D01*
X22494Y31503D01*
X22513Y31479D01*
Y31383D01*
X22513Y31383D01*
X22513Y31347D01*
X22513D01*
Y31100D01*
X23087D01*
Y31347D01*
D01*
Y31347D01*
X23087Y31347D01*
Y31383D01*
X23087D01*
Y31479D01*
X23106Y31503D01*
X23141Y31589D01*
X23153Y31680D01*
Y32350D01*
X23141Y32441D01*
X23106Y32527D01*
X23090Y32547D01*
X23119Y32581D01*
X23173Y32614D01*
X23178Y32611D01*
X23338Y32562D01*
X23505Y32546D01*
X27441D01*
X31946Y28041D01*
Y27679D01*
X26165D01*
X26150Y27700D01*
X26077Y27756D01*
X25991Y27791D01*
X25900Y27803D01*
X25809Y27791D01*
X25723Y27756D01*
X25650Y27700D01*
X25594Y27627D01*
X25559Y27541D01*
X25547Y27450D01*
X25559Y27359D01*
X25594Y27273D01*
X25650Y27200D01*
X25723Y27144D01*
X25809Y27109D01*
X25900Y27097D01*
X25991Y27109D01*
X26077Y27144D01*
X26150Y27200D01*
X26165Y27221D01*
X31946D01*
Y26405D01*
X31962Y26238D01*
X32011Y26078D01*
X32090Y25930D01*
X32196Y25801D01*
X32555Y25442D01*
Y25150D01*
X32857D01*
X32930Y25090D01*
X33078Y25011D01*
X33078Y25011D01*
X33078Y25011D01*
D01*
X33078Y25011D01*
X33078Y25011D01*
X33238Y24962D01*
X33405Y24946D01*
X36600D01*
X36767Y24962D01*
X36927Y25011D01*
X37075Y25090D01*
X37204Y25196D01*
X37310Y25325D01*
X37389Y25473D01*
X37438Y25633D01*
X37454Y25800D01*
X37438Y25967D01*
X37389Y26127D01*
X37310Y26275D01*
X37204Y26404D01*
X37203Y26405D01*
Y30300D01*
X37191Y30418D01*
X37157Y30531D01*
X37101Y30635D01*
X37026Y30726D01*
X36935Y30801D01*
X36831Y30857D01*
X36718Y30891D01*
X36600Y30903D01*
X36482Y30891D01*
X36369Y30857D01*
X36265Y30801D01*
X36174Y30726D01*
X36099Y30635D01*
X36043Y30531D01*
X36009Y30418D01*
X35997Y30300D01*
Y26654D01*
X33855D01*
Y26850D01*
X33654D01*
Y27450D01*
Y28395D01*
X33650Y28437D01*
Y29045D01*
X33358D01*
X31940Y30463D01*
X31949Y30483D01*
D01*
X31979Y30555D01*
X32750D01*
Y31155D01*
X31950D01*
Y30584D01*
X31878Y30554D01*
D01*
X31858Y30545D01*
X28399Y34004D01*
X28270Y34110D01*
X28122Y34189D01*
X27962Y34238D01*
X27795Y34254D01*
X25918D01*
X25895Y34289D01*
X25871Y34346D01*
X26462Y34938D01*
X26462Y34938D01*
X26462Y34938D01*
X26512Y35012D01*
X26529Y35100D01*
Y40000D01*
X26512Y40088D01*
X26462Y40162D01*
X25777Y40847D01*
X25703Y40897D01*
X25615Y40914D01*
X24087D01*
Y40947D01*
D01*
Y40947D01*
Y40982D01*
Y40982D01*
Y41000D01*
Y41018D01*
X24087Y41053D01*
X24087Y41053D01*
X24087D01*
Y41612D01*
X23979D01*
Y43642D01*
X24050Y43713D01*
X24082Y43713D01*
X24100D01*
X24118D01*
X24153Y43713D01*
X24153Y43713D01*
Y43713D01*
X24365D01*
Y44000D01*
Y44287D01*
X24153D01*
Y44287D01*
X24153Y44287D01*
X24118Y44287D01*
X24100D01*
X24082D01*
X24050Y44287D01*
X23979Y44358D01*
Y45723D01*
X24040Y45748D01*
X24160Y45840D01*
X24252Y45960D01*
X24310Y46100D01*
X24330Y46250D01*
X24310Y46400D01*
X24252Y46540D01*
X24160Y46660D01*
X24040Y46752D01*
X23900Y46810D01*
X23750Y46830D01*
D02*
G37*
G36*
X28050Y46748D02*
Y46300D01*
X28498D01*
X28487Y46381D01*
X28437Y46502D01*
X28357Y46607D01*
X28252Y46687D01*
X28131Y46737D01*
X28050Y46748D01*
D02*
G37*
G36*
X7550Y37846D02*
Y37550D01*
X7846D01*
X7841Y37591D01*
X7806Y37677D01*
X7750Y37750D01*
X7677Y37806D01*
X7591Y37841D01*
X7550Y37846D01*
D02*
G37*
G36*
X32750Y32787D02*
X32698Y32780D01*
X32603Y32741D01*
X32522Y32678D01*
X32459Y32597D01*
X32450Y32574D01*
X32350D01*
X32341Y32597D01*
X32278Y32678D01*
X32197Y32741D01*
X32102Y32780D01*
X32050Y32787D01*
Y32400D01*
Y32013D01*
X32102Y32020D01*
X32197Y32059D01*
X32278Y32122D01*
X32341Y32203D01*
X32350Y32226D01*
X32450D01*
X32459Y32203D01*
X32522Y32122D01*
X32603Y32059D01*
X32698Y32020D01*
X32750Y32013D01*
Y32400D01*
Y32787D01*
D02*
G37*
G36*
X34087Y32350D02*
X33750D01*
Y32013D01*
X33802Y32020D01*
X33897Y32059D01*
X33978Y32122D01*
X34041Y32203D01*
X34080Y32298D01*
X34087Y32350D01*
D02*
G37*
G36*
X33187D02*
X32850D01*
Y32013D01*
X32902Y32020D01*
X32997Y32059D01*
X33078Y32122D01*
X33141Y32203D01*
X33180Y32298D01*
X33187Y32350D01*
D02*
G37*
G36*
X33650D02*
X33313D01*
X33320Y32298D01*
X33359Y32203D01*
X33422Y32122D01*
X33503Y32059D01*
X33598Y32020D01*
X33650Y32013D01*
Y32350D01*
D02*
G37*
G36*
X19261Y32550D02*
X18709D01*
Y32018D01*
X19261D01*
Y32550D01*
D02*
G37*
G36*
X2846Y32450D02*
X2550D01*
Y32154D01*
X2591Y32159D01*
X2677Y32194D01*
X2750Y32250D01*
X2806Y32323D01*
X2841Y32409D01*
X2846Y32450D01*
D02*
G37*
G36*
X7450D02*
X7154D01*
X7159Y32409D01*
X7194Y32323D01*
X7250Y32250D01*
X7323Y32194D01*
X7409Y32159D01*
X7450Y32154D01*
Y32450D01*
D02*
G37*
G36*
X17650Y32446D02*
X17609Y32441D01*
X17523Y32406D01*
X17450Y32350D01*
X17394Y32277D01*
X17359Y32191D01*
X17354Y32150D01*
X17650D01*
Y32446D01*
D02*
G37*
G36*
X2450Y32450D02*
X2154D01*
X2159Y32409D01*
X2194Y32323D01*
X2250Y32250D01*
X2323Y32194D01*
X2409Y32159D01*
X2450Y32154D01*
Y32450D01*
D02*
G37*
G36*
X35850Y32250D02*
X35554D01*
X35559Y32209D01*
X35594Y32123D01*
X35650Y32050D01*
X35723Y31994D01*
X35809Y31959D01*
X35850Y31954D01*
Y32250D01*
D02*
G37*
G36*
X17650Y33346D02*
X17609Y33341D01*
X17523Y33306D01*
X17450Y33250D01*
X17394Y33177D01*
X17359Y33091D01*
X17354Y33050D01*
X17650D01*
Y33346D01*
D02*
G37*
G36*
X30850Y32250D02*
X30554D01*
X30559Y32209D01*
X30594Y32123D01*
X30650Y32050D01*
X30723Y31994D01*
X30809Y31959D01*
X30850Y31954D01*
Y32250D01*
D02*
G37*
G36*
X31246D02*
X30950D01*
Y31954D01*
X30991Y31959D01*
X31077Y31994D01*
X31150Y32050D01*
X31206Y32123D01*
X31241Y32209D01*
X31246Y32250D01*
D02*
G37*
G36*
X17650Y32950D02*
X17354D01*
X17359Y32909D01*
X17394Y32823D01*
X17450Y32750D01*
X17523Y32694D01*
X17609Y32659D01*
X17650Y32654D01*
Y32950D01*
D02*
G37*
G36*
X36246Y32250D02*
X35950D01*
Y31954D01*
X35991Y31959D01*
X36077Y31994D01*
X36150Y32050D01*
X36206Y32123D01*
X36241Y32209D01*
X36246Y32250D01*
D02*
G37*
G36*
X31950Y32350D02*
X31613D01*
X31620Y32298D01*
X31659Y32203D01*
X31722Y32122D01*
X31803Y32059D01*
X31898Y32020D01*
X31950Y32013D01*
Y32350D01*
D02*
G37*
G36*
X19261Y33182D02*
X18709D01*
Y32650D01*
X19261D01*
Y33182D01*
D02*
G37*
G36*
X17750Y33346D02*
Y33000D01*
Y32654D01*
X17791Y32659D01*
X17877Y32694D01*
X17950Y32750D01*
X17962Y32767D01*
X18057Y32735D01*
Y32650D01*
X18609D01*
Y33182D01*
X18093D01*
X18093Y33182D01*
Y33182D01*
X18057Y33182D01*
D01*
D01*
D01*
X18024Y33169D01*
X18006Y33177D01*
X17950Y33250D01*
X17877Y33306D01*
X17791Y33341D01*
X17750Y33346D01*
D02*
G37*
G36*
X35950Y32646D02*
Y32350D01*
X36246D01*
X36241Y32391D01*
X36206Y32477D01*
X36150Y32550D01*
X36077Y32606D01*
X35991Y32641D01*
X35950Y32646D01*
D02*
G37*
G36*
X35850D02*
X35809Y32641D01*
X35723Y32606D01*
X35650Y32550D01*
X35594Y32477D01*
X35559Y32391D01*
X35554Y32350D01*
X35850D01*
Y32646D01*
D02*
G37*
G36*
X32850Y32787D02*
Y32450D01*
X33187D01*
X33180Y32502D01*
X33141Y32597D01*
X33078Y32678D01*
X32997Y32741D01*
X32902Y32780D01*
X32850Y32787D01*
D02*
G37*
G36*
X31950D02*
X31898Y32780D01*
X31803Y32741D01*
X31722Y32678D01*
X31659Y32597D01*
X31620Y32502D01*
X31613Y32450D01*
X31950D01*
Y32787D01*
D02*
G37*
G36*
X30950Y32646D02*
Y32350D01*
X31246D01*
X31241Y32391D01*
X31206Y32477D01*
X31150Y32550D01*
X31077Y32606D01*
X30991Y32641D01*
X30950Y32646D01*
D02*
G37*
G36*
X12846Y32450D02*
X12550D01*
Y32154D01*
X12591Y32159D01*
X12677Y32194D01*
X12750Y32250D01*
X12806Y32323D01*
X12841Y32409D01*
X12846Y32450D01*
D02*
G37*
G36*
X12450D02*
X12154D01*
X12159Y32409D01*
X12194Y32323D01*
X12250Y32250D01*
X12323Y32194D01*
X12409Y32159D01*
X12450Y32154D01*
Y32450D01*
D02*
G37*
G36*
X30850Y32646D02*
X30809Y32641D01*
X30723Y32606D01*
X30650Y32550D01*
X30594Y32477D01*
X30559Y32391D01*
X30554Y32350D01*
X30850D01*
Y32646D01*
D02*
G37*
G36*
X18609Y32550D02*
X18057D01*
Y32365D01*
X17962Y32333D01*
X17950Y32350D01*
X17877Y32406D01*
X17791Y32441D01*
X17750Y32446D01*
Y32100D01*
Y31754D01*
X17791Y31759D01*
X17877Y31794D01*
X17950Y31850D01*
X18006Y31923D01*
X18041Y32009D01*
X18042Y32018D01*
X18057D01*
X18057D01*
X18118Y32018D01*
X18118Y32018D01*
X18118Y32018D01*
X18609D01*
Y32550D01*
D02*
G37*
G36*
X12450Y32846D02*
X12409Y32841D01*
X12323Y32806D01*
X12250Y32750D01*
X12194Y32677D01*
X12159Y32591D01*
X12154Y32550D01*
X12450D01*
Y32846D01*
D02*
G37*
G36*
X7550D02*
Y32550D01*
X7846D01*
X7841Y32591D01*
X7806Y32677D01*
X7750Y32750D01*
X7677Y32806D01*
X7591Y32841D01*
X7550Y32846D01*
D02*
G37*
G36*
X7846Y32450D02*
X7550D01*
Y32154D01*
X7591Y32159D01*
X7677Y32194D01*
X7750Y32250D01*
X7806Y32323D01*
X7841Y32409D01*
X7846Y32450D01*
D02*
G37*
G36*
X12550Y32846D02*
Y32550D01*
X12846D01*
X12841Y32591D01*
X12806Y32677D01*
X12750Y32750D01*
X12677Y32806D01*
X12591Y32841D01*
X12550Y32846D01*
D02*
G37*
G36*
X7450D02*
X7409Y32841D01*
X7323Y32806D01*
X7250Y32750D01*
X7194Y32677D01*
X7159Y32591D01*
X7154Y32550D01*
X7450D01*
Y32846D01*
D02*
G37*
G36*
X33750Y32787D02*
Y32450D01*
X34087D01*
X34080Y32502D01*
X34041Y32597D01*
X33978Y32678D01*
X33897Y32741D01*
X33802Y32780D01*
X33750Y32787D01*
D02*
G37*
G36*
X33650D02*
X33598Y32780D01*
X33503Y32741D01*
X33422Y32678D01*
X33359Y32597D01*
X33320Y32502D01*
X33313Y32450D01*
X33650D01*
Y32787D01*
D02*
G37*
G36*
X2550Y32846D02*
Y32550D01*
X2846D01*
X2841Y32591D01*
X2806Y32677D01*
X2750Y32750D01*
X2677Y32806D01*
X2591Y32841D01*
X2550Y32846D01*
D02*
G37*
G36*
X2450D02*
X2409Y32841D01*
X2323Y32806D01*
X2250Y32750D01*
X2194Y32677D01*
X2159Y32591D01*
X2154Y32550D01*
X2450D01*
Y32846D01*
D02*
G37*
G36*
X9582Y28211D02*
X9050D01*
Y27659D01*
X9582D01*
Y28211D01*
D02*
G37*
G36*
X37450Y37450D02*
X37154D01*
X37159Y37409D01*
X37194Y37323D01*
X37250Y37250D01*
X37323Y37194D01*
X37409Y37159D01*
X37450Y37154D01*
Y37450D01*
D02*
G37*
G36*
X2450Y37846D02*
X2409Y37841D01*
X2323Y37806D01*
X2250Y37750D01*
X2194Y37677D01*
X2159Y37591D01*
X2154Y37550D01*
X2450D01*
Y37846D01*
D02*
G37*
G36*
X37846Y37450D02*
X37550D01*
Y37154D01*
X37591Y37159D01*
X37677Y37194D01*
X37750Y37250D01*
X37806Y37323D01*
X37841Y37409D01*
X37846Y37450D01*
D02*
G37*
G36*
X2550Y37846D02*
Y37550D01*
X2846D01*
X2841Y37591D01*
X2806Y37677D01*
X2750Y37750D01*
X2677Y37806D01*
X2591Y37841D01*
X2550Y37846D01*
D02*
G37*
G36*
X27846Y37450D02*
X27550D01*
Y37154D01*
X27591Y37159D01*
X27677Y37194D01*
X27750Y37250D01*
X27806Y37323D01*
X27841Y37409D01*
X27846Y37450D01*
D02*
G37*
G36*
X22700Y30365D02*
X22404D01*
X22409Y30324D01*
X22444Y30238D01*
X22500Y30165D01*
X22573Y30109D01*
X22659Y30074D01*
X22700Y30069D01*
Y30365D01*
D02*
G37*
G36*
X8950Y28211D02*
X8418D01*
Y27659D01*
X8950D01*
Y28211D01*
D02*
G37*
G36*
X24950Y28700D02*
X24654D01*
X24659Y28659D01*
X24694Y28573D01*
X24750Y28500D01*
X24823Y28444D01*
X24909Y28409D01*
X24950Y28404D01*
Y28700D01*
D02*
G37*
G36*
X29096D02*
X28800D01*
Y28404D01*
X28841Y28409D01*
X28927Y28444D01*
X29000Y28500D01*
X29056Y28573D01*
X29091Y28659D01*
X29096Y28700D01*
D02*
G37*
G36*
X25346D02*
X25050D01*
Y28404D01*
X25091Y28409D01*
X25177Y28444D01*
X25250Y28500D01*
X25306Y28573D01*
X25341Y28659D01*
X25346Y28700D01*
D02*
G37*
G36*
X28700D02*
X28404D01*
X28409Y28659D01*
X28444Y28573D01*
X28500Y28500D01*
X28573Y28444D01*
X28659Y28409D01*
X28700Y28404D01*
Y28700D01*
D02*
G37*
G36*
Y29096D02*
X28659Y29091D01*
X28573Y29056D01*
X28500Y29000D01*
X28444Y28927D01*
X28409Y28841D01*
X28404Y28800D01*
X28700D01*
Y29096D01*
D02*
G37*
G36*
X28800D02*
Y28800D01*
X29096D01*
X29091Y28841D01*
X29056Y28927D01*
X29000Y29000D01*
X28927Y29056D01*
X28841Y29091D01*
X28800Y29096D01*
D02*
G37*
G36*
X24950D02*
X24909Y29091D01*
X24823Y29056D01*
X24750Y29000D01*
X24694Y28927D01*
X24659Y28841D01*
X24654Y28800D01*
X24950D01*
Y29096D01*
D02*
G37*
G36*
X25050D02*
Y28800D01*
X25346D01*
X25341Y28841D01*
X25306Y28927D01*
X25250Y29000D01*
X25177Y29056D01*
X25091Y29091D01*
X25050Y29096D01*
D02*
G37*
G36*
X27450Y37450D02*
X27154D01*
X27159Y37409D01*
X27194Y37323D01*
X27250Y37250D01*
X27323Y37194D01*
X27409Y37159D01*
X27450Y37154D01*
Y37450D01*
D02*
G37*
G36*
X18800Y27846D02*
Y27550D01*
X19096D01*
X19091Y27591D01*
X19056Y27677D01*
X19000Y27750D01*
X18927Y27806D01*
X18841Y27841D01*
X18800Y27846D01*
D02*
G37*
G36*
X33650Y31155D02*
X32850D01*
Y30555D01*
X33650D01*
Y31155D01*
D02*
G37*
G36*
X2846Y37450D02*
X2550D01*
Y37154D01*
X2591Y37159D01*
X2677Y37194D01*
X2750Y37250D01*
X2806Y37323D01*
X2841Y37409D01*
X2846Y37450D01*
D02*
G37*
G36*
X2450D02*
X2154D01*
X2159Y37409D01*
X2194Y37323D01*
X2250Y37250D01*
X2323Y37194D01*
X2409Y37159D01*
X2450Y37154D01*
Y37450D01*
D02*
G37*
G36*
X17650Y32050D02*
X17354D01*
X17359Y32009D01*
X17394Y31923D01*
X17450Y31850D01*
X17523Y31794D01*
X17609Y31759D01*
X17650Y31754D01*
Y32050D01*
D02*
G37*
G36*
X7450Y37846D02*
X7409Y37841D01*
X7323Y37806D01*
X7250Y37750D01*
X7194Y37677D01*
X7159Y37591D01*
X7154Y37550D01*
X7450D01*
Y37846D01*
D02*
G37*
G36*
X32750Y31855D02*
X31950D01*
Y31255D01*
X32750D01*
Y31855D01*
D02*
G37*
G36*
X33650D02*
X32850D01*
Y31255D01*
X33650D01*
Y31855D01*
D02*
G37*
G36*
X23096Y30365D02*
X22800D01*
Y30069D01*
X22841Y30074D01*
X22927Y30109D01*
X23000Y30165D01*
X23056Y30238D01*
X23091Y30324D01*
X23096Y30365D01*
D02*
G37*
G36*
X12846Y37450D02*
X12550D01*
Y37154D01*
X12591Y37159D01*
X12677Y37194D01*
X12750Y37250D01*
X12806Y37323D01*
X12841Y37409D01*
X12846Y37450D01*
D02*
G37*
G36*
X17846D02*
X17550D01*
Y37154D01*
X17591Y37159D01*
X17677Y37194D01*
X17750Y37250D01*
X17806Y37323D01*
X17841Y37409D01*
X17846Y37450D01*
D02*
G37*
G36*
X17450D02*
X17154D01*
X17159Y37409D01*
X17194Y37323D01*
X17250Y37250D01*
X17323Y37194D01*
X17409Y37159D01*
X17450Y37154D01*
Y37450D01*
D02*
G37*
G36*
X7846D02*
X7550D01*
Y37154D01*
X7591Y37159D01*
X7677Y37194D01*
X7750Y37250D01*
X7806Y37323D01*
X7841Y37409D01*
X7846Y37450D01*
D02*
G37*
G36*
X7450D02*
X7154D01*
X7159Y37409D01*
X7194Y37323D01*
X7250Y37250D01*
X7323Y37194D01*
X7409Y37159D01*
X7450Y37154D01*
Y37450D01*
D02*
G37*
G36*
X23087Y31000D02*
X22513D01*
Y30753D01*
X22513D01*
X22513Y30674D01*
X22500Y30665D01*
X22444Y30591D01*
X22409Y30506D01*
X22404Y30465D01*
X23096D01*
X23091Y30506D01*
X23056Y30591D01*
X23000Y30663D01*
X23004Y30670D01*
X23068Y30753D01*
X23087D01*
Y31000D01*
D02*
G37*
G36*
X12450Y37450D02*
X12154D01*
X12159Y37409D01*
X12194Y37323D01*
X12250Y37250D01*
X12323Y37194D01*
X12409Y37159D01*
X12450Y37154D01*
Y37450D01*
D02*
G37*
%LPD*%
G36*
X22650Y15920D02*
X23770Y14800D01*
Y13720D01*
X22810D01*
X21850Y14680D01*
Y16850D01*
X22650D01*
Y15920D01*
D02*
G37*
G36*
X26071Y39905D02*
Y35195D01*
X25605Y34729D01*
X25189D01*
X25160Y34825D01*
X25171Y34832D01*
X25224Y34911D01*
X25242Y35004D01*
Y35135D01*
X25337Y35168D01*
X25350Y35150D01*
X25423Y35094D01*
X25509Y35059D01*
X25550Y35054D01*
Y35400D01*
Y35746D01*
X25509Y35741D01*
X25423Y35706D01*
X25350Y35650D01*
X25337Y35632D01*
X25242Y35665D01*
Y35752D01*
X25224Y35845D01*
X25171Y35923D01*
X25230Y35975D01*
X25230D01*
Y37150D01*
X20270D01*
Y35975D01*
X20270D01*
X20329Y35923D01*
X20276Y35845D01*
X20258Y35752D01*
Y35665D01*
X20163Y35632D01*
X20150Y35650D01*
X20077Y35706D01*
X19991Y35741D01*
X19950Y35746D01*
Y35400D01*
Y35054D01*
X19991Y35059D01*
X20077Y35094D01*
X20150Y35150D01*
X20163Y35168D01*
X20258Y35135D01*
Y35004D01*
X20276Y34911D01*
X20329Y34832D01*
X20407Y34780D01*
X20450Y34771D01*
Y35378D01*
X20550D01*
Y34771D01*
X20593Y34780D01*
X20630Y34805D01*
X20718Y34758D01*
Y33982D01*
X20577Y33842D01*
X20485Y33880D01*
Y34100D01*
X20179D01*
Y33686D01*
X20291D01*
X20329Y33593D01*
X20178Y33442D01*
X20156Y33409D01*
X20148Y33370D01*
Y33207D01*
X20056Y33169D01*
X19029Y34195D01*
Y34595D01*
X19127Y34614D01*
X19144Y34573D01*
X19200Y34500D01*
X19273Y34444D01*
X19359Y34409D01*
X19400Y34404D01*
Y34750D01*
Y35096D01*
X19359Y35091D01*
X19273Y35056D01*
X19200Y35000D01*
X19144Y34927D01*
X19127Y34886D01*
X19029Y34905D01*
Y38705D01*
X19479Y39155D01*
X19562Y39099D01*
X19559Y39091D01*
X19554Y39050D01*
X19900D01*
Y39000D01*
X19950D01*
Y38654D01*
X19991Y38659D01*
X20077Y38694D01*
X20150Y38750D01*
X20163Y38768D01*
X20258Y38735D01*
Y38626D01*
X20276Y38533D01*
X20329Y38455D01*
X20270Y38425D01*
X20281Y38430D01*
X20270Y38425D01*
X20270D01*
Y37250D01*
X25230D01*
Y38425D01*
X25230D01*
X25219Y38431D01*
X25230Y38425D01*
X25171Y38455D01*
D01*
X25224Y38533D01*
X25242Y38626D01*
Y38735D01*
X25337Y38768D01*
X25350Y38750D01*
X25423Y38694D01*
X25509Y38659D01*
X25550Y38654D01*
Y39000D01*
Y39346D01*
X25509Y39341D01*
X25423Y39306D01*
X25350Y39250D01*
X25337Y39232D01*
X25242Y39265D01*
Y39374D01*
X25224Y39467D01*
X25171Y39545D01*
X25093Y39598D01*
X25050Y39607D01*
Y39000D01*
X24950D01*
Y39607D01*
X24907Y39598D01*
X24829Y39545D01*
X24800Y39503D01*
X24700D01*
X24671Y39545D01*
X24593Y39598D01*
X24500Y39616D01*
X24407Y39598D01*
X24329Y39545D01*
X24325Y39540D01*
X24229Y39569D01*
Y39763D01*
X24247D01*
D01*
X24247D01*
X24282D01*
X24282D01*
X24300D01*
X24318D01*
X24353Y39763D01*
X24353Y39763D01*
Y39763D01*
X24565D01*
Y40050D01*
Y40337D01*
X24353D01*
Y40337D01*
X24353Y40337D01*
X24318Y40337D01*
X24300D01*
X24282D01*
X24247Y40337D01*
X24247Y40337D01*
Y40337D01*
X24087D01*
Y40388D01*
X24087D01*
X24087Y40456D01*
X25520D01*
X26071Y39905D01*
D02*
G37*
G36*
X22650Y34970D02*
X23770Y33850D01*
Y32770D01*
X22810D01*
X21850Y33730D01*
Y35900D01*
X22650D01*
Y34970D01*
D02*
G37*
G36*
X24050Y34771D02*
X24093Y34780D01*
X24171Y34832D01*
X24175Y34838D01*
X24271Y34809D01*
Y34800D01*
X24288Y34712D01*
X24338Y34638D01*
X24338Y34638D01*
X24338Y34638D01*
X24629Y34346D01*
X24605Y34289D01*
X24582Y34254D01*
X23510D01*
X23083Y34681D01*
X23093Y34780D01*
X23171Y34832D01*
X23200Y34875D01*
X23300D01*
X23329Y34832D01*
X23407Y34780D01*
X23450Y34771D01*
Y35378D01*
X23550D01*
Y34771D01*
X23593Y34780D01*
X23671Y34832D01*
X23700Y34875D01*
X23800D01*
X23829Y34832D01*
X23907Y34780D01*
X23950Y34771D01*
Y35378D01*
X24050D01*
Y34771D01*
D02*
G37*
G36*
X21640Y13510D02*
X20250D01*
Y14320D01*
X20820Y14890D01*
Y16850D01*
X21640D01*
Y13510D01*
D02*
G37*
G36*
Y32560D02*
X20250D01*
Y33370D01*
X20820Y33940D01*
Y35900D01*
X21640D01*
Y32560D01*
D02*
G37*
G36*
X26900Y21350D02*
X26973Y21294D01*
X27059Y21259D01*
X27150Y21247D01*
X31904D01*
X31942Y21155D01*
X26107Y15320D01*
X23395D01*
X23036Y15679D01*
X23065Y15774D01*
X23093Y15780D01*
X23171Y15833D01*
X23200Y15875D01*
X23300D01*
X23329Y15833D01*
X23407Y15780D01*
X23450Y15771D01*
Y16378D01*
X23550D01*
Y15771D01*
X23593Y15780D01*
X23671Y15833D01*
X23700Y15875D01*
X23800D01*
X23829Y15833D01*
X23907Y15780D01*
X23950Y15771D01*
Y16378D01*
X24050D01*
Y15771D01*
X24093Y15780D01*
X24171Y15833D01*
X24200Y15875D01*
X24300D01*
X24329Y15833D01*
X24407Y15780D01*
X24500Y15761D01*
X24593Y15780D01*
X24671Y15833D01*
X24700Y15875D01*
X24800D01*
X24829Y15833D01*
X24907Y15780D01*
X24950Y15771D01*
Y16378D01*
X25050D01*
Y15771D01*
X25093Y15780D01*
X25171Y15833D01*
X25224Y15911D01*
X25242Y16004D01*
Y16135D01*
X25337Y16168D01*
X25350Y16150D01*
X25423Y16094D01*
X25509Y16059D01*
X25550Y16054D01*
Y16400D01*
Y16746D01*
X25509Y16741D01*
X25423Y16706D01*
X25350Y16650D01*
X25337Y16632D01*
X25242Y16665D01*
Y16752D01*
X25224Y16845D01*
X25171Y16923D01*
X25230Y16975D01*
X25230D01*
Y18150D01*
X20270D01*
Y16975D01*
X20270D01*
X20329Y16923D01*
X20276Y16845D01*
X20258Y16752D01*
Y16665D01*
X20163Y16632D01*
X20150Y16650D01*
X20077Y16706D01*
X19991Y16741D01*
X19950Y16746D01*
Y16400D01*
Y16054D01*
X19991Y16059D01*
X20077Y16094D01*
X20150Y16150D01*
X20163Y16168D01*
X20258Y16135D01*
Y16004D01*
X20276Y15911D01*
X20329Y15833D01*
X20407Y15780D01*
X20450Y15771D01*
Y16378D01*
X20550D01*
Y15771D01*
X20593Y15780D01*
X20630Y15805D01*
X20718Y15758D01*
Y14932D01*
X20527Y14742D01*
X20435Y14780D01*
Y15100D01*
X20129D01*
Y14686D01*
X20341D01*
X20379Y14593D01*
X20178Y14392D01*
X20156Y14359D01*
X20148Y14320D01*
Y14257D01*
X20056Y14219D01*
X19129Y15145D01*
Y15392D01*
X19219Y15436D01*
X19273Y15394D01*
X19359Y15359D01*
X19400Y15354D01*
Y15700D01*
Y16046D01*
X19359Y16041D01*
X19273Y16006D01*
X19219Y15964D01*
X19129Y16008D01*
Y20305D01*
X19595Y20771D01*
X21005D01*
X21077Y20699D01*
X21030Y20611D01*
X21000Y20616D01*
X20907Y20598D01*
X20829Y20545D01*
X20800Y20503D01*
X20700D01*
X20671Y20545D01*
X20593Y20598D01*
X20550Y20607D01*
Y20000D01*
X20450D01*
Y20607D01*
X20407Y20598D01*
X20329Y20545D01*
X20276Y20467D01*
X20258Y20374D01*
Y20265D01*
X20163Y20232D01*
X20150Y20250D01*
X20077Y20306D01*
X19991Y20341D01*
X19950Y20346D01*
Y20000D01*
Y19654D01*
X19991Y19659D01*
X20077Y19694D01*
X20150Y19750D01*
X20163Y19768D01*
X20258Y19735D01*
Y19626D01*
X20276Y19533D01*
X20329Y19455D01*
X20270Y19425D01*
X20281Y19430D01*
X20270Y19425D01*
X20270D01*
Y18250D01*
X25230D01*
Y19425D01*
X25230D01*
X25219Y19431D01*
X25230Y19425D01*
X25171Y19455D01*
D01*
X25224Y19533D01*
X25242Y19626D01*
Y19735D01*
X25337Y19768D01*
X25350Y19750D01*
X25423Y19694D01*
X25509Y19659D01*
X25550Y19654D01*
Y20000D01*
Y20346D01*
X25509Y20341D01*
X25423Y20306D01*
X25350Y20250D01*
X25337Y20232D01*
X25242Y20265D01*
Y20374D01*
X25224Y20467D01*
X25171Y20545D01*
X25093Y20598D01*
X25050Y20607D01*
Y20000D01*
X24950D01*
Y20607D01*
X24907Y20598D01*
X24829Y20545D01*
X24800Y20503D01*
X24700D01*
X24671Y20545D01*
X24593Y20598D01*
X24500Y20616D01*
X24407Y20598D01*
X24374Y20576D01*
X24303Y20646D01*
X24347Y20712D01*
X24357Y20763D01*
X24397D01*
Y20763D01*
X24397Y20763D01*
X24432Y20763D01*
X24450D01*
X24468D01*
X24503Y20763D01*
X24503Y20763D01*
Y20763D01*
X24715D01*
Y21050D01*
Y21337D01*
X24503D01*
Y21337D01*
X24503Y21337D01*
X24468Y21337D01*
X24450D01*
X24432D01*
X24397Y21337D01*
X24397Y21337D01*
Y21337D01*
X23838D01*
Y21337D01*
X23832D01*
X23787Y21382D01*
Y21382D01*
D01*
Y21418D01*
X23787D01*
Y21514D01*
X23806Y21538D01*
X23841Y21624D01*
X23853Y21715D01*
Y21804D01*
X24096Y22047D01*
X26204D01*
X26900Y21350D01*
D02*
G37*
%LPC*%
G36*
X25650Y16746D02*
Y16450D01*
X25946D01*
X25941Y16491D01*
X25906Y16577D01*
X25850Y16650D01*
X25777Y16706D01*
X25691Y16741D01*
X25650Y16746D01*
D02*
G37*
G36*
X25646Y39950D02*
X25350D01*
Y39654D01*
X25391Y39659D01*
X25477Y39694D01*
X25550Y39750D01*
X25606Y39823D01*
X25641Y39909D01*
X25646Y39950D01*
D02*
G37*
G36*
X25946Y38950D02*
X25650D01*
Y38654D01*
X25691Y38659D01*
X25777Y38694D01*
X25850Y38750D01*
X25906Y38823D01*
X25941Y38909D01*
X25946Y38950D01*
D02*
G37*
G36*
X25650Y39346D02*
Y39050D01*
X25946D01*
X25941Y39091D01*
X25906Y39177D01*
X25850Y39250D01*
X25777Y39306D01*
X25691Y39341D01*
X25650Y39346D01*
D02*
G37*
G36*
Y35746D02*
Y35450D01*
X25946D01*
X25941Y35491D01*
X25906Y35577D01*
X25850Y35650D01*
X25777Y35706D01*
X25691Y35741D01*
X25650Y35746D01*
D02*
G37*
G36*
X19850D02*
X19809Y35741D01*
X19723Y35706D01*
X19650Y35650D01*
X19594Y35577D01*
X19559Y35491D01*
X19554Y35450D01*
X19850D01*
Y35746D01*
D02*
G37*
G36*
X25350Y40346D02*
Y40050D01*
X25646D01*
X25641Y40091D01*
X25606Y40177D01*
X25550Y40250D01*
X25477Y40306D01*
X25391Y40341D01*
X25350Y40346D01*
D02*
G37*
G36*
X25250D02*
X25209Y40341D01*
X25123Y40306D01*
X25050Y40250D01*
X25006Y40192D01*
X24912Y40225D01*
Y40337D01*
X24665D01*
Y40050D01*
Y39763D01*
X24912D01*
Y39775D01*
X25006Y39808D01*
X25050Y39750D01*
X25123Y39694D01*
X25209Y39659D01*
X25250Y39654D01*
Y40000D01*
Y40346D01*
D02*
G37*
G36*
X20435Y15614D02*
X20129D01*
Y15200D01*
X20435D01*
Y15614D01*
D02*
G37*
G36*
X19500Y16046D02*
Y15750D01*
X19796D01*
X19791Y15791D01*
X19756Y15877D01*
X19700Y15950D01*
X19627Y16006D01*
X19541Y16041D01*
X19500Y16046D01*
D02*
G37*
G36*
X20029Y15100D02*
X19723D01*
Y14686D01*
X20029D01*
Y15100D01*
D02*
G37*
G36*
X19836Y15650D02*
X19500D01*
Y15354D01*
X19541Y15359D01*
X19627Y15394D01*
X19634Y15400D01*
X19723Y15355D01*
Y15200D01*
X20029D01*
Y15614D01*
X19868D01*
X19836Y15650D01*
D02*
G37*
G36*
X19850Y16746D02*
X19809Y16741D01*
X19723Y16706D01*
X19650Y16650D01*
X19594Y16577D01*
X19559Y16491D01*
X19554Y16450D01*
X19850D01*
Y16746D01*
D02*
G37*
G36*
Y38950D02*
X19554D01*
X19559Y38909D01*
X19594Y38823D01*
X19650Y38750D01*
X19723Y38694D01*
X19809Y38659D01*
X19850Y38654D01*
Y38950D01*
D02*
G37*
G36*
Y16350D02*
X19554D01*
X19559Y16309D01*
X19594Y16223D01*
X19650Y16150D01*
X19723Y16094D01*
X19809Y16059D01*
X19850Y16054D01*
Y16350D01*
D02*
G37*
G36*
X25946D02*
X25650D01*
Y16054D01*
X25691Y16059D01*
X25777Y16094D01*
X25850Y16150D01*
X25906Y16223D01*
X25941Y16309D01*
X25946Y16350D01*
D02*
G37*
G36*
X25650Y20346D02*
Y20050D01*
X25946D01*
X25941Y20091D01*
X25906Y20177D01*
X25850Y20250D01*
X25777Y20306D01*
X25691Y20341D01*
X25650Y20346D01*
D02*
G37*
G36*
X28700D02*
X28659Y20341D01*
X28573Y20306D01*
X28500Y20250D01*
X28444Y20177D01*
X28409Y20091D01*
X28404Y20050D01*
X28700D01*
Y20346D01*
D02*
G37*
G36*
X29096Y19950D02*
X28800D01*
Y19654D01*
X28841Y19659D01*
X28927Y19694D01*
X29000Y19750D01*
X29056Y19823D01*
X29091Y19909D01*
X29096Y19950D01*
D02*
G37*
G36*
X19850Y20346D02*
X19809Y20341D01*
X19723Y20306D01*
X19650Y20250D01*
X19594Y20177D01*
X19559Y20091D01*
X19554Y20050D01*
X19850D01*
Y20346D01*
D02*
G37*
G36*
X25450Y21446D02*
Y21150D01*
X25746D01*
X25741Y21191D01*
X25706Y21277D01*
X25650Y21350D01*
X25577Y21406D01*
X25491Y21441D01*
X25450Y21446D01*
D02*
G37*
G36*
X25350D02*
X25309Y21441D01*
X25223Y21406D01*
X25150Y21350D01*
X25141Y21337D01*
X25062Y21337D01*
Y21337D01*
X24815D01*
Y21050D01*
Y20763D01*
X25062D01*
Y20782D01*
X25145Y20846D01*
X25152Y20850D01*
X25223Y20794D01*
X25309Y20759D01*
X25350Y20754D01*
Y21100D01*
Y21446D01*
D02*
G37*
G36*
X28800Y20346D02*
Y20050D01*
X29096D01*
X29091Y20091D01*
X29056Y20177D01*
X29000Y20250D01*
X28927Y20306D01*
X28841Y20341D01*
X28800Y20346D01*
D02*
G37*
G36*
X25746Y21050D02*
X25450D01*
Y20754D01*
X25491Y20759D01*
X25577Y20794D01*
X25650Y20850D01*
X25706Y20923D01*
X25741Y21009D01*
X25746Y21050D01*
D02*
G37*
G36*
X20485Y34614D02*
X20179D01*
Y34200D01*
X20485D01*
Y34614D01*
D02*
G37*
G36*
X19796Y34700D02*
X19500D01*
Y34404D01*
X19541Y34409D01*
X19627Y34444D01*
X19684Y34488D01*
X19773Y34444D01*
Y34200D01*
X20079D01*
Y34614D01*
X19898D01*
X19840Y34638D01*
X19795Y34689D01*
X19796Y34700D01*
D02*
G37*
G36*
X19850Y35350D02*
X19554D01*
X19559Y35309D01*
X19594Y35223D01*
X19650Y35150D01*
X19649Y35149D01*
X19589Y35071D01*
X19541Y35091D01*
X19500Y35096D01*
Y34800D01*
X19796D01*
X19791Y34841D01*
X19756Y34927D01*
X19700Y35000D01*
X19700Y35000D01*
D01*
X19761Y35079D01*
X19809Y35059D01*
X19850Y35054D01*
Y35350D01*
D02*
G37*
G36*
X25946D02*
X25650D01*
Y35054D01*
X25691Y35059D01*
X25777Y35094D01*
X25850Y35150D01*
X25906Y35223D01*
X25941Y35309D01*
X25946Y35350D01*
D02*
G37*
G36*
Y19950D02*
X25650D01*
Y19654D01*
X25691Y19659D01*
X25777Y19694D01*
X25850Y19750D01*
X25906Y19823D01*
X25941Y19909D01*
X25946Y19950D01*
D02*
G37*
G36*
X28700D02*
X28404D01*
X28409Y19909D01*
X28444Y19823D01*
X28500Y19750D01*
X28573Y19694D01*
X28659Y19659D01*
X28700Y19654D01*
Y19950D01*
D02*
G37*
G36*
X20079Y34100D02*
X19773D01*
Y33686D01*
X20079D01*
Y34100D01*
D02*
G37*
G36*
X19850Y19950D02*
X19554D01*
X19559Y19909D01*
X19594Y19823D01*
X19650Y19750D01*
X19723Y19694D01*
X19809Y19659D01*
X19850Y19654D01*
Y19950D01*
D02*
G37*
%LPD*%
D10*
X22850Y21085D02*
D03*
Y21715D02*
D03*
X23500Y21085D02*
D03*
Y21715D02*
D03*
X23800Y41315D02*
D03*
Y40685D02*
D03*
X22950Y13250D02*
D03*
Y13880D02*
D03*
Y12580D02*
D03*
Y11950D02*
D03*
X22800Y32350D02*
D03*
Y32980D02*
D03*
Y31680D02*
D03*
Y31050D02*
D03*
X22150Y41335D02*
D03*
Y41965D02*
D03*
D11*
X20079Y15150D02*
D03*
X21221D02*
D03*
X20129Y34150D02*
D03*
X21271D02*
D03*
X20979Y40500D02*
D03*
X22121D02*
D03*
D12*
X24765Y21050D02*
D03*
X24135D02*
D03*
X24615Y40050D02*
D03*
X23985D02*
D03*
X17285Y22650D02*
D03*
X17915D02*
D03*
X16135Y18600D02*
D03*
X16765D02*
D03*
X24415Y44000D02*
D03*
X23785D02*
D03*
D13*
X5000Y25929D02*
D03*
Y27071D02*
D03*
X22050Y22271D02*
D03*
Y21129D02*
D03*
X23000Y41271D02*
D03*
Y40129D02*
D03*
D14*
X20991Y13600D02*
D03*
X18609D02*
D03*
X16291Y23350D02*
D03*
X13909D02*
D03*
X21041Y32600D02*
D03*
X18659D02*
D03*
D15*
X25000Y39000D02*
D03*
X24500D02*
D03*
X24000D02*
D03*
X23500D02*
D03*
X23000D02*
D03*
X22500D02*
D03*
X22000D02*
D03*
X21500D02*
D03*
X21000D02*
D03*
X20500D02*
D03*
X25000Y35378D02*
D03*
X24500D02*
D03*
X24000D02*
D03*
X23500D02*
D03*
X23000D02*
D03*
X22500D02*
D03*
X22000D02*
D03*
X21500D02*
D03*
X21000D02*
D03*
X20500D02*
D03*
X25000Y20000D02*
D03*
X24500D02*
D03*
X24000D02*
D03*
X23500D02*
D03*
X23000D02*
D03*
X22500D02*
D03*
X22000D02*
D03*
X21500D02*
D03*
X21000D02*
D03*
X20500D02*
D03*
X25000Y16378D02*
D03*
X24500D02*
D03*
X24000D02*
D03*
X23500D02*
D03*
X23000D02*
D03*
X22500D02*
D03*
X22000D02*
D03*
X21500D02*
D03*
X21000D02*
D03*
X20500D02*
D03*
D16*
X22750Y37200D02*
D03*
Y18200D02*
D03*
D17*
X9000Y29991D02*
D03*
Y27609D02*
D03*
D18*
X33205Y26000D02*
D03*
X30395D02*
D03*
X33205Y23200D02*
D03*
X30395D02*
D03*
D19*
X32800Y17995D02*
D03*
Y20805D02*
D03*
Y31205D02*
D03*
Y28395D02*
D03*
D20*
X15650Y19635D02*
D03*
X16150D02*
D03*
X16650D02*
D03*
X17150D02*
D03*
X15650Y21565D02*
D03*
X16150D02*
D03*
X16650D02*
D03*
X17150D02*
D03*
D21*
X22121Y40579D02*
Y41306D01*
X16135Y18600D02*
X16150Y18615D01*
Y19635D01*
X21500Y39000D02*
Y39500D01*
X21200Y39800D02*
X21500Y39500D01*
X19800Y39800D02*
X21200D01*
X18800Y38800D02*
X19800Y39800D01*
X24500Y34800D02*
Y35378D01*
Y34800D02*
X24800Y34500D01*
X25700D01*
X26300Y35100D01*
Y40000D01*
X25615Y40685D02*
X26300Y40000D01*
X23800Y40685D02*
X25615D01*
X22306Y41965D02*
X23000Y41271D01*
X22150Y41965D02*
X22306D01*
X22121Y41306D02*
X22150Y41335D01*
X23556Y40685D02*
X23800D01*
X23000Y40129D02*
X23556Y40685D01*
X23000Y39000D02*
Y40129D01*
X23985Y40050D02*
X24000Y40035D01*
Y39000D02*
Y40035D01*
X22050Y22271D02*
X22100Y22321D01*
X22850Y21085D02*
X23500D01*
X22850D02*
X23000Y20935D01*
Y20000D02*
Y20935D01*
X23500Y17450D02*
X24000Y16950D01*
X23100Y17850D02*
X23500Y17450D01*
X22750Y18200D02*
X23100Y17850D01*
X24000Y16378D02*
Y16950D01*
X23500Y16378D02*
Y17450D01*
Y36450D02*
X24000Y35950D01*
X23100Y36850D02*
X23500Y36450D01*
X22750Y37200D02*
X23100Y36850D01*
X24000Y35378D02*
Y35950D01*
X23500Y35378D02*
Y36450D01*
X22950Y11265D02*
Y11950D01*
X32800Y17000D02*
X33600D01*
X32000D02*
X32800D01*
X25350Y21050D02*
X25400Y21100D01*
X24765Y21050D02*
X25350D01*
X9000Y26700D02*
X9500D01*
X8500D02*
X9000D01*
Y27609D01*
X5000Y25200D02*
Y25929D01*
X22800Y30465D02*
Y31050D01*
X22750Y30415D02*
X22800Y30465D01*
X17700Y32500D02*
Y33000D01*
Y32100D02*
Y32500D01*
X18559D02*
X18659Y32600D01*
X17700Y32500D02*
X18559D01*
X25250Y40050D02*
X25300Y40000D01*
X24615Y40050D02*
X25250D01*
X20300Y40500D02*
X20979D01*
X17600Y13600D02*
Y14100D01*
Y13100D02*
Y13600D01*
X18609D01*
X17350Y18600D02*
X17400Y18550D01*
X16765Y18600D02*
X17350D01*
X17150Y19635D02*
X17785D01*
X17915Y22650D02*
X18600D01*
X13000Y23350D02*
Y23850D01*
Y22850D02*
Y23350D01*
X13909D01*
X25000Y20000D02*
X25600D01*
X25000Y16378D02*
X25022Y16400D01*
X25600D01*
X20478D02*
X20500Y16378D01*
X19900Y16400D02*
X20478D01*
X19900Y20000D02*
X20500D01*
X25000Y39000D02*
X25600D01*
X25022Y35400D02*
X25600D01*
X19900D02*
X20478D01*
X19900Y39000D02*
X20500D01*
X16135Y18107D02*
Y18600D01*
X25900Y27450D02*
X32800D01*
X23750Y41365D02*
X23800Y41315D01*
X20000Y46250D02*
X23750D01*
Y41365D02*
Y46250D01*
X32000Y32400D02*
X32800D01*
X33700D01*
X22975Y24725D02*
X23300Y25050D01*
X23350Y25100D01*
X21100Y21000D02*
X21500Y20600D01*
Y20000D02*
Y20600D01*
X18900Y20400D02*
X19500Y21000D01*
X21100D01*
X22500Y20000D02*
Y20600D01*
X21971Y21129D02*
X22500Y20600D01*
X21971Y21129D02*
Y21129D01*
X24000Y20000D02*
Y20665D01*
X24135Y20800D01*
Y21050D01*
X22500Y39000D02*
Y39450D01*
X22121Y39829D02*
X22500Y39450D01*
X22121Y39829D02*
Y40500D01*
X16650Y21565D02*
Y22144D01*
X16291Y22504D02*
X16650Y22144D01*
X17150Y21565D02*
Y22165D01*
X17285Y22300D01*
Y22650D01*
X18900Y15050D02*
Y20400D01*
Y15050D02*
X20350Y13600D01*
X20991D01*
X20000Y15150D02*
X20079D01*
X19450Y15700D02*
X20000Y15150D01*
X19529Y34750D02*
X20129Y34150D01*
X19450Y34750D02*
X19529D01*
X18800Y34100D02*
Y38800D01*
Y34100D02*
X20300Y32600D01*
X21041D01*
X21750Y23000D02*
X22100D01*
Y22321D02*
Y23000D01*
X22850Y22100D02*
X22975Y22225D01*
Y24725D01*
X22850Y21715D02*
Y22100D01*
D22*
X22800Y31680D02*
Y32350D01*
X23000Y33905D02*
Y34028D01*
X22950Y12580D02*
Y13250D01*
X18150Y24950D02*
X21971Y21129D01*
X16300Y24950D02*
X18150D01*
X16135Y11685D02*
Y18107D01*
X16050Y11600D02*
X16135Y11685D01*
X21100Y41600D02*
X22121Y40579D01*
X14500Y39750D02*
X16300D01*
X18150Y41600D02*
X21100D01*
X16300Y31700D02*
Y39750D01*
X18150Y41600D01*
X16300Y24950D02*
Y28350D01*
X23500Y21715D02*
Y21950D01*
X23950Y22400D01*
X26350D01*
X27150Y21600D01*
X32800D01*
X21500D02*
X21971Y21129D01*
X16291Y22504D02*
X16300Y22513D01*
Y24950D01*
D23*
X1250Y30000D02*
X5000D01*
X36600Y19300D02*
Y23800D01*
Y25800D02*
Y30300D01*
X5000Y27071D02*
Y30000D01*
X23000Y33905D02*
X23505Y33400D01*
X32800Y31205D02*
Y32400D01*
Y17000D02*
Y17995D01*
X5000Y12500D02*
Y15000D01*
X7500D01*
X5000D02*
Y17600D01*
X2600Y15000D02*
X5000D01*
D24*
X20800Y30000D02*
X26000Y24800D01*
X5000Y30000D02*
X11250D01*
X20800D01*
X30395Y23200D02*
Y24800D01*
Y26000D01*
X26000Y24800D02*
X30395D01*
D25*
X20800Y30000D02*
X21041Y30241D01*
Y32600D01*
X33405Y25800D02*
X36600D01*
X32800Y26405D02*
X33205Y26000D01*
X33405Y25800D01*
X33805Y23800D02*
X36600D01*
X33205Y23200D02*
X33805Y23800D01*
X32800Y22795D02*
X33205Y23200D01*
X26461Y14466D02*
X32800Y20805D01*
Y21600D01*
Y22795D01*
X23134Y14466D02*
X26461D01*
X23505Y33400D02*
X27795D01*
X32800Y28395D01*
X11250Y14000D02*
Y30000D01*
X20991Y13091D02*
Y13600D01*
X11250Y14000D02*
X13650Y11600D01*
X19500D02*
X20991Y13091D01*
X13650Y11600D02*
X16050D01*
X19500D01*
X32800Y26405D02*
Y27450D01*
Y28395D01*
D26*
X36600Y30300D02*
D03*
Y19300D02*
D03*
X10000Y39750D02*
D03*
X32600Y8000D02*
D03*
X32500Y39750D02*
D03*
X10000Y7900D02*
D03*
X14500Y39750D02*
D03*
X1250Y15000D02*
D03*
Y30000D02*
D03*
X20000Y46250D02*
D03*
X28000D02*
D03*
D27*
X5000Y15000D02*
D03*
Y30000D02*
D03*
D28*
X36600Y25800D02*
D03*
D29*
Y23800D02*
D03*
D30*
X22750Y45250D02*
D03*
X24750D02*
D03*
Y47250D02*
D03*
X22750D02*
D03*
D31*
X23750Y46250D02*
D03*
D32*
X25400Y21100D02*
D03*
X20300Y40500D02*
D03*
X25600Y16400D02*
D03*
Y20000D02*
D03*
X19900D02*
D03*
X22950Y11265D02*
D03*
X17600Y13100D02*
D03*
Y14100D02*
D03*
X17400Y18550D02*
D03*
X17800Y19650D02*
D03*
X19900Y16400D02*
D03*
X18600Y22650D02*
D03*
X22750Y30415D02*
D03*
X25600Y35400D02*
D03*
X25300Y40000D02*
D03*
X25600Y39000D02*
D03*
X17700Y32100D02*
D03*
Y33000D02*
D03*
X19900Y35400D02*
D03*
Y39000D02*
D03*
X9500Y26700D02*
D03*
X8500D02*
D03*
X13000Y22850D02*
D03*
Y23850D02*
D03*
X5000Y25200D02*
D03*
X37500Y42500D02*
D03*
Y37500D02*
D03*
X35900Y32300D02*
D03*
X36100Y17300D02*
D03*
X37500Y12500D02*
D03*
Y7500D02*
D03*
Y2500D02*
D03*
X32500Y42500D02*
D03*
X30900Y32300D02*
D03*
Y17300D02*
D03*
X32500Y12500D02*
D03*
Y2500D02*
D03*
X27500Y42500D02*
D03*
Y37500D02*
D03*
Y22500D02*
D03*
Y12500D02*
D03*
Y7500D02*
D03*
Y2500D02*
D03*
X22100Y43550D02*
D03*
X22500Y7500D02*
D03*
Y2500D02*
D03*
X17500Y42500D02*
D03*
Y37500D02*
D03*
Y7500D02*
D03*
Y2500D02*
D03*
X12500Y42500D02*
D03*
Y37500D02*
D03*
Y7500D02*
D03*
Y2500D02*
D03*
X7500Y42500D02*
D03*
Y37500D02*
D03*
Y32500D02*
D03*
Y27500D02*
D03*
Y22500D02*
D03*
Y17500D02*
D03*
Y12500D02*
D03*
Y7500D02*
D03*
Y2500D02*
D03*
X2500D02*
D03*
Y12500D02*
D03*
X2400Y7400D02*
D03*
X2500Y17500D02*
D03*
Y22500D02*
D03*
Y27500D02*
D03*
Y32500D02*
D03*
Y37500D02*
D03*
Y42500D02*
D03*
X37500Y47500D02*
D03*
X32500D02*
D03*
X17500D02*
D03*
X12500D02*
D03*
X7500D02*
D03*
X2500D02*
D03*
X18750Y27500D02*
D03*
X13750D02*
D03*
Y17500D02*
D03*
X25000Y28750D02*
D03*
X28750D02*
D03*
X12500Y32500D02*
D03*
X25050Y44000D02*
D03*
X25900Y27450D02*
D03*
X23300Y25050D02*
D03*
X16300Y31700D02*
D03*
Y28350D02*
D03*
X19450Y15700D02*
D03*
Y34750D02*
D03*
X22400Y23000D02*
D03*
X21750D02*
D03*
X28750Y20000D02*
D03*
D33*
X24750Y36500D02*
D03*
Y37200D02*
D03*
Y37950D02*
D03*
X20750Y36500D02*
D03*
Y37200D02*
D03*
Y37950D02*
D03*
X24750Y17500D02*
D03*
Y18200D02*
D03*
Y18950D02*
D03*
X20750Y17500D02*
D03*
Y18200D02*
D03*
Y18950D02*
D03*
D34*
X22100Y36850D02*
D03*
Y37200D02*
D03*
Y37550D02*
D03*
X23400Y36850D02*
D03*
Y37200D02*
D03*
Y37550D02*
D03*
X23100Y36850D02*
D03*
X22750D02*
D03*
X22400D02*
D03*
Y37200D02*
D03*
Y37550D02*
D03*
X22750D02*
D03*
X23100D02*
D03*
Y37200D02*
D03*
X22750D02*
D03*
X22100Y17850D02*
D03*
Y18200D02*
D03*
Y18550D02*
D03*
X23400Y17850D02*
D03*
Y18200D02*
D03*
Y18550D02*
D03*
X23100Y17850D02*
D03*
X22750D02*
D03*
X22400D02*
D03*
Y18200D02*
D03*
Y18550D02*
D03*
X22750D02*
D03*
X23100D02*
D03*
Y18200D02*
D03*
X22750D02*
D03*
D35*
X32800Y17000D02*
D03*
X33600D02*
D03*
X32000D02*
D03*
X33700Y32400D02*
D03*
X32000D02*
D03*
X32800D02*
D03*
M02*
