%FSLAX24Y24*%
%MOIN*%
G70*
G01*
G75*
G04 Layer_Physical_Order=2*
G04 Layer_Color=16711680*
%ADD10R,0.0374X0.0394*%
%ADD11R,0.0512X0.0728*%
%ADD12R,0.0394X0.0374*%
%ADD13R,0.0728X0.0512*%
%ADD14R,0.1004X0.0965*%
%ADD15O,0.0276X0.1024*%
%ADD16R,0.4760X0.2250*%
%ADD17R,0.0965X0.1004*%
%ADD18R,0.1100X0.1500*%
%ADD19R,0.1500X0.1100*%
%ADD20O,0.0276X0.0984*%
%ADD21C,0.0250*%
%ADD22C,0.0500*%
%ADD23C,0.1000*%
%ADD24C,0.2000*%
%ADD25C,0.1500*%
%ADD26C,0.0800*%
%ADD27C,0.3937*%
%ADD28C,0.0748*%
%ADD29R,0.0750X0.0750*%
%ADD30C,0.1000*%
%ADD31C,0.0950*%
%ADD32C,0.0500*%
%ADD33C,0.0400*%
%ADD34C,0.0250*%
%ADD35C,0.0580*%
G36*
X39822Y178D02*
X178D01*
Y49822D01*
X39822D01*
Y178D01*
D02*
G37*
%LPC*%
G36*
X17350Y18500D02*
X17054D01*
X17059Y18459D01*
X17094Y18373D01*
X17150Y18300D01*
X17223Y18244D01*
X17309Y18209D01*
X17350Y18204D01*
Y18500D01*
D02*
G37*
G36*
X25046Y18150D02*
X24800D01*
Y17904D01*
X24828Y17908D01*
X24901Y17938D01*
X24964Y17986D01*
X25012Y18049D01*
X25042Y18122D01*
X25046Y18150D01*
D02*
G37*
G36*
X24700D02*
X24454D01*
X24458Y18122D01*
X24488Y18049D01*
X24536Y17986D01*
X24599Y17938D01*
X24672Y17908D01*
X24700Y17904D01*
Y18150D01*
D02*
G37*
G36*
X17746Y18500D02*
X17450D01*
Y18204D01*
X17491Y18209D01*
X17577Y18244D01*
X17650Y18300D01*
X17706Y18373D01*
X17741Y18459D01*
X17746Y18500D01*
D02*
G37*
G36*
X24700Y18496D02*
X24672Y18492D01*
X24599Y18462D01*
X24536Y18414D01*
X24488Y18351D01*
X24458Y18278D01*
X24454Y18250D01*
X24700D01*
Y18496D01*
D02*
G37*
G36*
X20800D02*
Y18250D01*
X21046D01*
X21042Y18278D01*
X21012Y18351D01*
X20964Y18414D01*
X20901Y18462D01*
X20828Y18492D01*
X20800Y18496D01*
D02*
G37*
G36*
X20700D02*
X20672Y18492D01*
X20599Y18462D01*
X20536Y18414D01*
X20488Y18351D01*
X20458Y18278D01*
X20454Y18250D01*
X20700D01*
Y18496D01*
D02*
G37*
G36*
X21046Y18150D02*
X20800D01*
Y17904D01*
X20828Y17908D01*
X20901Y17938D01*
X20964Y17986D01*
X21012Y18049D01*
X21042Y18122D01*
X21046Y18150D01*
D02*
G37*
G36*
X22050Y17800D02*
X21881D01*
X21888Y17762D01*
X21938Y17688D01*
X22012Y17638D01*
X22050Y17631D01*
Y17800D01*
D02*
G37*
G36*
X24800Y17796D02*
Y17550D01*
X25046D01*
X25042Y17578D01*
X25012Y17651D01*
X24964Y17714D01*
X24901Y17762D01*
X24828Y17792D01*
X24800Y17796D01*
D02*
G37*
G36*
X24700D02*
X24672Y17792D01*
X24599Y17762D01*
X24536Y17714D01*
X24488Y17651D01*
X24458Y17578D01*
X24454Y17550D01*
X24700D01*
Y17796D01*
D02*
G37*
G36*
X23619Y17800D02*
X23450D01*
Y17631D01*
X23488Y17638D01*
X23562Y17688D01*
X23612Y17762D01*
X23619Y17800D01*
D02*
G37*
G36*
X20700Y18150D02*
X20454D01*
X20458Y18122D01*
X20488Y18049D01*
X20536Y17986D01*
X20599Y17938D01*
X20672Y17908D01*
X20700Y17904D01*
Y18150D01*
D02*
G37*
G36*
X24770Y17854D02*
X24730D01*
Y17846D01*
X24770D01*
Y17854D01*
D02*
G37*
G36*
X20770D02*
X20730D01*
Y17846D01*
X20770D01*
Y17854D01*
D02*
G37*
G36*
X36600Y19804D02*
X36469Y19787D01*
X36348Y19737D01*
X36243Y19657D01*
X36163Y19552D01*
X36113Y19431D01*
X36096Y19300D01*
X36113Y19169D01*
X36163Y19048D01*
X36243Y18943D01*
X36348Y18863D01*
X36469Y18813D01*
X36600Y18796D01*
X36731Y18813D01*
X36852Y18863D01*
X36957Y18943D01*
X37037Y19048D01*
X37087Y19169D01*
X37104Y19300D01*
X37087Y19431D01*
X37037Y19552D01*
X36957Y19657D01*
X36852Y19737D01*
X36731Y19787D01*
X36600Y19804D01*
D02*
G37*
G36*
X23350Y18769D02*
X23312Y18762D01*
X23250Y18720D01*
X23188Y18762D01*
X23150Y18769D01*
Y18550D01*
X23050D01*
Y18769D01*
X23012Y18762D01*
X22938Y18712D01*
X22912D01*
X22838Y18762D01*
X22800Y18769D01*
Y18550D01*
X22700D01*
Y18769D01*
X22662Y18762D01*
X22588Y18712D01*
X22562D01*
X22488Y18762D01*
X22450Y18769D01*
Y18550D01*
X22350D01*
Y18769D01*
X22312Y18762D01*
X22250Y18720D01*
X22188Y18762D01*
X22150Y18769D01*
Y18550D01*
X22100D01*
Y18500D01*
X21881D01*
X21888Y18462D01*
X21938Y18388D01*
Y18362D01*
X21888Y18288D01*
X21881Y18250D01*
X22100D01*
Y18150D01*
X21881D01*
X21888Y18112D01*
X21938Y18038D01*
Y18012D01*
X21888Y17938D01*
X21881Y17900D01*
X22100D01*
Y17850D01*
X22150D01*
Y17631D01*
X22188Y17638D01*
X22250Y17680D01*
X22312Y17638D01*
X22350Y17631D01*
Y17850D01*
X22450D01*
Y17631D01*
X22488Y17638D01*
X22562Y17688D01*
X22588D01*
X22662Y17638D01*
X22700Y17631D01*
Y17850D01*
X22800D01*
Y17631D01*
X22838Y17638D01*
X22912Y17688D01*
X22938D01*
X23012Y17638D01*
X23050Y17631D01*
Y17850D01*
X23150D01*
Y17631D01*
X23188Y17638D01*
X23250Y17680D01*
X23312Y17638D01*
X23350Y17631D01*
Y17850D01*
X23400D01*
Y17900D01*
X23619D01*
X23612Y17938D01*
X23562Y18012D01*
Y18038D01*
X23612Y18112D01*
X23619Y18150D01*
X23400D01*
Y18250D01*
X23619D01*
X23612Y18288D01*
X23562Y18362D01*
Y18388D01*
X23612Y18462D01*
X23619Y18500D01*
X23400D01*
Y18550D01*
X23350D01*
Y18769D01*
D02*
G37*
G36*
X25046Y18900D02*
X24800D01*
Y18654D01*
X24828Y18658D01*
X24901Y18688D01*
X24964Y18736D01*
X25012Y18799D01*
X25042Y18872D01*
X25046Y18900D01*
D02*
G37*
G36*
X20700Y19246D02*
X20672Y19242D01*
X20599Y19212D01*
X20536Y19164D01*
X20488Y19101D01*
X20458Y19028D01*
X20454Y19000D01*
X20700D01*
Y19246D01*
D02*
G37*
G36*
X24800D02*
Y19000D01*
X25046D01*
X25042Y19028D01*
X25012Y19101D01*
X24964Y19164D01*
X24901Y19212D01*
X24828Y19242D01*
X24800Y19246D01*
D02*
G37*
G36*
X24700D02*
X24672Y19242D01*
X24599Y19212D01*
X24536Y19164D01*
X24488Y19101D01*
X24458Y19028D01*
X24454Y19000D01*
X24700D01*
Y19246D01*
D02*
G37*
G36*
X20800D02*
Y19000D01*
X21046D01*
X21042Y19028D01*
X21012Y19101D01*
X20964Y19164D01*
X20901Y19212D01*
X20828Y19242D01*
X20800Y19246D01*
D02*
G37*
G36*
X24700Y18900D02*
X24454D01*
X24458Y18872D01*
X24488Y18799D01*
X24536Y18736D01*
X24599Y18688D01*
X24672Y18658D01*
X24700Y18654D01*
Y18900D01*
D02*
G37*
G36*
X17450Y18896D02*
Y18600D01*
X17746D01*
X17741Y18641D01*
X17706Y18727D01*
X17650Y18800D01*
X17577Y18856D01*
X17491Y18891D01*
X17450Y18896D01*
D02*
G37*
G36*
X17350D02*
X17309Y18891D01*
X17223Y18856D01*
X17150Y18800D01*
X17094Y18727D01*
X17059Y18641D01*
X17054Y18600D01*
X17350D01*
Y18896D01*
D02*
G37*
G36*
X24800Y18496D02*
Y18250D01*
X25046D01*
X25042Y18278D01*
X25012Y18351D01*
X24964Y18414D01*
X24901Y18462D01*
X24828Y18492D01*
X24800Y18496D01*
D02*
G37*
G36*
X22050Y18769D02*
X22012Y18762D01*
X21938Y18712D01*
X21888Y18638D01*
X21881Y18600D01*
X22050D01*
Y18769D01*
D02*
G37*
G36*
X21046Y18900D02*
X20800D01*
Y18654D01*
X20828Y18658D01*
X20901Y18688D01*
X20964Y18736D01*
X21012Y18799D01*
X21042Y18872D01*
X21046Y18900D01*
D02*
G37*
G36*
X20700D02*
X20454D01*
X20458Y18872D01*
X20488Y18799D01*
X20536Y18736D01*
X20599Y18688D01*
X20672Y18658D01*
X20700Y18654D01*
Y18900D01*
D02*
G37*
G36*
X23450Y18769D02*
Y18600D01*
X23619D01*
X23612Y18638D01*
X23562Y18712D01*
X23488Y18762D01*
X23450Y18769D01*
D02*
G37*
G36*
X13700Y17450D02*
X13404D01*
X13409Y17409D01*
X13444Y17323D01*
X13500Y17250D01*
X13573Y17194D01*
X13659Y17159D01*
X13700Y17154D01*
Y17450D01*
D02*
G37*
G36*
X7846D02*
X7550D01*
Y17154D01*
X7591Y17159D01*
X7677Y17194D01*
X7750Y17250D01*
X7806Y17323D01*
X7841Y17409D01*
X7846Y17450D01*
D02*
G37*
G36*
X7450D02*
X7154D01*
X7159Y17409D01*
X7194Y17323D01*
X7250Y17250D01*
X7323Y17194D01*
X7409Y17159D01*
X7450Y17154D01*
Y17450D01*
D02*
G37*
G36*
X14096D02*
X13800D01*
Y17154D01*
X13841Y17159D01*
X13927Y17194D01*
X14000Y17250D01*
X14056Y17323D01*
X14091Y17409D01*
X14096Y17450D01*
D02*
G37*
G36*
X20700D02*
X20454D01*
X20458Y17422D01*
X20488Y17349D01*
X20536Y17286D01*
X20599Y17238D01*
X20672Y17208D01*
X20700Y17204D01*
Y17450D01*
D02*
G37*
G36*
X33550Y17387D02*
X33498Y17380D01*
X33403Y17341D01*
X33322Y17278D01*
X33259Y17197D01*
X33250Y17174D01*
X33150D01*
X33141Y17197D01*
X33078Y17278D01*
X32997Y17341D01*
X32902Y17380D01*
X32850Y17387D01*
Y17000D01*
Y16613D01*
X32902Y16620D01*
X32997Y16659D01*
X33078Y16722D01*
X33141Y16803D01*
X33150Y16826D01*
X33250D01*
X33259Y16803D01*
X33322Y16722D01*
X33403Y16659D01*
X33498Y16620D01*
X33550Y16613D01*
Y17000D01*
Y17387D01*
D02*
G37*
G36*
X32750D02*
X32698Y17380D01*
X32603Y17341D01*
X32522Y17278D01*
X32459Y17197D01*
X32450Y17174D01*
X32350D01*
X32341Y17197D01*
X32278Y17278D01*
X32197Y17341D01*
X32102Y17380D01*
X32050Y17387D01*
Y17000D01*
Y16613D01*
X32102Y16620D01*
X32197Y16659D01*
X32278Y16722D01*
X32341Y16803D01*
X32350Y16826D01*
X32450D01*
X32459Y16803D01*
X32522Y16722D01*
X32603Y16659D01*
X32698Y16620D01*
X32750Y16613D01*
Y17000D01*
Y17387D01*
D02*
G37*
G36*
X2846Y17450D02*
X2550D01*
Y17154D01*
X2591Y17159D01*
X2677Y17194D01*
X2750Y17250D01*
X2806Y17323D01*
X2841Y17409D01*
X2846Y17450D01*
D02*
G37*
G36*
X36050Y17250D02*
X35754D01*
X35759Y17209D01*
X35794Y17123D01*
X35850Y17050D01*
X35923Y16994D01*
X36009Y16959D01*
X36050Y16954D01*
Y17250D01*
D02*
G37*
G36*
X31246D02*
X30950D01*
Y16954D01*
X30991Y16959D01*
X31077Y16994D01*
X31150Y17050D01*
X31206Y17123D01*
X31241Y17209D01*
X31246Y17250D01*
D02*
G37*
G36*
X30850D02*
X30554D01*
X30559Y17209D01*
X30594Y17123D01*
X30650Y17050D01*
X30723Y16994D01*
X30809Y16959D01*
X30850Y16954D01*
Y17250D01*
D02*
G37*
G36*
X36446D02*
X36150D01*
Y16954D01*
X36191Y16959D01*
X36277Y16994D01*
X36350Y17050D01*
X36406Y17123D01*
X36441Y17209D01*
X36446Y17250D01*
D02*
G37*
G36*
X2450Y17450D02*
X2154D01*
X2159Y17409D01*
X2194Y17323D01*
X2250Y17250D01*
X2323Y17194D01*
X2409Y17159D01*
X2450Y17154D01*
Y17450D01*
D02*
G37*
G36*
X33650Y17387D02*
Y17050D01*
X33987D01*
X33980Y17102D01*
X33941Y17197D01*
X33878Y17278D01*
X33797Y17341D01*
X33702Y17380D01*
X33650Y17387D01*
D02*
G37*
G36*
X31950D02*
X31898Y17380D01*
X31803Y17341D01*
X31722Y17278D01*
X31659Y17197D01*
X31620Y17102D01*
X31613Y17050D01*
X31950D01*
Y17387D01*
D02*
G37*
G36*
X7550Y17846D02*
Y17550D01*
X7846D01*
X7841Y17591D01*
X7806Y17677D01*
X7750Y17750D01*
X7677Y17806D01*
X7591Y17841D01*
X7550Y17846D01*
D02*
G37*
G36*
X7450D02*
X7409Y17841D01*
X7323Y17806D01*
X7250Y17750D01*
X7194Y17677D01*
X7159Y17591D01*
X7154Y17550D01*
X7450D01*
Y17846D01*
D02*
G37*
G36*
X2550D02*
Y17550D01*
X2846D01*
X2841Y17591D01*
X2806Y17677D01*
X2750Y17750D01*
X2677Y17806D01*
X2591Y17841D01*
X2550Y17846D01*
D02*
G37*
G36*
X13700D02*
X13659Y17841D01*
X13573Y17806D01*
X13500Y17750D01*
X13444Y17677D01*
X13409Y17591D01*
X13404Y17550D01*
X13700D01*
Y17846D01*
D02*
G37*
G36*
X20800Y17796D02*
Y17550D01*
X21046D01*
X21042Y17578D01*
X21012Y17651D01*
X20964Y17714D01*
X20901Y17762D01*
X20828Y17792D01*
X20800Y17796D01*
D02*
G37*
G36*
X20700D02*
X20672Y17792D01*
X20599Y17762D01*
X20536Y17714D01*
X20488Y17651D01*
X20458Y17578D01*
X20454Y17550D01*
X20700D01*
Y17796D01*
D02*
G37*
G36*
X13800Y17846D02*
Y17550D01*
X14096D01*
X14091Y17591D01*
X14056Y17677D01*
X14000Y17750D01*
X13927Y17806D01*
X13841Y17841D01*
X13800Y17846D01*
D02*
G37*
G36*
X2450D02*
X2409Y17841D01*
X2323Y17806D01*
X2250Y17750D01*
X2194Y17677D01*
X2159Y17591D01*
X2154Y17550D01*
X2450D01*
Y17846D01*
D02*
G37*
G36*
X25046Y17450D02*
X24800D01*
Y17204D01*
X24828Y17208D01*
X24901Y17238D01*
X24964Y17286D01*
X25012Y17349D01*
X25042Y17422D01*
X25046Y17450D01*
D02*
G37*
G36*
X24700D02*
X24454D01*
X24458Y17422D01*
X24488Y17349D01*
X24536Y17286D01*
X24599Y17238D01*
X24672Y17208D01*
X24700Y17204D01*
Y17450D01*
D02*
G37*
G36*
X21046D02*
X20800D01*
Y17204D01*
X20828Y17208D01*
X20901Y17238D01*
X20964Y17286D01*
X21012Y17349D01*
X21042Y17422D01*
X21046Y17450D01*
D02*
G37*
G36*
X30850Y17646D02*
X30809Y17641D01*
X30723Y17606D01*
X30650Y17550D01*
X30594Y17477D01*
X30559Y17391D01*
X30554Y17350D01*
X30850D01*
Y17646D01*
D02*
G37*
G36*
X36150D02*
Y17350D01*
X36446D01*
X36441Y17391D01*
X36406Y17477D01*
X36350Y17550D01*
X36277Y17606D01*
X36191Y17641D01*
X36150Y17646D01*
D02*
G37*
G36*
X36050D02*
X36009Y17641D01*
X35923Y17606D01*
X35850Y17550D01*
X35794Y17477D01*
X35759Y17391D01*
X35754Y17350D01*
X36050D01*
Y17646D01*
D02*
G37*
G36*
X30950D02*
Y17350D01*
X31246D01*
X31241Y17391D01*
X31206Y17477D01*
X31150Y17550D01*
X31077Y17606D01*
X30991Y17641D01*
X30950Y17646D01*
D02*
G37*
G36*
X17750Y19600D02*
X17454D01*
X17459Y19559D01*
X17494Y19473D01*
X17550Y19400D01*
X17623Y19344D01*
X17709Y19309D01*
X17750Y19304D01*
Y19600D01*
D02*
G37*
G36*
X13050Y23196D02*
Y22900D01*
X13346D01*
X13341Y22941D01*
X13306Y23027D01*
X13250Y23100D01*
X13177Y23156D01*
X13091Y23191D01*
X13050Y23196D01*
D02*
G37*
G36*
X12950D02*
X12909Y23191D01*
X12823Y23156D01*
X12750Y23100D01*
X12694Y23027D01*
X12659Y22941D01*
X12654Y22900D01*
X12950D01*
Y23196D01*
D02*
G37*
G36*
X18650Y22996D02*
Y22700D01*
X18946D01*
X18941Y22741D01*
X18906Y22827D01*
X18850Y22900D01*
X18777Y22956D01*
X18691Y22991D01*
X18650Y22996D01*
D02*
G37*
G36*
X21700Y23346D02*
X21659Y23341D01*
X21573Y23306D01*
X21500Y23250D01*
X21444Y23177D01*
X21409Y23091D01*
X21404Y23050D01*
X21700D01*
Y23346D01*
D02*
G37*
G36*
X37075Y24275D02*
X36125D01*
Y23325D01*
X37075D01*
Y24275D01*
D02*
G37*
G36*
X22350Y23346D02*
X22309Y23341D01*
X22223Y23306D01*
X22150Y23250D01*
X22125Y23217D01*
X22025D01*
X22000Y23250D01*
X21927Y23306D01*
X21841Y23341D01*
X21800Y23346D01*
Y23000D01*
Y22654D01*
X21841Y22659D01*
X21927Y22694D01*
X22000Y22750D01*
X22025Y22783D01*
X22125D01*
X22150Y22750D01*
X22223Y22694D01*
X22309Y22659D01*
X22350Y22654D01*
Y23000D01*
Y23346D01*
D02*
G37*
G36*
X22450D02*
Y23050D01*
X22746D01*
X22741Y23091D01*
X22706Y23177D01*
X22650Y23250D01*
X22577Y23306D01*
X22491Y23341D01*
X22450Y23346D01*
D02*
G37*
G36*
X18550Y22996D02*
X18509Y22991D01*
X18423Y22956D01*
X18350Y22900D01*
X18294Y22827D01*
X18259Y22741D01*
X18254Y22700D01*
X18550D01*
Y22996D01*
D02*
G37*
G36*
X7550Y22846D02*
Y22550D01*
X7846D01*
X7841Y22591D01*
X7806Y22677D01*
X7750Y22750D01*
X7677Y22806D01*
X7591Y22841D01*
X7550Y22846D01*
D02*
G37*
G36*
X7450D02*
X7409Y22841D01*
X7323Y22806D01*
X7250Y22750D01*
X7194Y22677D01*
X7159Y22591D01*
X7154Y22550D01*
X7450D01*
Y22846D01*
D02*
G37*
G36*
X2550D02*
Y22550D01*
X2846D01*
X2841Y22591D01*
X2806Y22677D01*
X2750Y22750D01*
X2677Y22806D01*
X2591Y22841D01*
X2550Y22846D01*
D02*
G37*
G36*
X27450D02*
X27409Y22841D01*
X27323Y22806D01*
X27250Y22750D01*
X27194Y22677D01*
X27159Y22591D01*
X27154Y22550D01*
X27450D01*
Y22846D01*
D02*
G37*
G36*
X22746Y22950D02*
X22450D01*
Y22654D01*
X22491Y22659D01*
X22577Y22694D01*
X22650Y22750D01*
X22706Y22823D01*
X22741Y22909D01*
X22746Y22950D01*
D02*
G37*
G36*
X21700D02*
X21404D01*
X21409Y22909D01*
X21444Y22823D01*
X21500Y22750D01*
X21573Y22694D01*
X21659Y22659D01*
X21700Y22654D01*
Y22950D01*
D02*
G37*
G36*
X27550Y22846D02*
Y22550D01*
X27846D01*
X27841Y22591D01*
X27806Y22677D01*
X27750Y22750D01*
X27677Y22806D01*
X27591Y22841D01*
X27550Y22846D01*
D02*
G37*
G36*
X8846Y26650D02*
X8550D01*
Y26354D01*
X8591Y26359D01*
X8677Y26394D01*
X8750Y26450D01*
X8806Y26523D01*
X8841Y26609D01*
X8846Y26650D01*
D02*
G37*
G36*
X8450D02*
X8154D01*
X8159Y26609D01*
X8194Y26523D01*
X8250Y26450D01*
X8323Y26394D01*
X8409Y26359D01*
X8450Y26354D01*
Y26650D01*
D02*
G37*
G36*
X36600Y26278D02*
X36476Y26262D01*
X36361Y26214D01*
X36262Y26138D01*
X36186Y26039D01*
X36138Y25924D01*
X36122Y25800D01*
X36138Y25676D01*
X36186Y25561D01*
X36262Y25462D01*
X36361Y25386D01*
X36476Y25338D01*
X36600Y25322D01*
X36724Y25338D01*
X36839Y25386D01*
X36938Y25462D01*
X37014Y25561D01*
X37062Y25676D01*
X37078Y25800D01*
X37062Y25924D01*
X37014Y26039D01*
X36938Y26138D01*
X36839Y26214D01*
X36724Y26262D01*
X36600Y26278D01*
D02*
G37*
G36*
X9450Y26650D02*
X9154D01*
X9159Y26609D01*
X9194Y26523D01*
X9250Y26450D01*
X9323Y26394D01*
X9409Y26359D01*
X9450Y26354D01*
Y26650D01*
D02*
G37*
G36*
X8550Y27046D02*
Y26750D01*
X8846D01*
X8841Y26791D01*
X8806Y26877D01*
X8750Y26950D01*
X8677Y27006D01*
X8591Y27041D01*
X8550Y27046D01*
D02*
G37*
G36*
X8450D02*
X8409Y27041D01*
X8323Y27006D01*
X8250Y26950D01*
X8194Y26877D01*
X8159Y26791D01*
X8154Y26750D01*
X8450D01*
Y27046D01*
D02*
G37*
G36*
X9846Y26650D02*
X9550D01*
Y26354D01*
X9591Y26359D01*
X9677Y26394D01*
X9750Y26450D01*
X9806Y26523D01*
X9841Y26609D01*
X9846Y26650D01*
D02*
G37*
G36*
X5050Y25546D02*
Y25250D01*
X5346D01*
X5341Y25291D01*
X5306Y25377D01*
X5250Y25450D01*
X5177Y25506D01*
X5091Y25541D01*
X5050Y25546D01*
D02*
G37*
G36*
X12950Y24196D02*
X12909Y24191D01*
X12823Y24156D01*
X12750Y24100D01*
X12694Y24027D01*
X12659Y23941D01*
X12654Y23900D01*
X12950D01*
Y24196D01*
D02*
G37*
G36*
X13346Y23800D02*
X13050D01*
Y23504D01*
X13091Y23509D01*
X13177Y23544D01*
X13250Y23600D01*
X13306Y23673D01*
X13341Y23759D01*
X13346Y23800D01*
D02*
G37*
G36*
X12950D02*
X12654D01*
X12659Y23759D01*
X12694Y23673D01*
X12750Y23600D01*
X12823Y23544D01*
X12909Y23509D01*
X12950Y23504D01*
Y23800D01*
D02*
G37*
G36*
X13050Y24196D02*
Y23900D01*
X13346D01*
X13341Y23941D01*
X13306Y24027D01*
X13250Y24100D01*
X13177Y24156D01*
X13091Y24191D01*
X13050Y24196D01*
D02*
G37*
G36*
X4950Y25546D02*
X4909Y25541D01*
X4823Y25506D01*
X4750Y25450D01*
X4694Y25377D01*
X4659Y25291D01*
X4654Y25250D01*
X4950D01*
Y25546D01*
D02*
G37*
G36*
X5346Y25150D02*
X5050D01*
Y24854D01*
X5091Y24859D01*
X5177Y24894D01*
X5250Y24950D01*
X5306Y25023D01*
X5341Y25109D01*
X5346Y25150D01*
D02*
G37*
G36*
X4950D02*
X4654D01*
X4659Y25109D01*
X4694Y25023D01*
X4750Y24950D01*
X4823Y24894D01*
X4909Y24859D01*
X4950Y24854D01*
Y25150D01*
D02*
G37*
G36*
X19950Y20346D02*
Y20050D01*
X20246D01*
X20241Y20091D01*
X20206Y20177D01*
X20150Y20250D01*
X20077Y20306D01*
X19991Y20341D01*
X19950Y20346D01*
D02*
G37*
G36*
X19850D02*
X19809Y20341D01*
X19723Y20306D01*
X19650Y20250D01*
X19594Y20177D01*
X19559Y20091D01*
X19554Y20050D01*
X19850D01*
Y20346D01*
D02*
G37*
G36*
X17850Y19996D02*
Y19700D01*
X18146D01*
X18141Y19741D01*
X18106Y19827D01*
X18050Y19900D01*
X17977Y19956D01*
X17891Y19991D01*
X17850Y19996D01*
D02*
G37*
G36*
X25550Y20346D02*
X25509Y20341D01*
X25423Y20306D01*
X25350Y20250D01*
X25294Y20177D01*
X25259Y20091D01*
X25254Y20050D01*
X25550D01*
Y20346D01*
D02*
G37*
G36*
X28800D02*
Y20050D01*
X29096D01*
X29091Y20091D01*
X29056Y20177D01*
X29000Y20250D01*
X28927Y20306D01*
X28841Y20341D01*
X28800Y20346D01*
D02*
G37*
G36*
X28700D02*
X28659Y20341D01*
X28573Y20306D01*
X28500Y20250D01*
X28444Y20177D01*
X28409Y20091D01*
X28404Y20050D01*
X28700D01*
Y20346D01*
D02*
G37*
G36*
X25650D02*
Y20050D01*
X25946D01*
X25941Y20091D01*
X25906Y20177D01*
X25850Y20250D01*
X25777Y20306D01*
X25691Y20341D01*
X25650Y20346D01*
D02*
G37*
G36*
X17750Y19996D02*
X17709Y19991D01*
X17623Y19956D01*
X17550Y19900D01*
X17494Y19827D01*
X17459Y19741D01*
X17454Y19700D01*
X17750D01*
Y19996D01*
D02*
G37*
G36*
X20246Y19950D02*
X19950D01*
Y19654D01*
X19991Y19659D01*
X20077Y19694D01*
X20150Y19750D01*
X20206Y19823D01*
X20241Y19909D01*
X20246Y19950D01*
D02*
G37*
G36*
X19850D02*
X19554D01*
X19559Y19909D01*
X19594Y19823D01*
X19650Y19750D01*
X19723Y19694D01*
X19809Y19659D01*
X19850Y19654D01*
Y19950D01*
D02*
G37*
G36*
X18146Y19600D02*
X17850D01*
Y19304D01*
X17891Y19309D01*
X17977Y19344D01*
X18050Y19400D01*
X18106Y19473D01*
X18141Y19559D01*
X18146Y19600D01*
D02*
G37*
G36*
X25550Y19950D02*
X25254D01*
X25259Y19909D01*
X25294Y19823D01*
X25350Y19750D01*
X25423Y19694D01*
X25509Y19659D01*
X25550Y19654D01*
Y19950D01*
D02*
G37*
G36*
X29096D02*
X28800D01*
Y19654D01*
X28841Y19659D01*
X28927Y19694D01*
X29000Y19750D01*
X29056Y19823D01*
X29091Y19909D01*
X29096Y19950D01*
D02*
G37*
G36*
X28700D02*
X28404D01*
X28409Y19909D01*
X28444Y19823D01*
X28500Y19750D01*
X28573Y19694D01*
X28659Y19659D01*
X28700Y19654D01*
Y19950D01*
D02*
G37*
G36*
X25946D02*
X25650D01*
Y19654D01*
X25691Y19659D01*
X25777Y19694D01*
X25850Y19750D01*
X25906Y19823D01*
X25941Y19909D01*
X25946Y19950D01*
D02*
G37*
G36*
X18550Y22600D02*
X18254D01*
X18259Y22559D01*
X18294Y22473D01*
X18350Y22400D01*
X18423Y22344D01*
X18509Y22309D01*
X18550Y22304D01*
Y22600D01*
D02*
G37*
G36*
X27846Y22450D02*
X27550D01*
Y22154D01*
X27591Y22159D01*
X27677Y22194D01*
X27750Y22250D01*
X27806Y22323D01*
X27841Y22409D01*
X27846Y22450D01*
D02*
G37*
G36*
X27450D02*
X27154D01*
X27159Y22409D01*
X27194Y22323D01*
X27250Y22250D01*
X27323Y22194D01*
X27409Y22159D01*
X27450Y22154D01*
Y22450D01*
D02*
G37*
G36*
X18946Y22600D02*
X18650D01*
Y22304D01*
X18691Y22309D01*
X18777Y22344D01*
X18850Y22400D01*
X18906Y22473D01*
X18941Y22559D01*
X18946Y22600D01*
D02*
G37*
G36*
X2450Y22846D02*
X2409Y22841D01*
X2323Y22806D01*
X2250Y22750D01*
X2194Y22677D01*
X2159Y22591D01*
X2154Y22550D01*
X2450D01*
Y22846D01*
D02*
G37*
G36*
X13346Y22800D02*
X13050D01*
Y22504D01*
X13091Y22509D01*
X13177Y22544D01*
X13250Y22600D01*
X13306Y22673D01*
X13341Y22759D01*
X13346Y22800D01*
D02*
G37*
G36*
X12950D02*
X12654D01*
X12659Y22759D01*
X12694Y22673D01*
X12750Y22600D01*
X12823Y22544D01*
X12909Y22509D01*
X12950Y22504D01*
Y22800D01*
D02*
G37*
G36*
X7846Y22450D02*
X7550D01*
Y22154D01*
X7591Y22159D01*
X7677Y22194D01*
X7750Y22250D01*
X7806Y22323D01*
X7841Y22409D01*
X7846Y22450D01*
D02*
G37*
G36*
X25350Y21446D02*
X25309Y21441D01*
X25223Y21406D01*
X25150Y21350D01*
X25094Y21277D01*
X25059Y21191D01*
X25054Y21150D01*
X25350D01*
Y21446D01*
D02*
G37*
G36*
X25746Y21050D02*
X25450D01*
Y20754D01*
X25491Y20759D01*
X25577Y20794D01*
X25650Y20850D01*
X25706Y20923D01*
X25741Y21009D01*
X25746Y21050D01*
D02*
G37*
G36*
X25350D02*
X25054D01*
X25059Y21009D01*
X25094Y20923D01*
X25150Y20850D01*
X25223Y20794D01*
X25309Y20759D01*
X25350Y20754D01*
Y21050D01*
D02*
G37*
G36*
X25450Y21446D02*
Y21150D01*
X25746D01*
X25741Y21191D01*
X25706Y21277D01*
X25650Y21350D01*
X25577Y21406D01*
X25491Y21441D01*
X25450Y21446D01*
D02*
G37*
G36*
X7450Y22450D02*
X7154D01*
X7159Y22409D01*
X7194Y22323D01*
X7250Y22250D01*
X7323Y22194D01*
X7409Y22159D01*
X7450Y22154D01*
Y22450D01*
D02*
G37*
G36*
X2846D02*
X2550D01*
Y22154D01*
X2591Y22159D01*
X2677Y22194D01*
X2750Y22250D01*
X2806Y22323D01*
X2841Y22409D01*
X2846Y22450D01*
D02*
G37*
G36*
X2450D02*
X2154D01*
X2159Y22409D01*
X2194Y22323D01*
X2250Y22250D01*
X2323Y22194D01*
X2409Y22159D01*
X2450Y22154D01*
Y22450D01*
D02*
G37*
G36*
X33987Y16950D02*
X33650D01*
Y16613D01*
X33702Y16620D01*
X33797Y16659D01*
X33878Y16722D01*
X33941Y16803D01*
X33980Y16898D01*
X33987Y16950D01*
D02*
G37*
G36*
X22450Y7450D02*
X22154D01*
X22159Y7409D01*
X22194Y7323D01*
X22250Y7250D01*
X22323Y7194D01*
X22409Y7159D01*
X22450Y7154D01*
Y7450D01*
D02*
G37*
G36*
X17846D02*
X17550D01*
Y7154D01*
X17591Y7159D01*
X17677Y7194D01*
X17750Y7250D01*
X17806Y7323D01*
X17841Y7409D01*
X17846Y7450D01*
D02*
G37*
G36*
X17450D02*
X17154D01*
X17159Y7409D01*
X17194Y7323D01*
X17250Y7250D01*
X17323Y7194D01*
X17409Y7159D01*
X17450Y7154D01*
Y7450D01*
D02*
G37*
G36*
X22846D02*
X22550D01*
Y7154D01*
X22591Y7159D01*
X22677Y7194D01*
X22750Y7250D01*
X22806Y7323D01*
X22841Y7409D01*
X22846Y7450D01*
D02*
G37*
G36*
X37450D02*
X37154D01*
X37159Y7409D01*
X37194Y7323D01*
X37250Y7250D01*
X37323Y7194D01*
X37409Y7159D01*
X37450Y7154D01*
Y7450D01*
D02*
G37*
G36*
X27846D02*
X27550D01*
Y7154D01*
X27591Y7159D01*
X27677Y7194D01*
X27750Y7250D01*
X27806Y7323D01*
X27841Y7409D01*
X27846Y7450D01*
D02*
G37*
G36*
X27450D02*
X27154D01*
X27159Y7409D01*
X27194Y7323D01*
X27250Y7250D01*
X27323Y7194D01*
X27409Y7159D01*
X27450Y7154D01*
Y7450D01*
D02*
G37*
G36*
X12846D02*
X12550D01*
Y7154D01*
X12591Y7159D01*
X12677Y7194D01*
X12750Y7250D01*
X12806Y7323D01*
X12841Y7409D01*
X12846Y7450D01*
D02*
G37*
G36*
X2350Y7350D02*
X2054D01*
X2059Y7309D01*
X2094Y7223D01*
X2150Y7150D01*
X2223Y7094D01*
X2309Y7059D01*
X2350Y7054D01*
Y7350D01*
D02*
G37*
G36*
X37550Y2846D02*
Y2550D01*
X37846D01*
X37841Y2591D01*
X37806Y2677D01*
X37750Y2750D01*
X37677Y2806D01*
X37591Y2841D01*
X37550Y2846D01*
D02*
G37*
G36*
X37450D02*
X37409Y2841D01*
X37323Y2806D01*
X37250Y2750D01*
X37194Y2677D01*
X37159Y2591D01*
X37154Y2550D01*
X37450D01*
Y2846D01*
D02*
G37*
G36*
X2746Y7350D02*
X2450D01*
Y7054D01*
X2491Y7059D01*
X2577Y7094D01*
X2650Y7150D01*
X2706Y7223D01*
X2741Y7309D01*
X2746Y7350D01*
D02*
G37*
G36*
X12450Y7450D02*
X12154D01*
X12159Y7409D01*
X12194Y7323D01*
X12250Y7250D01*
X12323Y7194D01*
X12409Y7159D01*
X12450Y7154D01*
Y7450D01*
D02*
G37*
G36*
X7846D02*
X7550D01*
Y7154D01*
X7591Y7159D01*
X7677Y7194D01*
X7750Y7250D01*
X7806Y7323D01*
X7841Y7409D01*
X7846Y7450D01*
D02*
G37*
G36*
X7450D02*
X7154D01*
X7159Y7409D01*
X7194Y7323D01*
X7250Y7250D01*
X7323Y7194D01*
X7409Y7159D01*
X7450Y7154D01*
Y7450D01*
D02*
G37*
G36*
X12550Y7846D02*
Y7550D01*
X12846D01*
X12841Y7591D01*
X12806Y7677D01*
X12750Y7750D01*
X12677Y7806D01*
X12591Y7841D01*
X12550Y7846D01*
D02*
G37*
G36*
X12450D02*
X12409Y7841D01*
X12323Y7806D01*
X12250Y7750D01*
X12194Y7677D01*
X12159Y7591D01*
X12154Y7550D01*
X12450D01*
Y7846D01*
D02*
G37*
G36*
X7550D02*
Y7550D01*
X7846D01*
X7841Y7591D01*
X7806Y7677D01*
X7750Y7750D01*
X7677Y7806D01*
X7591Y7841D01*
X7550Y7846D01*
D02*
G37*
G36*
X17450D02*
X17409Y7841D01*
X17323Y7806D01*
X17250Y7750D01*
X17194Y7677D01*
X17159Y7591D01*
X17154Y7550D01*
X17450D01*
Y7846D01*
D02*
G37*
G36*
X22550D02*
Y7550D01*
X22846D01*
X22841Y7591D01*
X22806Y7677D01*
X22750Y7750D01*
X22677Y7806D01*
X22591Y7841D01*
X22550Y7846D01*
D02*
G37*
G36*
X22450D02*
X22409Y7841D01*
X22323Y7806D01*
X22250Y7750D01*
X22194Y7677D01*
X22159Y7591D01*
X22154Y7550D01*
X22450D01*
Y7846D01*
D02*
G37*
G36*
X17550D02*
Y7550D01*
X17846D01*
X17841Y7591D01*
X17806Y7677D01*
X17750Y7750D01*
X17677Y7806D01*
X17591Y7841D01*
X17550Y7846D01*
D02*
G37*
G36*
X7450D02*
X7409Y7841D01*
X7323Y7806D01*
X7250Y7750D01*
X7194Y7677D01*
X7159Y7591D01*
X7154Y7550D01*
X7450D01*
Y7846D01*
D02*
G37*
G36*
X10498Y7850D02*
X10050D01*
Y7402D01*
X10131Y7413D01*
X10252Y7463D01*
X10357Y7543D01*
X10437Y7648D01*
X10487Y7769D01*
X10498Y7850D01*
D02*
G37*
G36*
X9950D02*
X9502D01*
X9513Y7769D01*
X9563Y7648D01*
X9643Y7543D01*
X9748Y7463D01*
X9869Y7413D01*
X9950Y7402D01*
Y7850D01*
D02*
G37*
G36*
X37846Y7450D02*
X37550D01*
Y7154D01*
X37591Y7159D01*
X37677Y7194D01*
X37750Y7250D01*
X37806Y7323D01*
X37841Y7409D01*
X37846Y7450D01*
D02*
G37*
G36*
X2350Y7746D02*
X2309Y7741D01*
X2223Y7706D01*
X2150Y7650D01*
X2094Y7577D01*
X2059Y7491D01*
X2054Y7450D01*
X2350D01*
Y7746D01*
D02*
G37*
G36*
X33098Y7950D02*
X32650D01*
Y7502D01*
X32731Y7513D01*
X32852Y7563D01*
X32957Y7643D01*
X33037Y7748D01*
X33087Y7869D01*
X33098Y7950D01*
D02*
G37*
G36*
X32550D02*
X32102D01*
X32113Y7869D01*
X32163Y7748D01*
X32243Y7643D01*
X32348Y7563D01*
X32469Y7513D01*
X32550Y7502D01*
Y7950D01*
D02*
G37*
G36*
X2450Y7746D02*
Y7450D01*
X2746D01*
X2741Y7491D01*
X2706Y7577D01*
X2650Y7650D01*
X2577Y7706D01*
X2491Y7741D01*
X2450Y7746D01*
D02*
G37*
G36*
X27450Y2450D02*
X27154D01*
X27159Y2409D01*
X27194Y2323D01*
X27250Y2250D01*
X27323Y2194D01*
X27409Y2159D01*
X27450Y2154D01*
Y2450D01*
D02*
G37*
G36*
X22846D02*
X22550D01*
Y2154D01*
X22591Y2159D01*
X22677Y2194D01*
X22750Y2250D01*
X22806Y2323D01*
X22841Y2409D01*
X22846Y2450D01*
D02*
G37*
G36*
X22450D02*
X22154D01*
X22159Y2409D01*
X22194Y2323D01*
X22250Y2250D01*
X22323Y2194D01*
X22409Y2159D01*
X22450Y2154D01*
Y2450D01*
D02*
G37*
G36*
X27846D02*
X27550D01*
Y2154D01*
X27591Y2159D01*
X27677Y2194D01*
X27750Y2250D01*
X27806Y2323D01*
X27841Y2409D01*
X27846Y2450D01*
D02*
G37*
G36*
X37450D02*
X37154D01*
X37159Y2409D01*
X37194Y2323D01*
X37250Y2250D01*
X37323Y2194D01*
X37409Y2159D01*
X37450Y2154D01*
Y2450D01*
D02*
G37*
G36*
X32846D02*
X32550D01*
Y2154D01*
X32591Y2159D01*
X32677Y2194D01*
X32750Y2250D01*
X32806Y2323D01*
X32841Y2409D01*
X32846Y2450D01*
D02*
G37*
G36*
X32450D02*
X32154D01*
X32159Y2409D01*
X32194Y2323D01*
X32250Y2250D01*
X32323Y2194D01*
X32409Y2159D01*
X32450Y2154D01*
Y2450D01*
D02*
G37*
G36*
X17846D02*
X17550D01*
Y2154D01*
X17591Y2159D01*
X17677Y2194D01*
X17750Y2250D01*
X17806Y2323D01*
X17841Y2409D01*
X17846Y2450D01*
D02*
G37*
G36*
X7450D02*
X7154D01*
X7159Y2409D01*
X7194Y2323D01*
X7250Y2250D01*
X7323Y2194D01*
X7409Y2159D01*
X7450Y2154D01*
Y2450D01*
D02*
G37*
G36*
X2846D02*
X2550D01*
Y2154D01*
X2591Y2159D01*
X2677Y2194D01*
X2750Y2250D01*
X2806Y2323D01*
X2841Y2409D01*
X2846Y2450D01*
D02*
G37*
G36*
X2450D02*
X2154D01*
X2159Y2409D01*
X2194Y2323D01*
X2250Y2250D01*
X2323Y2194D01*
X2409Y2159D01*
X2450Y2154D01*
Y2450D01*
D02*
G37*
G36*
X7846D02*
X7550D01*
Y2154D01*
X7591Y2159D01*
X7677Y2194D01*
X7750Y2250D01*
X7806Y2323D01*
X7841Y2409D01*
X7846Y2450D01*
D02*
G37*
G36*
X17450D02*
X17154D01*
X17159Y2409D01*
X17194Y2323D01*
X17250Y2250D01*
X17323Y2194D01*
X17409Y2159D01*
X17450Y2154D01*
Y2450D01*
D02*
G37*
G36*
X12846D02*
X12550D01*
Y2154D01*
X12591Y2159D01*
X12677Y2194D01*
X12750Y2250D01*
X12806Y2323D01*
X12841Y2409D01*
X12846Y2450D01*
D02*
G37*
G36*
X12450D02*
X12154D01*
X12159Y2409D01*
X12194Y2323D01*
X12250Y2250D01*
X12323Y2194D01*
X12409Y2159D01*
X12450Y2154D01*
Y2450D01*
D02*
G37*
G36*
X22550Y2846D02*
Y2550D01*
X22846D01*
X22841Y2591D01*
X22806Y2677D01*
X22750Y2750D01*
X22677Y2806D01*
X22591Y2841D01*
X22550Y2846D01*
D02*
G37*
G36*
X22450D02*
X22409Y2841D01*
X22323Y2806D01*
X22250Y2750D01*
X22194Y2677D01*
X22159Y2591D01*
X22154Y2550D01*
X22450D01*
Y2846D01*
D02*
G37*
G36*
X17550D02*
Y2550D01*
X17846D01*
X17841Y2591D01*
X17806Y2677D01*
X17750Y2750D01*
X17677Y2806D01*
X17591Y2841D01*
X17550Y2846D01*
D02*
G37*
G36*
X27450D02*
X27409Y2841D01*
X27323Y2806D01*
X27250Y2750D01*
X27194Y2677D01*
X27159Y2591D01*
X27154Y2550D01*
X27450D01*
Y2846D01*
D02*
G37*
G36*
X32550D02*
Y2550D01*
X32846D01*
X32841Y2591D01*
X32806Y2677D01*
X32750Y2750D01*
X32677Y2806D01*
X32591Y2841D01*
X32550Y2846D01*
D02*
G37*
G36*
X32450D02*
X32409Y2841D01*
X32323Y2806D01*
X32250Y2750D01*
X32194Y2677D01*
X32159Y2591D01*
X32154Y2550D01*
X32450D01*
Y2846D01*
D02*
G37*
G36*
X27550D02*
Y2550D01*
X27846D01*
X27841Y2591D01*
X27806Y2677D01*
X27750Y2750D01*
X27677Y2806D01*
X27591Y2841D01*
X27550Y2846D01*
D02*
G37*
G36*
X17450D02*
X17409Y2841D01*
X17323Y2806D01*
X17250Y2750D01*
X17194Y2677D01*
X17159Y2591D01*
X17154Y2550D01*
X17450D01*
Y2846D01*
D02*
G37*
G36*
X2550D02*
Y2550D01*
X2846D01*
X2841Y2591D01*
X2806Y2677D01*
X2750Y2750D01*
X2677Y2806D01*
X2591Y2841D01*
X2550Y2846D01*
D02*
G37*
G36*
X2450D02*
X2409Y2841D01*
X2323Y2806D01*
X2250Y2750D01*
X2194Y2677D01*
X2159Y2591D01*
X2154Y2550D01*
X2450D01*
Y2846D01*
D02*
G37*
G36*
X37846Y2450D02*
X37550D01*
Y2154D01*
X37591Y2159D01*
X37677Y2194D01*
X37750Y2250D01*
X37806Y2323D01*
X37841Y2409D01*
X37846Y2450D01*
D02*
G37*
G36*
X7450Y2846D02*
X7409Y2841D01*
X7323Y2806D01*
X7250Y2750D01*
X7194Y2677D01*
X7159Y2591D01*
X7154Y2550D01*
X7450D01*
Y2846D01*
D02*
G37*
G36*
X12550D02*
Y2550D01*
X12846D01*
X12841Y2591D01*
X12806Y2677D01*
X12750Y2750D01*
X12677Y2806D01*
X12591Y2841D01*
X12550Y2846D01*
D02*
G37*
G36*
X12450D02*
X12409Y2841D01*
X12323Y2806D01*
X12250Y2750D01*
X12194Y2677D01*
X12159Y2591D01*
X12154Y2550D01*
X12450D01*
Y2846D01*
D02*
G37*
G36*
X7550D02*
Y2550D01*
X7846D01*
X7841Y2591D01*
X7806Y2677D01*
X7750Y2750D01*
X7677Y2806D01*
X7591Y2841D01*
X7550Y2846D01*
D02*
G37*
G36*
X27450Y7846D02*
X27409Y7841D01*
X27323Y7806D01*
X27250Y7750D01*
X27194Y7677D01*
X27159Y7591D01*
X27154Y7550D01*
X27450D01*
Y7846D01*
D02*
G37*
G36*
X17650Y14446D02*
Y14150D01*
X17946D01*
X17941Y14191D01*
X17906Y14277D01*
X17850Y14350D01*
X17777Y14406D01*
X17691Y14441D01*
X17650Y14446D01*
D02*
G37*
G36*
X17550D02*
X17509Y14441D01*
X17423Y14406D01*
X17350Y14350D01*
X17294Y14277D01*
X17259Y14191D01*
X17254Y14150D01*
X17550D01*
Y14446D01*
D02*
G37*
G36*
X17946Y14050D02*
X17650D01*
Y13754D01*
X17691Y13759D01*
X17777Y13794D01*
X17850Y13850D01*
X17906Y13923D01*
X17941Y14009D01*
X17946Y14050D01*
D02*
G37*
G36*
X1200Y14950D02*
X752D01*
X763Y14869D01*
X813Y14748D01*
X893Y14643D01*
X998Y14563D01*
X1119Y14513D01*
X1200Y14502D01*
Y14950D01*
D02*
G37*
G36*
X1300Y15498D02*
Y15050D01*
X1748D01*
X1737Y15131D01*
X1687Y15252D01*
X1607Y15357D01*
X1502Y15437D01*
X1381Y15487D01*
X1300Y15498D01*
D02*
G37*
G36*
X1200D02*
X1119Y15487D01*
X998Y15437D01*
X893Y15357D01*
X813Y15252D01*
X763Y15131D01*
X752Y15050D01*
X1200D01*
Y15498D01*
D02*
G37*
G36*
X1748Y14950D02*
X1300D01*
Y14502D01*
X1381Y14513D01*
X1502Y14563D01*
X1607Y14643D01*
X1687Y14748D01*
X1737Y14869D01*
X1748Y14950D01*
D02*
G37*
G36*
X17550Y14050D02*
X17254D01*
X17259Y14009D01*
X17294Y13923D01*
X17350Y13850D01*
X17423Y13794D01*
X17509Y13759D01*
X17550Y13754D01*
Y14050D01*
D02*
G37*
G36*
X17946Y13050D02*
X17650D01*
Y12754D01*
X17691Y12759D01*
X17777Y12794D01*
X17850Y12850D01*
X17906Y12923D01*
X17941Y13009D01*
X17946Y13050D01*
D02*
G37*
G36*
X17550D02*
X17254D01*
X17259Y13009D01*
X17294Y12923D01*
X17350Y12850D01*
X17423Y12794D01*
X17509Y12759D01*
X17550Y12754D01*
Y13050D01*
D02*
G37*
G36*
X37550Y12846D02*
Y12550D01*
X37846D01*
X37841Y12591D01*
X37806Y12677D01*
X37750Y12750D01*
X37677Y12806D01*
X37591Y12841D01*
X37550Y12846D01*
D02*
G37*
G36*
X4950Y14950D02*
X2930D01*
X2945Y14729D01*
X2998Y14463D01*
X3085Y14207D01*
X3205Y13964D01*
X3355Y13738D01*
X3534Y13534D01*
X3738Y13355D01*
X3964Y13205D01*
X4207Y13085D01*
X4463Y12998D01*
X4729Y12945D01*
X4950Y12930D01*
Y14950D01*
D02*
G37*
G36*
X17650Y13446D02*
Y13150D01*
X17946D01*
X17941Y13191D01*
X17906Y13277D01*
X17850Y13350D01*
X17777Y13406D01*
X17691Y13441D01*
X17650Y13446D01*
D02*
G37*
G36*
X17550D02*
X17509Y13441D01*
X17423Y13406D01*
X17350Y13350D01*
X17294Y13277D01*
X17259Y13191D01*
X17254Y13150D01*
X17550D01*
Y13446D01*
D02*
G37*
G36*
X7070Y14950D02*
X5050D01*
Y12930D01*
X5271Y12945D01*
X5537Y12998D01*
X5793Y13085D01*
X6036Y13205D01*
X6262Y13355D01*
X6466Y13534D01*
X6645Y13738D01*
X6795Y13964D01*
X6915Y14207D01*
X7002Y14463D01*
X7055Y14729D01*
X7070Y14950D01*
D02*
G37*
G36*
X19850Y16746D02*
X19809Y16741D01*
X19723Y16706D01*
X19650Y16650D01*
X19594Y16577D01*
X19559Y16491D01*
X19554Y16450D01*
X19850D01*
Y16746D01*
D02*
G37*
G36*
X25946Y16350D02*
X25650D01*
Y16054D01*
X25691Y16059D01*
X25777Y16094D01*
X25850Y16150D01*
X25906Y16223D01*
X25941Y16309D01*
X25946Y16350D01*
D02*
G37*
G36*
X25550D02*
X25254D01*
X25259Y16309D01*
X25294Y16223D01*
X25350Y16150D01*
X25423Y16094D01*
X25509Y16059D01*
X25550Y16054D01*
Y16350D01*
D02*
G37*
G36*
X19950Y16746D02*
Y16450D01*
X20246D01*
X20241Y16491D01*
X20206Y16577D01*
X20150Y16650D01*
X20077Y16706D01*
X19991Y16741D01*
X19950Y16746D01*
D02*
G37*
G36*
X31950Y16950D02*
X31613D01*
X31620Y16898D01*
X31659Y16803D01*
X31722Y16722D01*
X31803Y16659D01*
X31898Y16620D01*
X31950Y16613D01*
Y16950D01*
D02*
G37*
G36*
X25650Y16746D02*
Y16450D01*
X25946D01*
X25941Y16491D01*
X25906Y16577D01*
X25850Y16650D01*
X25777Y16706D01*
X25691Y16741D01*
X25650Y16746D01*
D02*
G37*
G36*
X25550D02*
X25509Y16741D01*
X25423Y16706D01*
X25350Y16650D01*
X25294Y16577D01*
X25259Y16491D01*
X25254Y16450D01*
X25550D01*
Y16746D01*
D02*
G37*
G36*
X20246Y16350D02*
X19950D01*
Y16054D01*
X19991Y16059D01*
X20077Y16094D01*
X20150Y16150D01*
X20206Y16223D01*
X20241Y16309D01*
X20246Y16350D01*
D02*
G37*
G36*
X19400Y15650D02*
X19104D01*
X19109Y15609D01*
X19144Y15523D01*
X19200Y15450D01*
X19273Y15394D01*
X19359Y15359D01*
X19400Y15354D01*
Y15650D01*
D02*
G37*
G36*
X5050Y17070D02*
Y15050D01*
X7070D01*
X7055Y15271D01*
X7002Y15537D01*
X6915Y15793D01*
X6795Y16036D01*
X6645Y16262D01*
X6466Y16466D01*
X6262Y16645D01*
X6036Y16795D01*
X5793Y16915D01*
X5537Y17002D01*
X5271Y17055D01*
X5050Y17070D01*
D02*
G37*
G36*
X4950D02*
X4729Y17055D01*
X4463Y17002D01*
X4207Y16915D01*
X3964Y16795D01*
X3738Y16645D01*
X3534Y16466D01*
X3355Y16262D01*
X3205Y16036D01*
X3085Y15793D01*
X2998Y15537D01*
X2945Y15271D01*
X2930Y15050D01*
X4950D01*
Y17070D01*
D02*
G37*
G36*
X19796Y15650D02*
X19500D01*
Y15354D01*
X19541Y15359D01*
X19627Y15394D01*
X19700Y15450D01*
X19756Y15523D01*
X19791Y15609D01*
X19796Y15650D01*
D02*
G37*
G36*
X19850Y16350D02*
X19554D01*
X19559Y16309D01*
X19594Y16223D01*
X19650Y16150D01*
X19723Y16094D01*
X19809Y16059D01*
X19850Y16054D01*
Y16350D01*
D02*
G37*
G36*
X19500Y16046D02*
Y15750D01*
X19796D01*
X19791Y15791D01*
X19756Y15877D01*
X19700Y15950D01*
X19627Y16006D01*
X19541Y16041D01*
X19500Y16046D01*
D02*
G37*
G36*
X19400D02*
X19359Y16041D01*
X19273Y16006D01*
X19200Y15950D01*
X19144Y15877D01*
X19109Y15791D01*
X19104Y15750D01*
X19400D01*
Y16046D01*
D02*
G37*
G36*
X23000Y11611D02*
Y11315D01*
X23296D01*
X23291Y11356D01*
X23256Y11441D01*
X23200Y11515D01*
X23127Y11571D01*
X23041Y11606D01*
X23000Y11611D01*
D02*
G37*
G36*
X22900D02*
X22859Y11606D01*
X22773Y11571D01*
X22700Y11515D01*
X22644Y11441D01*
X22609Y11356D01*
X22604Y11315D01*
X22900D01*
Y11611D01*
D02*
G37*
G36*
X23296Y11215D02*
X23000D01*
Y10919D01*
X23041Y10924D01*
X23127Y10959D01*
X23200Y11015D01*
X23256Y11088D01*
X23291Y11174D01*
X23296Y11215D01*
D02*
G37*
G36*
X2450Y12450D02*
X2154D01*
X2159Y12409D01*
X2194Y12323D01*
X2250Y12250D01*
X2323Y12194D01*
X2409Y12159D01*
X2450Y12154D01*
Y12450D01*
D02*
G37*
G36*
X7846D02*
X7550D01*
Y12154D01*
X7591Y12159D01*
X7677Y12194D01*
X7750Y12250D01*
X7806Y12323D01*
X7841Y12409D01*
X7846Y12450D01*
D02*
G37*
G36*
X7450D02*
X7154D01*
X7159Y12409D01*
X7194Y12323D01*
X7250Y12250D01*
X7323Y12194D01*
X7409Y12159D01*
X7450Y12154D01*
Y12450D01*
D02*
G37*
G36*
X2846D02*
X2550D01*
Y12154D01*
X2591Y12159D01*
X2677Y12194D01*
X2750Y12250D01*
X2806Y12323D01*
X2841Y12409D01*
X2846Y12450D01*
D02*
G37*
G36*
X22900Y11215D02*
X22604D01*
X22609Y11174D01*
X22644Y11088D01*
X22700Y11015D01*
X22773Y10959D01*
X22859Y10924D01*
X22900Y10919D01*
Y11215D01*
D02*
G37*
G36*
X37550Y7846D02*
Y7550D01*
X37846D01*
X37841Y7591D01*
X37806Y7677D01*
X37750Y7750D01*
X37677Y7806D01*
X37591Y7841D01*
X37550Y7846D01*
D02*
G37*
G36*
X37450D02*
X37409Y7841D01*
X37323Y7806D01*
X37250Y7750D01*
X37194Y7677D01*
X37159Y7591D01*
X37154Y7550D01*
X37450D01*
Y7846D01*
D02*
G37*
G36*
X27550D02*
Y7550D01*
X27846D01*
X27841Y7591D01*
X27806Y7677D01*
X27750Y7750D01*
X27677Y7806D01*
X27591Y7841D01*
X27550Y7846D01*
D02*
G37*
G36*
X9950Y8398D02*
X9869Y8387D01*
X9748Y8337D01*
X9643Y8257D01*
X9563Y8152D01*
X9513Y8031D01*
X9502Y7950D01*
X9950D01*
Y8398D01*
D02*
G37*
G36*
X32650Y8498D02*
Y8050D01*
X33098D01*
X33087Y8131D01*
X33037Y8252D01*
X32957Y8357D01*
X32852Y8437D01*
X32731Y8487D01*
X32650Y8498D01*
D02*
G37*
G36*
X32550D02*
X32469Y8487D01*
X32348Y8437D01*
X32243Y8357D01*
X32163Y8252D01*
X32113Y8131D01*
X32102Y8050D01*
X32550D01*
Y8498D01*
D02*
G37*
G36*
X10050Y8398D02*
Y7950D01*
X10498D01*
X10487Y8031D01*
X10437Y8152D01*
X10357Y8257D01*
X10252Y8337D01*
X10131Y8387D01*
X10050Y8398D01*
D02*
G37*
G36*
X27450Y12846D02*
X27409Y12841D01*
X27323Y12806D01*
X27250Y12750D01*
X27194Y12677D01*
X27159Y12591D01*
X27154Y12550D01*
X27450D01*
Y12846D01*
D02*
G37*
G36*
X7550D02*
Y12550D01*
X7846D01*
X7841Y12591D01*
X7806Y12677D01*
X7750Y12750D01*
X7677Y12806D01*
X7591Y12841D01*
X7550Y12846D01*
D02*
G37*
G36*
X7450D02*
X7409Y12841D01*
X7323Y12806D01*
X7250Y12750D01*
X7194Y12677D01*
X7159Y12591D01*
X7154Y12550D01*
X7450D01*
Y12846D01*
D02*
G37*
G36*
X27550D02*
Y12550D01*
X27846D01*
X27841Y12591D01*
X27806Y12677D01*
X27750Y12750D01*
X27677Y12806D01*
X27591Y12841D01*
X27550Y12846D01*
D02*
G37*
G36*
X37450D02*
X37409Y12841D01*
X37323Y12806D01*
X37250Y12750D01*
X37194Y12677D01*
X37159Y12591D01*
X37154Y12550D01*
X37450D01*
Y12846D01*
D02*
G37*
G36*
X32550D02*
Y12550D01*
X32846D01*
X32841Y12591D01*
X32806Y12677D01*
X32750Y12750D01*
X32677Y12806D01*
X32591Y12841D01*
X32550Y12846D01*
D02*
G37*
G36*
X32450D02*
X32409Y12841D01*
X32323Y12806D01*
X32250Y12750D01*
X32194Y12677D01*
X32159Y12591D01*
X32154Y12550D01*
X32450D01*
Y12846D01*
D02*
G37*
G36*
X2550D02*
Y12550D01*
X2846D01*
X2841Y12591D01*
X2806Y12677D01*
X2750Y12750D01*
X2677Y12806D01*
X2591Y12841D01*
X2550Y12846D01*
D02*
G37*
G36*
X32450Y12450D02*
X32154D01*
X32159Y12409D01*
X32194Y12323D01*
X32250Y12250D01*
X32323Y12194D01*
X32409Y12159D01*
X32450Y12154D01*
Y12450D01*
D02*
G37*
G36*
X27846D02*
X27550D01*
Y12154D01*
X27591Y12159D01*
X27677Y12194D01*
X27750Y12250D01*
X27806Y12323D01*
X27841Y12409D01*
X27846Y12450D01*
D02*
G37*
G36*
X27450D02*
X27154D01*
X27159Y12409D01*
X27194Y12323D01*
X27250Y12250D01*
X27323Y12194D01*
X27409Y12159D01*
X27450Y12154D01*
Y12450D01*
D02*
G37*
G36*
X32846D02*
X32550D01*
Y12154D01*
X32591Y12159D01*
X32677Y12194D01*
X32750Y12250D01*
X32806Y12323D01*
X32841Y12409D01*
X32846Y12450D01*
D02*
G37*
G36*
X2450Y12846D02*
X2409Y12841D01*
X2323Y12806D01*
X2250Y12750D01*
X2194Y12677D01*
X2159Y12591D01*
X2154Y12550D01*
X2450D01*
Y12846D01*
D02*
G37*
G36*
X37846Y12450D02*
X37550D01*
Y12154D01*
X37591Y12159D01*
X37677Y12194D01*
X37750Y12250D01*
X37806Y12323D01*
X37841Y12409D01*
X37846Y12450D01*
D02*
G37*
G36*
X37450D02*
X37154D01*
X37159Y12409D01*
X37194Y12323D01*
X37250Y12250D01*
X37323Y12194D01*
X37409Y12159D01*
X37450Y12154D01*
Y12450D01*
D02*
G37*
G36*
X9450Y27046D02*
X9409Y27041D01*
X9323Y27006D01*
X9250Y26950D01*
X9194Y26877D01*
X9159Y26791D01*
X9154Y26750D01*
X9450D01*
Y27046D01*
D02*
G37*
G36*
X2846Y42450D02*
X2550D01*
Y42154D01*
X2591Y42159D01*
X2677Y42194D01*
X2750Y42250D01*
X2806Y42323D01*
X2841Y42409D01*
X2846Y42450D01*
D02*
G37*
G36*
X2450D02*
X2154D01*
X2159Y42409D01*
X2194Y42323D01*
X2250Y42250D01*
X2323Y42194D01*
X2409Y42159D01*
X2450Y42154D01*
Y42450D01*
D02*
G37*
G36*
X20350Y40846D02*
Y40550D01*
X20646D01*
X20641Y40591D01*
X20606Y40677D01*
X20550Y40750D01*
X20477Y40806D01*
X20391Y40841D01*
X20350Y40846D01*
D02*
G37*
G36*
X7450Y42450D02*
X7154D01*
X7159Y42409D01*
X7194Y42323D01*
X7250Y42250D01*
X7323Y42194D01*
X7409Y42159D01*
X7450Y42154D01*
Y42450D01*
D02*
G37*
G36*
X12846D02*
X12550D01*
Y42154D01*
X12591Y42159D01*
X12677Y42194D01*
X12750Y42250D01*
X12806Y42323D01*
X12841Y42409D01*
X12846Y42450D01*
D02*
G37*
G36*
X12450D02*
X12154D01*
X12159Y42409D01*
X12194Y42323D01*
X12250Y42250D01*
X12323Y42194D01*
X12409Y42159D01*
X12450Y42154D01*
Y42450D01*
D02*
G37*
G36*
X7846D02*
X7550D01*
Y42154D01*
X7591Y42159D01*
X7677Y42194D01*
X7750Y42250D01*
X7806Y42323D01*
X7841Y42409D01*
X7846Y42450D01*
D02*
G37*
G36*
X20250Y40846D02*
X20209Y40841D01*
X20123Y40806D01*
X20050Y40750D01*
X19994Y40677D01*
X19959Y40591D01*
X19954Y40550D01*
X20250D01*
Y40846D01*
D02*
G37*
G36*
X32550Y40248D02*
Y39800D01*
X32998D01*
X32987Y39881D01*
X32937Y40002D01*
X32857Y40107D01*
X32752Y40187D01*
X32631Y40237D01*
X32550Y40248D01*
D02*
G37*
G36*
X32450D02*
X32369Y40237D01*
X32248Y40187D01*
X32143Y40107D01*
X32063Y40002D01*
X32013Y39881D01*
X32002Y39800D01*
X32450D01*
Y40248D01*
D02*
G37*
G36*
X10050D02*
Y39800D01*
X10498D01*
X10487Y39881D01*
X10437Y40002D01*
X10357Y40107D01*
X10252Y40187D01*
X10131Y40237D01*
X10050Y40248D01*
D02*
G37*
G36*
X25250Y40346D02*
X25209Y40341D01*
X25123Y40306D01*
X25050Y40250D01*
X24994Y40177D01*
X24959Y40091D01*
X24954Y40050D01*
X25250D01*
Y40346D01*
D02*
G37*
G36*
X20646Y40450D02*
X20350D01*
Y40154D01*
X20391Y40159D01*
X20477Y40194D01*
X20550Y40250D01*
X20606Y40323D01*
X20641Y40409D01*
X20646Y40450D01*
D02*
G37*
G36*
X20250D02*
X19954D01*
X19959Y40409D01*
X19994Y40323D01*
X20050Y40250D01*
X20123Y40194D01*
X20209Y40159D01*
X20250Y40154D01*
Y40450D01*
D02*
G37*
G36*
X25350Y40346D02*
Y40050D01*
X25646D01*
X25641Y40091D01*
X25606Y40177D01*
X25550Y40250D01*
X25477Y40306D01*
X25391Y40341D01*
X25350Y40346D01*
D02*
G37*
G36*
X7450Y42846D02*
X7409Y42841D01*
X7323Y42806D01*
X7250Y42750D01*
X7194Y42677D01*
X7159Y42591D01*
X7154Y42550D01*
X7450D01*
Y42846D01*
D02*
G37*
G36*
X2550D02*
Y42550D01*
X2846D01*
X2841Y42591D01*
X2806Y42677D01*
X2750Y42750D01*
X2677Y42806D01*
X2591Y42841D01*
X2550Y42846D01*
D02*
G37*
G36*
X2450D02*
X2409Y42841D01*
X2323Y42806D01*
X2250Y42750D01*
X2194Y42677D01*
X2159Y42591D01*
X2154Y42550D01*
X2450D01*
Y42846D01*
D02*
G37*
G36*
X7550D02*
Y42550D01*
X7846D01*
X7841Y42591D01*
X7806Y42677D01*
X7750Y42750D01*
X7677Y42806D01*
X7591Y42841D01*
X7550Y42846D01*
D02*
G37*
G36*
X17450D02*
X17409Y42841D01*
X17323Y42806D01*
X17250Y42750D01*
X17194Y42677D01*
X17159Y42591D01*
X17154Y42550D01*
X17450D01*
Y42846D01*
D02*
G37*
G36*
X12550D02*
Y42550D01*
X12846D01*
X12841Y42591D01*
X12806Y42677D01*
X12750Y42750D01*
X12677Y42806D01*
X12591Y42841D01*
X12550Y42846D01*
D02*
G37*
G36*
X12450D02*
X12409Y42841D01*
X12323Y42806D01*
X12250Y42750D01*
X12194Y42677D01*
X12159Y42591D01*
X12154Y42550D01*
X12450D01*
Y42846D01*
D02*
G37*
G36*
X37846Y42450D02*
X37550D01*
Y42154D01*
X37591Y42159D01*
X37677Y42194D01*
X37750Y42250D01*
X37806Y42323D01*
X37841Y42409D01*
X37846Y42450D01*
D02*
G37*
G36*
X27450D02*
X27154D01*
X27159Y42409D01*
X27194Y42323D01*
X27250Y42250D01*
X27323Y42194D01*
X27409Y42159D01*
X27450Y42154D01*
Y42450D01*
D02*
G37*
G36*
X17846D02*
X17550D01*
Y42154D01*
X17591Y42159D01*
X17677Y42194D01*
X17750Y42250D01*
X17806Y42323D01*
X17841Y42409D01*
X17846Y42450D01*
D02*
G37*
G36*
X17450D02*
X17154D01*
X17159Y42409D01*
X17194Y42323D01*
X17250Y42250D01*
X17323Y42194D01*
X17409Y42159D01*
X17450Y42154D01*
Y42450D01*
D02*
G37*
G36*
X27846D02*
X27550D01*
Y42154D01*
X27591Y42159D01*
X27677Y42194D01*
X27750Y42250D01*
X27806Y42323D01*
X27841Y42409D01*
X27846Y42450D01*
D02*
G37*
G36*
X37450D02*
X37154D01*
X37159Y42409D01*
X37194Y42323D01*
X37250Y42250D01*
X37323Y42194D01*
X37409Y42159D01*
X37450Y42154D01*
Y42450D01*
D02*
G37*
G36*
X32846D02*
X32550D01*
Y42154D01*
X32591Y42159D01*
X32677Y42194D01*
X32750Y42250D01*
X32806Y42323D01*
X32841Y42409D01*
X32846Y42450D01*
D02*
G37*
G36*
X32450D02*
X32154D01*
X32159Y42409D01*
X32194Y42323D01*
X32250Y42250D01*
X32323Y42194D01*
X32409Y42159D01*
X32450Y42154D01*
Y42450D01*
D02*
G37*
G36*
X9950Y40248D02*
X9869Y40237D01*
X9748Y40187D01*
X9643Y40107D01*
X9563Y40002D01*
X9513Y39881D01*
X9502Y39800D01*
X9950D01*
Y40248D01*
D02*
G37*
G36*
X23350Y37769D02*
X23312Y37762D01*
X23250Y37720D01*
X23188Y37762D01*
X23150Y37769D01*
Y37550D01*
X23050D01*
Y37769D01*
X23012Y37762D01*
X22938Y37712D01*
X22912D01*
X22838Y37762D01*
X22800Y37769D01*
Y37550D01*
X22700D01*
Y37769D01*
X22662Y37762D01*
X22588Y37712D01*
X22562D01*
X22488Y37762D01*
X22450Y37769D01*
Y37550D01*
X22350D01*
Y37769D01*
X22312Y37762D01*
X22250Y37720D01*
X22188Y37762D01*
X22150Y37769D01*
Y37550D01*
X22100D01*
Y37500D01*
X21881D01*
X21888Y37462D01*
X21938Y37388D01*
Y37362D01*
X21888Y37288D01*
X21881Y37250D01*
X22100D01*
Y37150D01*
X21881D01*
X21888Y37112D01*
X21938Y37038D01*
Y37012D01*
X21888Y36938D01*
X21881Y36900D01*
X22100D01*
Y36850D01*
X22150D01*
Y36631D01*
X22188Y36638D01*
X22250Y36680D01*
X22312Y36638D01*
X22350Y36631D01*
Y36850D01*
X22450D01*
Y36631D01*
X22488Y36638D01*
X22562Y36688D01*
X22588D01*
X22662Y36638D01*
X22700Y36631D01*
Y36850D01*
X22800D01*
Y36631D01*
X22838Y36638D01*
X22912Y36688D01*
X22938D01*
X23012Y36638D01*
X23050Y36631D01*
Y36850D01*
X23150D01*
Y36631D01*
X23188Y36638D01*
X23250Y36680D01*
X23312Y36638D01*
X23350Y36631D01*
Y36850D01*
X23400D01*
Y36900D01*
X23619D01*
X23612Y36938D01*
X23562Y37012D01*
Y37038D01*
X23612Y37112D01*
X23619Y37150D01*
X23400D01*
Y37250D01*
X23619D01*
X23612Y37288D01*
X23562Y37362D01*
Y37388D01*
X23612Y37462D01*
X23619Y37500D01*
X23400D01*
Y37550D01*
X23350D01*
Y37769D01*
D02*
G37*
G36*
X25046Y37900D02*
X24800D01*
Y37654D01*
X24828Y37658D01*
X24901Y37688D01*
X24964Y37736D01*
X25012Y37799D01*
X25042Y37872D01*
X25046Y37900D01*
D02*
G37*
G36*
X24700D02*
X24454D01*
X24458Y37872D01*
X24488Y37799D01*
X24536Y37736D01*
X24599Y37688D01*
X24672Y37658D01*
X24700Y37654D01*
Y37900D01*
D02*
G37*
G36*
X20700Y38246D02*
X20672Y38242D01*
X20599Y38212D01*
X20536Y38164D01*
X20488Y38101D01*
X20458Y38028D01*
X20454Y38000D01*
X20700D01*
Y38246D01*
D02*
G37*
G36*
X24800D02*
Y38000D01*
X25046D01*
X25042Y38028D01*
X25012Y38101D01*
X24964Y38164D01*
X24901Y38212D01*
X24828Y38242D01*
X24800Y38246D01*
D02*
G37*
G36*
X24700D02*
X24672Y38242D01*
X24599Y38212D01*
X24536Y38164D01*
X24488Y38101D01*
X24458Y38028D01*
X24454Y38000D01*
X24700D01*
Y38246D01*
D02*
G37*
G36*
X20800D02*
Y38000D01*
X21046D01*
X21042Y38028D01*
X21012Y38101D01*
X20964Y38164D01*
X20901Y38212D01*
X20828Y38242D01*
X20800Y38246D01*
D02*
G37*
G36*
X21046Y37900D02*
X20800D01*
Y37654D01*
X20828Y37658D01*
X20901Y37688D01*
X20964Y37736D01*
X21012Y37799D01*
X21042Y37872D01*
X21046Y37900D01*
D02*
G37*
G36*
X37450Y37846D02*
X37409Y37841D01*
X37323Y37806D01*
X37250Y37750D01*
X37194Y37677D01*
X37159Y37591D01*
X37154Y37550D01*
X37450D01*
Y37846D01*
D02*
G37*
G36*
X27550D02*
Y37550D01*
X27846D01*
X27841Y37591D01*
X27806Y37677D01*
X27750Y37750D01*
X27677Y37806D01*
X27591Y37841D01*
X27550Y37846D01*
D02*
G37*
G36*
X27450D02*
X27409Y37841D01*
X27323Y37806D01*
X27250Y37750D01*
X27194Y37677D01*
X27159Y37591D01*
X27154Y37550D01*
X27450D01*
Y37846D01*
D02*
G37*
G36*
X37550D02*
Y37550D01*
X37846D01*
X37841Y37591D01*
X37806Y37677D01*
X37750Y37750D01*
X37677Y37806D01*
X37591Y37841D01*
X37550Y37846D01*
D02*
G37*
G36*
X20700Y37900D02*
X20454D01*
X20458Y37872D01*
X20488Y37799D01*
X20536Y37736D01*
X20599Y37688D01*
X20672Y37658D01*
X20700Y37654D01*
Y37900D01*
D02*
G37*
G36*
X23450Y37769D02*
Y37600D01*
X23619D01*
X23612Y37638D01*
X23562Y37712D01*
X23488Y37762D01*
X23450Y37769D01*
D02*
G37*
G36*
X22050D02*
X22012Y37762D01*
X21938Y37712D01*
X21888Y37638D01*
X21881Y37600D01*
X22050D01*
Y37769D01*
D02*
G37*
G36*
X10498Y39700D02*
X10050D01*
Y39252D01*
X10131Y39263D01*
X10252Y39313D01*
X10357Y39393D01*
X10437Y39498D01*
X10487Y39619D01*
X10498Y39700D01*
D02*
G37*
G36*
X9950D02*
X9502D01*
X9513Y39619D01*
X9563Y39498D01*
X9643Y39393D01*
X9748Y39313D01*
X9869Y39263D01*
X9950Y39252D01*
Y39700D01*
D02*
G37*
G36*
X14500Y40254D02*
X14369Y40237D01*
X14248Y40187D01*
X14143Y40107D01*
X14063Y40002D01*
X14013Y39881D01*
X13996Y39750D01*
X14013Y39619D01*
X14063Y39498D01*
X14143Y39393D01*
X14248Y39313D01*
X14369Y39263D01*
X14500Y39246D01*
X14631Y39263D01*
X14752Y39313D01*
X14857Y39393D01*
X14937Y39498D01*
X14987Y39619D01*
X15004Y39750D01*
X14987Y39881D01*
X14937Y40002D01*
X14857Y40107D01*
X14752Y40187D01*
X14631Y40237D01*
X14500Y40254D01*
D02*
G37*
G36*
X32450Y39700D02*
X32002D01*
X32013Y39619D01*
X32063Y39498D01*
X32143Y39393D01*
X32248Y39313D01*
X32369Y39263D01*
X32450Y39252D01*
Y39700D01*
D02*
G37*
G36*
X25646Y39950D02*
X25350D01*
Y39654D01*
X25391Y39659D01*
X25477Y39694D01*
X25550Y39750D01*
X25606Y39823D01*
X25641Y39909D01*
X25646Y39950D01*
D02*
G37*
G36*
X25250D02*
X24954D01*
X24959Y39909D01*
X24994Y39823D01*
X25050Y39750D01*
X25123Y39694D01*
X25209Y39659D01*
X25250Y39654D01*
Y39950D01*
D02*
G37*
G36*
X32998Y39700D02*
X32550D01*
Y39252D01*
X32631Y39263D01*
X32752Y39313D01*
X32857Y39393D01*
X32937Y39498D01*
X32987Y39619D01*
X32998Y39700D01*
D02*
G37*
G36*
X25650Y39346D02*
Y39050D01*
X25946D01*
X25941Y39091D01*
X25906Y39177D01*
X25850Y39250D01*
X25777Y39306D01*
X25691Y39341D01*
X25650Y39346D01*
D02*
G37*
G36*
X25550Y38950D02*
X25254D01*
X25259Y38909D01*
X25294Y38823D01*
X25350Y38750D01*
X25423Y38694D01*
X25509Y38659D01*
X25550Y38654D01*
Y38950D01*
D02*
G37*
G36*
X20246D02*
X19950D01*
Y38654D01*
X19991Y38659D01*
X20077Y38694D01*
X20150Y38750D01*
X20206Y38823D01*
X20241Y38909D01*
X20246Y38950D01*
D02*
G37*
G36*
X19850D02*
X19554D01*
X19559Y38909D01*
X19594Y38823D01*
X19650Y38750D01*
X19723Y38694D01*
X19809Y38659D01*
X19850Y38654D01*
Y38950D01*
D02*
G37*
G36*
X25946D02*
X25650D01*
Y38654D01*
X25691Y38659D01*
X25777Y38694D01*
X25850Y38750D01*
X25906Y38823D01*
X25941Y38909D01*
X25946Y38950D01*
D02*
G37*
G36*
X25550Y39346D02*
X25509Y39341D01*
X25423Y39306D01*
X25350Y39250D01*
X25294Y39177D01*
X25259Y39091D01*
X25254Y39050D01*
X25550D01*
Y39346D01*
D02*
G37*
G36*
X19950D02*
Y39050D01*
X20246D01*
X20241Y39091D01*
X20206Y39177D01*
X20150Y39250D01*
X20077Y39306D01*
X19991Y39341D01*
X19950Y39346D01*
D02*
G37*
G36*
X19850D02*
X19809Y39341D01*
X19723Y39306D01*
X19650Y39250D01*
X19594Y39177D01*
X19559Y39091D01*
X19554Y39050D01*
X19850D01*
Y39346D01*
D02*
G37*
G36*
X32450Y47450D02*
X32154D01*
X32159Y47409D01*
X32194Y47323D01*
X32250Y47250D01*
X32323Y47194D01*
X32409Y47159D01*
X32450Y47154D01*
Y47450D01*
D02*
G37*
G36*
X17846D02*
X17550D01*
Y47154D01*
X17591Y47159D01*
X17677Y47194D01*
X17750Y47250D01*
X17806Y47323D01*
X17841Y47409D01*
X17846Y47450D01*
D02*
G37*
G36*
X17450D02*
X17154D01*
X17159Y47409D01*
X17194Y47323D01*
X17250Y47250D01*
X17323Y47194D01*
X17409Y47159D01*
X17450Y47154D01*
Y47450D01*
D02*
G37*
G36*
X32846D02*
X32550D01*
Y47154D01*
X32591Y47159D01*
X32677Y47194D01*
X32750Y47250D01*
X32806Y47323D01*
X32841Y47409D01*
X32846Y47450D01*
D02*
G37*
G36*
X22700Y47848D02*
X22632Y47841D01*
X22519Y47807D01*
X22415Y47751D01*
X22324Y47676D01*
X22249Y47585D01*
X22193Y47481D01*
X22159Y47368D01*
X22152Y47300D01*
X22700D01*
Y47848D01*
D02*
G37*
G36*
X37846Y47450D02*
X37550D01*
Y47154D01*
X37591Y47159D01*
X37677Y47194D01*
X37750Y47250D01*
X37806Y47323D01*
X37841Y47409D01*
X37846Y47450D01*
D02*
G37*
G36*
X37450D02*
X37154D01*
X37159Y47409D01*
X37194Y47323D01*
X37250Y47250D01*
X37323Y47194D01*
X37409Y47159D01*
X37450Y47154D01*
Y47450D01*
D02*
G37*
G36*
X12846D02*
X12550D01*
Y47154D01*
X12591Y47159D01*
X12677Y47194D01*
X12750Y47250D01*
X12806Y47323D01*
X12841Y47409D01*
X12846Y47450D01*
D02*
G37*
G36*
X2450D02*
X2154D01*
X2159Y47409D01*
X2194Y47323D01*
X2250Y47250D01*
X2323Y47194D01*
X2409Y47159D01*
X2450Y47154D01*
Y47450D01*
D02*
G37*
G36*
X25348Y47200D02*
X24800D01*
Y46652D01*
X24868Y46659D01*
X24981Y46693D01*
X25085Y46749D01*
X25176Y46824D01*
X25251Y46915D01*
X25307Y47019D01*
X25341Y47132D01*
X25348Y47200D01*
D02*
G37*
G36*
X24700D02*
X24152D01*
X24159Y47132D01*
X24193Y47019D01*
X24249Y46915D01*
X24324Y46824D01*
X24415Y46749D01*
X24519Y46693D01*
X24632Y46659D01*
X24700Y46652D01*
Y47200D01*
D02*
G37*
G36*
X2846Y47450D02*
X2550D01*
Y47154D01*
X2591Y47159D01*
X2677Y47194D01*
X2750Y47250D01*
X2806Y47323D01*
X2841Y47409D01*
X2846Y47450D01*
D02*
G37*
G36*
X12450D02*
X12154D01*
X12159Y47409D01*
X12194Y47323D01*
X12250Y47250D01*
X12323Y47194D01*
X12409Y47159D01*
X12450Y47154D01*
Y47450D01*
D02*
G37*
G36*
X7846D02*
X7550D01*
Y47154D01*
X7591Y47159D01*
X7677Y47194D01*
X7750Y47250D01*
X7806Y47323D01*
X7841Y47409D01*
X7846Y47450D01*
D02*
G37*
G36*
X7450D02*
X7154D01*
X7159Y47409D01*
X7194Y47323D01*
X7250Y47250D01*
X7323Y47194D01*
X7409Y47159D01*
X7450Y47154D01*
Y47450D01*
D02*
G37*
G36*
X17550Y47846D02*
Y47550D01*
X17846D01*
X17841Y47591D01*
X17806Y47677D01*
X17750Y47750D01*
X17677Y47806D01*
X17591Y47841D01*
X17550Y47846D01*
D02*
G37*
G36*
X17450D02*
X17409Y47841D01*
X17323Y47806D01*
X17250Y47750D01*
X17194Y47677D01*
X17159Y47591D01*
X17154Y47550D01*
X17450D01*
Y47846D01*
D02*
G37*
G36*
X12550D02*
Y47550D01*
X12846D01*
X12841Y47591D01*
X12806Y47677D01*
X12750Y47750D01*
X12677Y47806D01*
X12591Y47841D01*
X12550Y47846D01*
D02*
G37*
G36*
X32450D02*
X32409Y47841D01*
X32323Y47806D01*
X32250Y47750D01*
X32194Y47677D01*
X32159Y47591D01*
X32154Y47550D01*
X32450D01*
Y47846D01*
D02*
G37*
G36*
X37550D02*
Y47550D01*
X37846D01*
X37841Y47591D01*
X37806Y47677D01*
X37750Y47750D01*
X37677Y47806D01*
X37591Y47841D01*
X37550Y47846D01*
D02*
G37*
G36*
X37450D02*
X37409Y47841D01*
X37323Y47806D01*
X37250Y47750D01*
X37194Y47677D01*
X37159Y47591D01*
X37154Y47550D01*
X37450D01*
Y47846D01*
D02*
G37*
G36*
X32550D02*
Y47550D01*
X32846D01*
X32841Y47591D01*
X32806Y47677D01*
X32750Y47750D01*
X32677Y47806D01*
X32591Y47841D01*
X32550Y47846D01*
D02*
G37*
G36*
X12450D02*
X12409Y47841D01*
X12323Y47806D01*
X12250Y47750D01*
X12194Y47677D01*
X12159Y47591D01*
X12154Y47550D01*
X12450D01*
Y47846D01*
D02*
G37*
G36*
X24800Y47848D02*
Y47300D01*
X25348D01*
X25341Y47368D01*
X25307Y47481D01*
X25251Y47585D01*
X25176Y47676D01*
X25085Y47751D01*
X24981Y47807D01*
X24868Y47841D01*
X24800Y47848D01*
D02*
G37*
G36*
X24700D02*
X24632Y47841D01*
X24519Y47807D01*
X24415Y47751D01*
X24324Y47676D01*
X24249Y47585D01*
X24193Y47481D01*
X24159Y47368D01*
X24152Y47300D01*
X24700D01*
Y47848D01*
D02*
G37*
G36*
X22800D02*
Y47300D01*
X23348D01*
X23341Y47368D01*
X23307Y47481D01*
X23251Y47585D01*
X23176Y47676D01*
X23085Y47751D01*
X22981Y47807D01*
X22868Y47841D01*
X22800Y47848D01*
D02*
G37*
G36*
X2450Y47846D02*
X2409Y47841D01*
X2323Y47806D01*
X2250Y47750D01*
X2194Y47677D01*
X2159Y47591D01*
X2154Y47550D01*
X2450D01*
Y47846D01*
D02*
G37*
G36*
X7550D02*
Y47550D01*
X7846D01*
X7841Y47591D01*
X7806Y47677D01*
X7750Y47750D01*
X7677Y47806D01*
X7591Y47841D01*
X7550Y47846D01*
D02*
G37*
G36*
X7450D02*
X7409Y47841D01*
X7323Y47806D01*
X7250Y47750D01*
X7194Y47677D01*
X7159Y47591D01*
X7154Y47550D01*
X7450D01*
Y47846D01*
D02*
G37*
G36*
X2550D02*
Y47550D01*
X2846D01*
X2841Y47591D01*
X2806Y47677D01*
X2750Y47750D01*
X2677Y47806D01*
X2591Y47841D01*
X2550Y47846D01*
D02*
G37*
G36*
X23348Y47200D02*
X22800D01*
Y46652D01*
X22868Y46659D01*
X22981Y46693D01*
X23085Y46749D01*
X23176Y46824D01*
X23251Y46915D01*
X23307Y47019D01*
X23341Y47132D01*
X23348Y47200D01*
D02*
G37*
G36*
X22150Y43896D02*
Y43600D01*
X22446D01*
X22441Y43641D01*
X22406Y43727D01*
X22350Y43800D01*
X22277Y43856D01*
X22191Y43891D01*
X22150Y43896D01*
D02*
G37*
G36*
X22050D02*
X22009Y43891D01*
X21923Y43856D01*
X21850Y43800D01*
X21794Y43727D01*
X21759Y43641D01*
X21754Y43600D01*
X22050D01*
Y43896D01*
D02*
G37*
G36*
X22446Y43500D02*
X22150D01*
Y43204D01*
X22191Y43209D01*
X22277Y43244D01*
X22350Y43300D01*
X22406Y43373D01*
X22441Y43459D01*
X22446Y43500D01*
D02*
G37*
G36*
X25000Y43950D02*
X24704D01*
X24709Y43909D01*
X24744Y43823D01*
X24800Y43750D01*
X24873Y43694D01*
X24959Y43659D01*
X25000Y43654D01*
Y43950D01*
D02*
G37*
G36*
X25100Y44346D02*
Y44050D01*
X25396D01*
X25391Y44091D01*
X25356Y44177D01*
X25300Y44250D01*
X25227Y44306D01*
X25141Y44341D01*
X25100Y44346D01*
D02*
G37*
G36*
X25000D02*
X24959Y44341D01*
X24873Y44306D01*
X24800Y44250D01*
X24744Y44177D01*
X24709Y44091D01*
X24704Y44050D01*
X25000D01*
Y44346D01*
D02*
G37*
G36*
X25396Y43950D02*
X25100D01*
Y43654D01*
X25141Y43659D01*
X25227Y43694D01*
X25300Y43750D01*
X25356Y43823D01*
X25391Y43909D01*
X25396Y43950D01*
D02*
G37*
G36*
X22050Y43500D02*
X21754D01*
X21759Y43459D01*
X21794Y43373D01*
X21850Y43300D01*
X21923Y43244D01*
X22009Y43209D01*
X22050Y43204D01*
Y43500D01*
D02*
G37*
G36*
X27550Y42846D02*
Y42550D01*
X27846D01*
X27841Y42591D01*
X27806Y42677D01*
X27750Y42750D01*
X27677Y42806D01*
X27591Y42841D01*
X27550Y42846D01*
D02*
G37*
G36*
X27450D02*
X27409Y42841D01*
X27323Y42806D01*
X27250Y42750D01*
X27194Y42677D01*
X27159Y42591D01*
X27154Y42550D01*
X27450D01*
Y42846D01*
D02*
G37*
G36*
X17550D02*
Y42550D01*
X17846D01*
X17841Y42591D01*
X17806Y42677D01*
X17750Y42750D01*
X17677Y42806D01*
X17591Y42841D01*
X17550Y42846D01*
D02*
G37*
G36*
X32450D02*
X32409Y42841D01*
X32323Y42806D01*
X32250Y42750D01*
X32194Y42677D01*
X32159Y42591D01*
X32154Y42550D01*
X32450D01*
Y42846D01*
D02*
G37*
G36*
X37550D02*
Y42550D01*
X37846D01*
X37841Y42591D01*
X37806Y42677D01*
X37750Y42750D01*
X37677Y42806D01*
X37591Y42841D01*
X37550Y42846D01*
D02*
G37*
G36*
X37450D02*
X37409Y42841D01*
X37323Y42806D01*
X37250Y42750D01*
X37194Y42677D01*
X37159Y42591D01*
X37154Y42550D01*
X37450D01*
Y42846D01*
D02*
G37*
G36*
X32550D02*
Y42550D01*
X32846D01*
X32841Y42591D01*
X32806Y42677D01*
X32750Y42750D01*
X32677Y42806D01*
X32591Y42841D01*
X32550Y42846D01*
D02*
G37*
G36*
X27950Y46200D02*
X27502D01*
X27513Y46119D01*
X27563Y45998D01*
X27643Y45893D01*
X27748Y45813D01*
X27869Y45763D01*
X27950Y45752D01*
Y46200D01*
D02*
G37*
G36*
X20000Y46754D02*
X19869Y46737D01*
X19748Y46687D01*
X19643Y46607D01*
X19563Y46502D01*
X19513Y46381D01*
X19496Y46250D01*
X19513Y46119D01*
X19563Y45998D01*
X19643Y45893D01*
X19748Y45813D01*
X19869Y45763D01*
X20000Y45746D01*
X20131Y45763D01*
X20252Y45813D01*
X20357Y45893D01*
X20437Y45998D01*
X20487Y46119D01*
X20504Y46250D01*
X20487Y46381D01*
X20437Y46502D01*
X20357Y46607D01*
X20252Y46687D01*
X20131Y46737D01*
X20000Y46754D01*
D02*
G37*
G36*
X23750Y46830D02*
X23600Y46810D01*
X23460Y46752D01*
X23340Y46660D01*
X23248Y46540D01*
X23190Y46400D01*
X23170Y46250D01*
X23190Y46100D01*
X23248Y45960D01*
X23340Y45840D01*
X23460Y45748D01*
X23600Y45690D01*
X23750Y45670D01*
X23900Y45690D01*
X24040Y45748D01*
X24160Y45840D01*
X24252Y45960D01*
X24310Y46100D01*
X24330Y46250D01*
X24310Y46400D01*
X24252Y46540D01*
X24160Y46660D01*
X24040Y46752D01*
X23900Y46810D01*
X23750Y46830D01*
D02*
G37*
G36*
X28498Y46200D02*
X28050D01*
Y45752D01*
X28131Y45763D01*
X28252Y45813D01*
X28357Y45893D01*
X28437Y45998D01*
X28487Y46119D01*
X28498Y46200D01*
D02*
G37*
G36*
X22700Y47200D02*
X22152D01*
X22159Y47132D01*
X22193Y47019D01*
X22249Y46915D01*
X22324Y46824D01*
X22415Y46749D01*
X22519Y46693D01*
X22632Y46659D01*
X22700Y46652D01*
Y47200D01*
D02*
G37*
G36*
X28050Y46748D02*
Y46300D01*
X28498D01*
X28487Y46381D01*
X28437Y46502D01*
X28357Y46607D01*
X28252Y46687D01*
X28131Y46737D01*
X28050Y46748D01*
D02*
G37*
G36*
X27950D02*
X27869Y46737D01*
X27748Y46687D01*
X27643Y46607D01*
X27563Y46502D01*
X27513Y46381D01*
X27502Y46300D01*
X27950D01*
Y46748D01*
D02*
G37*
G36*
X24800Y45848D02*
Y45300D01*
X25348D01*
X25341Y45368D01*
X25307Y45481D01*
X25251Y45585D01*
X25176Y45676D01*
X25085Y45751D01*
X24981Y45807D01*
X24868Y45841D01*
X24800Y45848D01*
D02*
G37*
G36*
X24700Y45200D02*
X24152D01*
X24159Y45132D01*
X24193Y45019D01*
X24249Y44915D01*
X24324Y44824D01*
X24415Y44749D01*
X24519Y44693D01*
X24632Y44659D01*
X24700Y44652D01*
Y45200D01*
D02*
G37*
G36*
X23348D02*
X22800D01*
Y44652D01*
X22868Y44659D01*
X22981Y44693D01*
X23085Y44749D01*
X23176Y44824D01*
X23251Y44915D01*
X23307Y45019D01*
X23341Y45132D01*
X23348Y45200D01*
D02*
G37*
G36*
X22700D02*
X22152D01*
X22159Y45132D01*
X22193Y45019D01*
X22249Y44915D01*
X22324Y44824D01*
X22415Y44749D01*
X22519Y44693D01*
X22632Y44659D01*
X22700Y44652D01*
Y45200D01*
D02*
G37*
G36*
X25348D02*
X24800D01*
Y44652D01*
X24868Y44659D01*
X24981Y44693D01*
X25085Y44749D01*
X25176Y44824D01*
X25251Y44915D01*
X25307Y45019D01*
X25341Y45132D01*
X25348Y45200D01*
D02*
G37*
G36*
X24700Y45848D02*
X24632Y45841D01*
X24519Y45807D01*
X24415Y45751D01*
X24324Y45676D01*
X24249Y45585D01*
X24193Y45481D01*
X24159Y45368D01*
X24152Y45300D01*
X24700D01*
Y45848D01*
D02*
G37*
G36*
X22800D02*
Y45300D01*
X23348D01*
X23341Y45368D01*
X23307Y45481D01*
X23251Y45585D01*
X23176Y45676D01*
X23085Y45751D01*
X22981Y45807D01*
X22868Y45841D01*
X22800Y45848D01*
D02*
G37*
G36*
X22700D02*
X22632Y45841D01*
X22519Y45807D01*
X22415Y45751D01*
X22324Y45676D01*
X22249Y45585D01*
X22193Y45481D01*
X22159Y45368D01*
X22152Y45300D01*
X22700D01*
Y45848D01*
D02*
G37*
G36*
X33187Y32350D02*
X32850D01*
Y32013D01*
X32902Y32020D01*
X32997Y32059D01*
X33078Y32122D01*
X33141Y32203D01*
X33180Y32298D01*
X33187Y32350D01*
D02*
G37*
G36*
X31950D02*
X31613D01*
X31620Y32298D01*
X31659Y32203D01*
X31722Y32122D01*
X31803Y32059D01*
X31898Y32020D01*
X31950Y32013D01*
Y32350D01*
D02*
G37*
G36*
X36246Y32250D02*
X35950D01*
Y31954D01*
X35991Y31959D01*
X36077Y31994D01*
X36150Y32050D01*
X36206Y32123D01*
X36241Y32209D01*
X36246Y32250D01*
D02*
G37*
G36*
X33650Y32350D02*
X33313D01*
X33320Y32298D01*
X33359Y32203D01*
X33422Y32122D01*
X33503Y32059D01*
X33598Y32020D01*
X33650Y32013D01*
Y32350D01*
D02*
G37*
G36*
X17750Y32446D02*
Y32150D01*
X18046D01*
X18041Y32191D01*
X18006Y32277D01*
X17950Y32350D01*
X17877Y32406D01*
X17791Y32441D01*
X17750Y32446D01*
D02*
G37*
G36*
X17650D02*
X17609Y32441D01*
X17523Y32406D01*
X17450Y32350D01*
X17394Y32277D01*
X17359Y32191D01*
X17354Y32150D01*
X17650D01*
Y32446D01*
D02*
G37*
G36*
X34087Y32350D02*
X33750D01*
Y32013D01*
X33802Y32020D01*
X33897Y32059D01*
X33978Y32122D01*
X34041Y32203D01*
X34080Y32298D01*
X34087Y32350D01*
D02*
G37*
G36*
X35850Y32250D02*
X35554D01*
X35559Y32209D01*
X35594Y32123D01*
X35650Y32050D01*
X35723Y31994D01*
X35809Y31959D01*
X35850Y31954D01*
Y32250D01*
D02*
G37*
G36*
X22800Y30761D02*
Y30465D01*
X23096D01*
X23091Y30506D01*
X23056Y30591D01*
X23000Y30665D01*
X22927Y30721D01*
X22841Y30756D01*
X22800Y30761D01*
D02*
G37*
G36*
X22700D02*
X22659Y30756D01*
X22573Y30721D01*
X22500Y30665D01*
X22444Y30591D01*
X22409Y30506D01*
X22404Y30465D01*
X22700D01*
Y30761D01*
D02*
G37*
G36*
X23096Y30365D02*
X22800D01*
Y30069D01*
X22841Y30074D01*
X22927Y30109D01*
X23000Y30165D01*
X23056Y30238D01*
X23091Y30324D01*
X23096Y30365D01*
D02*
G37*
G36*
X17650Y32050D02*
X17354D01*
X17359Y32009D01*
X17394Y31923D01*
X17450Y31850D01*
X17523Y31794D01*
X17609Y31759D01*
X17650Y31754D01*
Y32050D01*
D02*
G37*
G36*
X31246Y32250D02*
X30950D01*
Y31954D01*
X30991Y31959D01*
X31077Y31994D01*
X31150Y32050D01*
X31206Y32123D01*
X31241Y32209D01*
X31246Y32250D01*
D02*
G37*
G36*
X30850D02*
X30554D01*
X30559Y32209D01*
X30594Y32123D01*
X30650Y32050D01*
X30723Y31994D01*
X30809Y31959D01*
X30850Y31954D01*
Y32250D01*
D02*
G37*
G36*
X18046Y32050D02*
X17750D01*
Y31754D01*
X17791Y31759D01*
X17877Y31794D01*
X17950Y31850D01*
X18006Y31923D01*
X18041Y32009D01*
X18046Y32050D01*
D02*
G37*
G36*
X31950Y32787D02*
X31898Y32780D01*
X31803Y32741D01*
X31722Y32678D01*
X31659Y32597D01*
X31620Y32502D01*
X31613Y32450D01*
X31950D01*
Y32787D01*
D02*
G37*
G36*
X35950Y32646D02*
Y32350D01*
X36246D01*
X36241Y32391D01*
X36206Y32477D01*
X36150Y32550D01*
X36077Y32606D01*
X35991Y32641D01*
X35950Y32646D01*
D02*
G37*
G36*
X35850D02*
X35809Y32641D01*
X35723Y32606D01*
X35650Y32550D01*
X35594Y32477D01*
X35559Y32391D01*
X35554Y32350D01*
X35850D01*
Y32646D01*
D02*
G37*
G36*
X32850Y32787D02*
Y32450D01*
X33187D01*
X33180Y32502D01*
X33141Y32597D01*
X33078Y32678D01*
X32997Y32741D01*
X32902Y32780D01*
X32850Y32787D01*
D02*
G37*
G36*
X2450Y32846D02*
X2409Y32841D01*
X2323Y32806D01*
X2250Y32750D01*
X2194Y32677D01*
X2159Y32591D01*
X2154Y32550D01*
X2450D01*
Y32846D01*
D02*
G37*
G36*
X33750Y32787D02*
Y32450D01*
X34087D01*
X34080Y32502D01*
X34041Y32597D01*
X33978Y32678D01*
X33897Y32741D01*
X33802Y32780D01*
X33750Y32787D01*
D02*
G37*
G36*
X33650D02*
X33598Y32780D01*
X33503Y32741D01*
X33422Y32678D01*
X33359Y32597D01*
X33320Y32502D01*
X33313Y32450D01*
X33650D01*
Y32787D01*
D02*
G37*
G36*
X30950Y32646D02*
Y32350D01*
X31246D01*
X31241Y32391D01*
X31206Y32477D01*
X31150Y32550D01*
X31077Y32606D01*
X30991Y32641D01*
X30950Y32646D01*
D02*
G37*
G36*
X7450Y32450D02*
X7154D01*
X7159Y32409D01*
X7194Y32323D01*
X7250Y32250D01*
X7323Y32194D01*
X7409Y32159D01*
X7450Y32154D01*
Y32450D01*
D02*
G37*
G36*
X2846D02*
X2550D01*
Y32154D01*
X2591Y32159D01*
X2677Y32194D01*
X2750Y32250D01*
X2806Y32323D01*
X2841Y32409D01*
X2846Y32450D01*
D02*
G37*
G36*
X2450D02*
X2154D01*
X2159Y32409D01*
X2194Y32323D01*
X2250Y32250D01*
X2323Y32194D01*
X2409Y32159D01*
X2450Y32154D01*
Y32450D01*
D02*
G37*
G36*
X7846D02*
X7550D01*
Y32154D01*
X7591Y32159D01*
X7677Y32194D01*
X7750Y32250D01*
X7806Y32323D01*
X7841Y32409D01*
X7846Y32450D01*
D02*
G37*
G36*
X30850Y32646D02*
X30809Y32641D01*
X30723Y32606D01*
X30650Y32550D01*
X30594Y32477D01*
X30559Y32391D01*
X30554Y32350D01*
X30850D01*
Y32646D01*
D02*
G37*
G36*
X12846Y32450D02*
X12550D01*
Y32154D01*
X12591Y32159D01*
X12677Y32194D01*
X12750Y32250D01*
X12806Y32323D01*
X12841Y32409D01*
X12846Y32450D01*
D02*
G37*
G36*
X12450D02*
X12154D01*
X12159Y32409D01*
X12194Y32323D01*
X12250Y32250D01*
X12323Y32194D01*
X12409Y32159D01*
X12450Y32154D01*
Y32450D01*
D02*
G37*
G36*
X22700Y30365D02*
X22404D01*
X22409Y30324D01*
X22444Y30238D01*
X22500Y30165D01*
X22573Y30109D01*
X22659Y30074D01*
X22700Y30069D01*
Y30365D01*
D02*
G37*
G36*
X2450Y27846D02*
X2409Y27841D01*
X2323Y27806D01*
X2250Y27750D01*
X2194Y27677D01*
X2159Y27591D01*
X2154Y27550D01*
X2450D01*
Y27846D01*
D02*
G37*
G36*
X19096Y27450D02*
X18800D01*
Y27154D01*
X18841Y27159D01*
X18927Y27194D01*
X19000Y27250D01*
X19056Y27323D01*
X19091Y27409D01*
X19096Y27450D01*
D02*
G37*
G36*
X18700D02*
X18404D01*
X18409Y27409D01*
X18444Y27323D01*
X18500Y27250D01*
X18573Y27194D01*
X18659Y27159D01*
X18700Y27154D01*
Y27450D01*
D02*
G37*
G36*
X2550Y27846D02*
Y27550D01*
X2846D01*
X2841Y27591D01*
X2806Y27677D01*
X2750Y27750D01*
X2677Y27806D01*
X2591Y27841D01*
X2550Y27846D01*
D02*
G37*
G36*
X13700D02*
X13659Y27841D01*
X13573Y27806D01*
X13500Y27750D01*
X13444Y27677D01*
X13409Y27591D01*
X13404Y27550D01*
X13700D01*
Y27846D01*
D02*
G37*
G36*
X7550D02*
Y27550D01*
X7846D01*
X7841Y27591D01*
X7806Y27677D01*
X7750Y27750D01*
X7677Y27806D01*
X7591Y27841D01*
X7550Y27846D01*
D02*
G37*
G36*
X7450D02*
X7409Y27841D01*
X7323Y27806D01*
X7250Y27750D01*
X7194Y27677D01*
X7159Y27591D01*
X7154Y27550D01*
X7450D01*
Y27846D01*
D02*
G37*
G36*
X14096Y27450D02*
X13800D01*
Y27154D01*
X13841Y27159D01*
X13927Y27194D01*
X14000Y27250D01*
X14056Y27323D01*
X14091Y27409D01*
X14096Y27450D01*
D02*
G37*
G36*
X2450D02*
X2154D01*
X2159Y27409D01*
X2194Y27323D01*
X2250Y27250D01*
X2323Y27194D01*
X2409Y27159D01*
X2450Y27154D01*
Y27450D01*
D02*
G37*
G36*
X25900Y27803D02*
X25809Y27791D01*
X25723Y27756D01*
X25650Y27700D01*
X25623Y27664D01*
X25612Y27662D01*
X25538Y27612D01*
X23325Y25400D01*
X23300Y25403D01*
X23209Y25391D01*
X23123Y25356D01*
X23050Y25300D01*
X22994Y25227D01*
X22959Y25141D01*
X22947Y25050D01*
X22959Y24959D01*
X22994Y24873D01*
X23050Y24800D01*
X23123Y24744D01*
X23209Y24709D01*
X23300Y24697D01*
X23391Y24709D01*
X23477Y24744D01*
X23550Y24800D01*
X23606Y24873D01*
X23641Y24959D01*
X23653Y25050D01*
X23650Y25075D01*
X25721Y27146D01*
X25723Y27144D01*
X25809Y27109D01*
X25900Y27097D01*
X25991Y27109D01*
X26077Y27144D01*
X26150Y27200D01*
X26206Y27273D01*
X26241Y27359D01*
X26253Y27450D01*
X26241Y27541D01*
X26206Y27627D01*
X26150Y27700D01*
X26077Y27756D01*
X25991Y27791D01*
X25900Y27803D01*
D02*
G37*
G36*
X9550Y27046D02*
Y26750D01*
X9846D01*
X9841Y26791D01*
X9806Y26877D01*
X9750Y26950D01*
X9677Y27006D01*
X9591Y27041D01*
X9550Y27046D01*
D02*
G37*
G36*
X2846Y27450D02*
X2550D01*
Y27154D01*
X2591Y27159D01*
X2677Y27194D01*
X2750Y27250D01*
X2806Y27323D01*
X2841Y27409D01*
X2846Y27450D01*
D02*
G37*
G36*
X13700D02*
X13404D01*
X13409Y27409D01*
X13444Y27323D01*
X13500Y27250D01*
X13573Y27194D01*
X13659Y27159D01*
X13700Y27154D01*
Y27450D01*
D02*
G37*
G36*
X7846D02*
X7550D01*
Y27154D01*
X7591Y27159D01*
X7677Y27194D01*
X7750Y27250D01*
X7806Y27323D01*
X7841Y27409D01*
X7846Y27450D01*
D02*
G37*
G36*
X7450D02*
X7154D01*
X7159Y27409D01*
X7194Y27323D01*
X7250Y27250D01*
X7323Y27194D01*
X7409Y27159D01*
X7450Y27154D01*
Y27450D01*
D02*
G37*
G36*
X25050Y29096D02*
Y28800D01*
X25346D01*
X25341Y28841D01*
X25306Y28927D01*
X25250Y29000D01*
X25177Y29056D01*
X25091Y29091D01*
X25050Y29096D01*
D02*
G37*
G36*
X24950D02*
X24909Y29091D01*
X24823Y29056D01*
X24750Y29000D01*
X24694Y28927D01*
X24659Y28841D01*
X24654Y28800D01*
X24950D01*
Y29096D01*
D02*
G37*
G36*
X29096Y28700D02*
X28800D01*
Y28404D01*
X28841Y28409D01*
X28927Y28444D01*
X29000Y28500D01*
X29056Y28573D01*
X29091Y28659D01*
X29096Y28700D01*
D02*
G37*
G36*
X28700Y29096D02*
X28659Y29091D01*
X28573Y29056D01*
X28500Y29000D01*
X28444Y28927D01*
X28409Y28841D01*
X28404Y28800D01*
X28700D01*
Y29096D01*
D02*
G37*
G36*
X36600Y30804D02*
X36469Y30787D01*
X36348Y30737D01*
X36243Y30657D01*
X36163Y30552D01*
X36113Y30431D01*
X36096Y30300D01*
X36113Y30169D01*
X36163Y30048D01*
X36243Y29943D01*
X36348Y29863D01*
X36469Y29813D01*
X36600Y29796D01*
X36731Y29813D01*
X36852Y29863D01*
X36957Y29943D01*
X37037Y30048D01*
X37087Y30169D01*
X37104Y30300D01*
X37087Y30431D01*
X37037Y30552D01*
X36957Y30657D01*
X36852Y30737D01*
X36731Y30787D01*
X36600Y30804D01*
D02*
G37*
G36*
X1250Y30504D02*
X1119Y30487D01*
X998Y30437D01*
X893Y30357D01*
X813Y30252D01*
X763Y30131D01*
X746Y30000D01*
X763Y29869D01*
X813Y29748D01*
X893Y29643D01*
X998Y29563D01*
X1119Y29513D01*
X1250Y29496D01*
X1381Y29513D01*
X1502Y29563D01*
X1607Y29643D01*
X1687Y29748D01*
X1737Y29869D01*
X1754Y30000D01*
X1737Y30131D01*
X1687Y30252D01*
X1607Y30357D01*
X1502Y30437D01*
X1381Y30487D01*
X1250Y30504D01*
D02*
G37*
G36*
X28800Y29096D02*
Y28800D01*
X29096D01*
X29091Y28841D01*
X29056Y28927D01*
X29000Y29000D01*
X28927Y29056D01*
X28841Y29091D01*
X28800Y29096D01*
D02*
G37*
G36*
X28700Y28700D02*
X28404D01*
X28409Y28659D01*
X28444Y28573D01*
X28500Y28500D01*
X28573Y28444D01*
X28659Y28409D01*
X28700Y28404D01*
Y28700D01*
D02*
G37*
G36*
X18800Y27846D02*
Y27550D01*
X19096D01*
X19091Y27591D01*
X19056Y27677D01*
X19000Y27750D01*
X18927Y27806D01*
X18841Y27841D01*
X18800Y27846D01*
D02*
G37*
G36*
X18700D02*
X18659Y27841D01*
X18573Y27806D01*
X18500Y27750D01*
X18444Y27677D01*
X18409Y27591D01*
X18404Y27550D01*
X18700D01*
Y27846D01*
D02*
G37*
G36*
X13800D02*
Y27550D01*
X14096D01*
X14091Y27591D01*
X14056Y27677D01*
X14000Y27750D01*
X13927Y27806D01*
X13841Y27841D01*
X13800Y27846D01*
D02*
G37*
G36*
X5000Y32073D02*
X4729Y32055D01*
X4463Y32002D01*
X4207Y31915D01*
X3964Y31795D01*
X3738Y31645D01*
X3534Y31466D01*
X3355Y31262D01*
X3205Y31036D01*
X3085Y30793D01*
X2998Y30537D01*
X2945Y30271D01*
X2927Y30000D01*
X2945Y29729D01*
X2998Y29463D01*
X3085Y29207D01*
X3205Y28964D01*
X3355Y28738D01*
X3534Y28534D01*
X3738Y28355D01*
X3964Y28205D01*
X4207Y28085D01*
X4463Y27998D01*
X4729Y27945D01*
X5000Y27927D01*
X5271Y27945D01*
X5537Y27998D01*
X5793Y28085D01*
X6036Y28205D01*
X6262Y28355D01*
X6466Y28534D01*
X6645Y28738D01*
X6795Y28964D01*
X6915Y29207D01*
X7002Y29463D01*
X7055Y29729D01*
X7073Y30000D01*
X7055Y30271D01*
X7002Y30537D01*
X6915Y30793D01*
X6795Y31036D01*
X6645Y31262D01*
X6466Y31466D01*
X6262Y31645D01*
X6036Y31795D01*
X5793Y31915D01*
X5537Y32002D01*
X5271Y32055D01*
X5000Y32073D01*
D02*
G37*
G36*
X25346Y28700D02*
X25050D01*
Y28404D01*
X25091Y28409D01*
X25177Y28444D01*
X25250Y28500D01*
X25306Y28573D01*
X25341Y28659D01*
X25346Y28700D01*
D02*
G37*
G36*
X24950D02*
X24654D01*
X24659Y28659D01*
X24694Y28573D01*
X24750Y28500D01*
X24823Y28444D01*
X24909Y28409D01*
X24950Y28404D01*
Y28700D01*
D02*
G37*
G36*
X16300Y32053D02*
X16209Y32041D01*
X16123Y32006D01*
X16050Y31950D01*
X15994Y31877D01*
X15959Y31791D01*
X15947Y31700D01*
Y28350D01*
X15959Y28259D01*
X15994Y28173D01*
X16050Y28100D01*
X16123Y28044D01*
X16209Y28009D01*
X16300Y27997D01*
X16391Y28009D01*
X16477Y28044D01*
X16550Y28100D01*
X16606Y28173D01*
X16641Y28259D01*
X16653Y28350D01*
X16653Y28350D01*
X16653Y28350D01*
Y28350D01*
Y31700D01*
X16641Y31791D01*
X16606Y31877D01*
X16550Y31950D01*
X16477Y32006D01*
X16391Y32041D01*
X16300Y32053D01*
D02*
G37*
G36*
X12450Y37450D02*
X12154D01*
X12159Y37409D01*
X12194Y37323D01*
X12250Y37250D01*
X12323Y37194D01*
X12409Y37159D01*
X12450Y37154D01*
Y37450D01*
D02*
G37*
G36*
X7846D02*
X7550D01*
Y37154D01*
X7591Y37159D01*
X7677Y37194D01*
X7750Y37250D01*
X7806Y37323D01*
X7841Y37409D01*
X7846Y37450D01*
D02*
G37*
G36*
X7450D02*
X7154D01*
X7159Y37409D01*
X7194Y37323D01*
X7250Y37250D01*
X7323Y37194D01*
X7409Y37159D01*
X7450Y37154D01*
Y37450D01*
D02*
G37*
G36*
X12846D02*
X12550D01*
Y37154D01*
X12591Y37159D01*
X12677Y37194D01*
X12750Y37250D01*
X12806Y37323D01*
X12841Y37409D01*
X12846Y37450D01*
D02*
G37*
G36*
X27450D02*
X27154D01*
X27159Y37409D01*
X27194Y37323D01*
X27250Y37250D01*
X27323Y37194D01*
X27409Y37159D01*
X27450Y37154D01*
Y37450D01*
D02*
G37*
G36*
X17846D02*
X17550D01*
Y37154D01*
X17591Y37159D01*
X17677Y37194D01*
X17750Y37250D01*
X17806Y37323D01*
X17841Y37409D01*
X17846Y37450D01*
D02*
G37*
G36*
X17450D02*
X17154D01*
X17159Y37409D01*
X17194Y37323D01*
X17250Y37250D01*
X17323Y37194D01*
X17409Y37159D01*
X17450Y37154D01*
Y37450D01*
D02*
G37*
G36*
X2846D02*
X2550D01*
Y37154D01*
X2591Y37159D01*
X2677Y37194D01*
X2750Y37250D01*
X2806Y37323D01*
X2841Y37409D01*
X2846Y37450D01*
D02*
G37*
G36*
X20700Y37150D02*
X20454D01*
X20458Y37122D01*
X20488Y37049D01*
X20536Y36986D01*
X20599Y36938D01*
X20672Y36908D01*
X20700Y36904D01*
Y37150D01*
D02*
G37*
G36*
X24770Y36854D02*
X24730D01*
Y36846D01*
X24770D01*
Y36854D01*
D02*
G37*
G36*
X20770D02*
X20730D01*
Y36846D01*
X20770D01*
Y36854D01*
D02*
G37*
G36*
X21046Y37150D02*
X20800D01*
Y36904D01*
X20828Y36908D01*
X20901Y36938D01*
X20964Y36986D01*
X21012Y37049D01*
X21042Y37122D01*
X21046Y37150D01*
D02*
G37*
G36*
X2450Y37450D02*
X2154D01*
X2159Y37409D01*
X2194Y37323D01*
X2250Y37250D01*
X2323Y37194D01*
X2409Y37159D01*
X2450Y37154D01*
Y37450D01*
D02*
G37*
G36*
X25046Y37150D02*
X24800D01*
Y36904D01*
X24828Y36908D01*
X24901Y36938D01*
X24964Y36986D01*
X25012Y37049D01*
X25042Y37122D01*
X25046Y37150D01*
D02*
G37*
G36*
X24700D02*
X24454D01*
X24458Y37122D01*
X24488Y37049D01*
X24536Y36986D01*
X24599Y36938D01*
X24672Y36908D01*
X24700Y36904D01*
Y37150D01*
D02*
G37*
G36*
X7550Y37846D02*
Y37550D01*
X7846D01*
X7841Y37591D01*
X7806Y37677D01*
X7750Y37750D01*
X7677Y37806D01*
X7591Y37841D01*
X7550Y37846D01*
D02*
G37*
G36*
X7450D02*
X7409Y37841D01*
X7323Y37806D01*
X7250Y37750D01*
X7194Y37677D01*
X7159Y37591D01*
X7154Y37550D01*
X7450D01*
Y37846D01*
D02*
G37*
G36*
X2550D02*
Y37550D01*
X2846D01*
X2841Y37591D01*
X2806Y37677D01*
X2750Y37750D01*
X2677Y37806D01*
X2591Y37841D01*
X2550Y37846D01*
D02*
G37*
G36*
X12450D02*
X12409Y37841D01*
X12323Y37806D01*
X12250Y37750D01*
X12194Y37677D01*
X12159Y37591D01*
X12154Y37550D01*
X12450D01*
Y37846D01*
D02*
G37*
G36*
X17550D02*
Y37550D01*
X17846D01*
X17841Y37591D01*
X17806Y37677D01*
X17750Y37750D01*
X17677Y37806D01*
X17591Y37841D01*
X17550Y37846D01*
D02*
G37*
G36*
X17450D02*
X17409Y37841D01*
X17323Y37806D01*
X17250Y37750D01*
X17194Y37677D01*
X17159Y37591D01*
X17154Y37550D01*
X17450D01*
Y37846D01*
D02*
G37*
G36*
X12550D02*
Y37550D01*
X12846D01*
X12841Y37591D01*
X12806Y37677D01*
X12750Y37750D01*
X12677Y37806D01*
X12591Y37841D01*
X12550Y37846D01*
D02*
G37*
G36*
X2450D02*
X2409Y37841D01*
X2323Y37806D01*
X2250Y37750D01*
X2194Y37677D01*
X2159Y37591D01*
X2154Y37550D01*
X2450D01*
Y37846D01*
D02*
G37*
G36*
X37846Y37450D02*
X37550D01*
Y37154D01*
X37591Y37159D01*
X37677Y37194D01*
X37750Y37250D01*
X37806Y37323D01*
X37841Y37409D01*
X37846Y37450D01*
D02*
G37*
G36*
X37450D02*
X37154D01*
X37159Y37409D01*
X37194Y37323D01*
X37250Y37250D01*
X37323Y37194D01*
X37409Y37159D01*
X37450Y37154D01*
Y37450D01*
D02*
G37*
G36*
X27846D02*
X27550D01*
Y37154D01*
X27591Y37159D01*
X27677Y37194D01*
X27750Y37250D01*
X27806Y37323D01*
X27841Y37409D01*
X27846Y37450D01*
D02*
G37*
G36*
X20700Y37496D02*
X20672Y37492D01*
X20599Y37462D01*
X20536Y37414D01*
X20488Y37351D01*
X20458Y37278D01*
X20454Y37250D01*
X20700D01*
Y37496D01*
D02*
G37*
G36*
X24800D02*
Y37250D01*
X25046D01*
X25042Y37278D01*
X25012Y37351D01*
X24964Y37414D01*
X24901Y37462D01*
X24828Y37492D01*
X24800Y37496D01*
D02*
G37*
G36*
X24700D02*
X24672Y37492D01*
X24599Y37462D01*
X24536Y37414D01*
X24488Y37351D01*
X24458Y37278D01*
X24454Y37250D01*
X24700D01*
Y37496D01*
D02*
G37*
G36*
X20800D02*
Y37250D01*
X21046D01*
X21042Y37278D01*
X21012Y37351D01*
X20964Y37414D01*
X20901Y37462D01*
X20828Y37492D01*
X20800Y37496D01*
D02*
G37*
G36*
X23619Y36800D02*
X23450D01*
Y36631D01*
X23488Y36638D01*
X23562Y36688D01*
X23612Y36762D01*
X23619Y36800D01*
D02*
G37*
G36*
X19400Y34700D02*
X19104D01*
X19109Y34659D01*
X19144Y34573D01*
X19200Y34500D01*
X19273Y34444D01*
X19359Y34409D01*
X19400Y34404D01*
Y34700D01*
D02*
G37*
G36*
X17750Y33346D02*
Y33050D01*
X18046D01*
X18041Y33091D01*
X18006Y33177D01*
X17950Y33250D01*
X17877Y33306D01*
X17791Y33341D01*
X17750Y33346D01*
D02*
G37*
G36*
X17650D02*
X17609Y33341D01*
X17523Y33306D01*
X17450Y33250D01*
X17394Y33177D01*
X17359Y33091D01*
X17354Y33050D01*
X17650D01*
Y33346D01*
D02*
G37*
G36*
X19796Y34700D02*
X19500D01*
Y34404D01*
X19541Y34409D01*
X19627Y34444D01*
X19700Y34500D01*
X19756Y34573D01*
X19791Y34659D01*
X19796Y34700D01*
D02*
G37*
G36*
X25550Y35350D02*
X25254D01*
X25259Y35309D01*
X25294Y35223D01*
X25350Y35150D01*
X25423Y35094D01*
X25509Y35059D01*
X25550Y35054D01*
Y35350D01*
D02*
G37*
G36*
X20246D02*
X19950D01*
Y35054D01*
X19991Y35059D01*
X20077Y35094D01*
X20150Y35150D01*
X20206Y35223D01*
X20241Y35309D01*
X20246Y35350D01*
D02*
G37*
G36*
X19400Y35096D02*
X19359Y35091D01*
X19273Y35056D01*
X19200Y35000D01*
X19144Y34927D01*
X19109Y34841D01*
X19104Y34800D01*
X19400D01*
Y35096D01*
D02*
G37*
G36*
X18046Y32950D02*
X17750D01*
Y32654D01*
X17791Y32659D01*
X17877Y32694D01*
X17950Y32750D01*
X18006Y32823D01*
X18041Y32909D01*
X18046Y32950D01*
D02*
G37*
G36*
X7550Y32846D02*
Y32550D01*
X7846D01*
X7841Y32591D01*
X7806Y32677D01*
X7750Y32750D01*
X7677Y32806D01*
X7591Y32841D01*
X7550Y32846D01*
D02*
G37*
G36*
X7450D02*
X7409Y32841D01*
X7323Y32806D01*
X7250Y32750D01*
X7194Y32677D01*
X7159Y32591D01*
X7154Y32550D01*
X7450D01*
Y32846D01*
D02*
G37*
G36*
X2550D02*
Y32550D01*
X2846D01*
X2841Y32591D01*
X2806Y32677D01*
X2750Y32750D01*
X2677Y32806D01*
X2591Y32841D01*
X2550Y32846D01*
D02*
G37*
G36*
X12450D02*
X12409Y32841D01*
X12323Y32806D01*
X12250Y32750D01*
X12194Y32677D01*
X12159Y32591D01*
X12154Y32550D01*
X12450D01*
Y32846D01*
D02*
G37*
G36*
X17650Y32950D02*
X17354D01*
X17359Y32909D01*
X17394Y32823D01*
X17450Y32750D01*
X17523Y32694D01*
X17609Y32659D01*
X17650Y32654D01*
Y32950D01*
D02*
G37*
G36*
X32750Y32787D02*
X32698Y32780D01*
X32603Y32741D01*
X32522Y32678D01*
X32459Y32597D01*
X32450Y32574D01*
X32350D01*
X32341Y32597D01*
X32278Y32678D01*
X32197Y32741D01*
X32102Y32780D01*
X32050Y32787D01*
Y32400D01*
Y32013D01*
X32102Y32020D01*
X32197Y32059D01*
X32278Y32122D01*
X32341Y32203D01*
X32350Y32226D01*
X32450D01*
X32459Y32203D01*
X32522Y32122D01*
X32603Y32059D01*
X32698Y32020D01*
X32750Y32013D01*
Y32400D01*
Y32787D01*
D02*
G37*
G36*
X12550Y32846D02*
Y32550D01*
X12846D01*
X12841Y32591D01*
X12806Y32677D01*
X12750Y32750D01*
X12677Y32806D01*
X12591Y32841D01*
X12550Y32846D01*
D02*
G37*
G36*
X20700Y36796D02*
X20672Y36792D01*
X20599Y36762D01*
X20536Y36714D01*
X20488Y36651D01*
X20458Y36578D01*
X20454Y36550D01*
X20700D01*
Y36796D01*
D02*
G37*
G36*
X25046Y36450D02*
X24800D01*
Y36204D01*
X24828Y36208D01*
X24901Y36238D01*
X24964Y36286D01*
X25012Y36349D01*
X25042Y36422D01*
X25046Y36450D01*
D02*
G37*
G36*
X24700D02*
X24454D01*
X24458Y36422D01*
X24488Y36349D01*
X24536Y36286D01*
X24599Y36238D01*
X24672Y36208D01*
X24700Y36204D01*
Y36450D01*
D02*
G37*
G36*
X20800Y36796D02*
Y36550D01*
X21046D01*
X21042Y36578D01*
X21012Y36651D01*
X20964Y36714D01*
X20901Y36762D01*
X20828Y36792D01*
X20800Y36796D01*
D02*
G37*
G36*
X22050Y36800D02*
X21881D01*
X21888Y36762D01*
X21938Y36688D01*
X22012Y36638D01*
X22050Y36631D01*
Y36800D01*
D02*
G37*
G36*
X24800Y36796D02*
Y36550D01*
X25046D01*
X25042Y36578D01*
X25012Y36651D01*
X24964Y36714D01*
X24901Y36762D01*
X24828Y36792D01*
X24800Y36796D01*
D02*
G37*
G36*
X24700D02*
X24672Y36792D01*
X24599Y36762D01*
X24536Y36714D01*
X24488Y36651D01*
X24458Y36578D01*
X24454Y36550D01*
X24700D01*
Y36796D01*
D02*
G37*
G36*
X21046Y36450D02*
X20800D01*
Y36204D01*
X20828Y36208D01*
X20901Y36238D01*
X20964Y36286D01*
X21012Y36349D01*
X21042Y36422D01*
X21046Y36450D01*
D02*
G37*
G36*
X19850Y35746D02*
X19809Y35741D01*
X19723Y35706D01*
X19650Y35650D01*
X19594Y35577D01*
X19559Y35491D01*
X19554Y35450D01*
X19850D01*
Y35746D01*
D02*
G37*
G36*
Y35350D02*
X19554D01*
X19559Y35309D01*
X19594Y35223D01*
X19650Y35150D01*
X19649Y35149D01*
X19589Y35071D01*
X19541Y35091D01*
X19500Y35096D01*
Y34800D01*
X19796D01*
X19791Y34841D01*
X19756Y34927D01*
X19700Y35000D01*
X19700Y35000D01*
D01*
X19761Y35079D01*
X19809Y35059D01*
X19850Y35054D01*
Y35350D01*
D02*
G37*
G36*
X25946D02*
X25650D01*
Y35054D01*
X25691Y35059D01*
X25777Y35094D01*
X25850Y35150D01*
X25906Y35223D01*
X25941Y35309D01*
X25946Y35350D01*
D02*
G37*
G36*
X19950Y35746D02*
Y35450D01*
X20246D01*
X20241Y35491D01*
X20206Y35577D01*
X20150Y35650D01*
X20077Y35706D01*
X19991Y35741D01*
X19950Y35746D01*
D02*
G37*
G36*
X20700Y36450D02*
X20454D01*
X20458Y36422D01*
X20488Y36349D01*
X20536Y36286D01*
X20599Y36238D01*
X20672Y36208D01*
X20700Y36204D01*
Y36450D01*
D02*
G37*
G36*
X25650Y35746D02*
Y35450D01*
X25946D01*
X25941Y35491D01*
X25906Y35577D01*
X25850Y35650D01*
X25777Y35706D01*
X25691Y35741D01*
X25650Y35746D01*
D02*
G37*
G36*
X25550D02*
X25509Y35741D01*
X25423Y35706D01*
X25350Y35650D01*
X25294Y35577D01*
X25259Y35491D01*
X25254Y35450D01*
X25550D01*
Y35746D01*
D02*
G37*
%LPD*%
D21*
X23300Y25050D02*
X25700Y27450D01*
X25900D01*
D22*
X16300Y28350D02*
Y31700D01*
D23*
X5000Y15000D02*
Y18000D01*
Y15000D02*
X8000D01*
X5000Y11500D02*
Y15000D01*
X2500D02*
X5000D01*
D26*
X36600Y30300D02*
D03*
Y19300D02*
D03*
X10000Y39750D02*
D03*
X32600Y8000D02*
D03*
X32500Y39750D02*
D03*
X10000Y7900D02*
D03*
X14500Y39750D02*
D03*
X1250Y15000D02*
D03*
Y30000D02*
D03*
X20000Y46250D02*
D03*
X28000D02*
D03*
D27*
X5000Y15000D02*
D03*
Y30000D02*
D03*
D28*
X36600Y25800D02*
D03*
D29*
Y23800D02*
D03*
D30*
X22750Y45250D02*
D03*
X24750D02*
D03*
Y47250D02*
D03*
X22750D02*
D03*
D31*
X23750Y46250D02*
D03*
D32*
X25400Y21100D02*
D03*
X20300Y40500D02*
D03*
X25600Y16400D02*
D03*
Y20000D02*
D03*
X19900D02*
D03*
X22950Y11265D02*
D03*
X17600Y13100D02*
D03*
Y14100D02*
D03*
X17400Y18550D02*
D03*
X17800Y19650D02*
D03*
X19900Y16400D02*
D03*
X18600Y22650D02*
D03*
X22750Y30415D02*
D03*
X25600Y35400D02*
D03*
X25300Y40000D02*
D03*
X25600Y39000D02*
D03*
X17700Y32100D02*
D03*
Y33000D02*
D03*
X19900Y35400D02*
D03*
Y39000D02*
D03*
X9500Y26700D02*
D03*
X8500D02*
D03*
X13000Y22850D02*
D03*
Y23850D02*
D03*
X5000Y25200D02*
D03*
X37500Y42500D02*
D03*
Y37500D02*
D03*
X35900Y32300D02*
D03*
X36100Y17300D02*
D03*
X37500Y12500D02*
D03*
Y7500D02*
D03*
Y2500D02*
D03*
X32500Y42500D02*
D03*
X30900Y32300D02*
D03*
Y17300D02*
D03*
X32500Y12500D02*
D03*
Y2500D02*
D03*
X27500Y42500D02*
D03*
Y37500D02*
D03*
Y22500D02*
D03*
Y12500D02*
D03*
Y7500D02*
D03*
Y2500D02*
D03*
X22100Y43550D02*
D03*
X22500Y7500D02*
D03*
Y2500D02*
D03*
X17500Y42500D02*
D03*
Y37500D02*
D03*
Y7500D02*
D03*
Y2500D02*
D03*
X12500Y42500D02*
D03*
Y37500D02*
D03*
Y7500D02*
D03*
Y2500D02*
D03*
X7500Y42500D02*
D03*
Y37500D02*
D03*
Y32500D02*
D03*
Y27500D02*
D03*
Y22500D02*
D03*
Y17500D02*
D03*
Y12500D02*
D03*
Y7500D02*
D03*
Y2500D02*
D03*
X2500D02*
D03*
Y12500D02*
D03*
X2400Y7400D02*
D03*
X2500Y17500D02*
D03*
Y22500D02*
D03*
Y27500D02*
D03*
Y32500D02*
D03*
Y37500D02*
D03*
Y42500D02*
D03*
X37500Y47500D02*
D03*
X32500D02*
D03*
X17500D02*
D03*
X12500D02*
D03*
X7500D02*
D03*
X2500D02*
D03*
X18750Y27500D02*
D03*
X13750D02*
D03*
Y17500D02*
D03*
X25000Y28750D02*
D03*
X28750D02*
D03*
X12500Y32500D02*
D03*
X25050Y44000D02*
D03*
X25900Y27450D02*
D03*
X23300Y25050D02*
D03*
X16300Y31700D02*
D03*
Y28350D02*
D03*
X19450Y15700D02*
D03*
Y34750D02*
D03*
X22400Y23000D02*
D03*
X21750D02*
D03*
X28750Y20000D02*
D03*
D33*
X24750Y36500D02*
D03*
Y37200D02*
D03*
Y37950D02*
D03*
X20750Y36500D02*
D03*
Y37200D02*
D03*
Y37950D02*
D03*
X24750Y17500D02*
D03*
Y18200D02*
D03*
Y18950D02*
D03*
X20750Y17500D02*
D03*
Y18200D02*
D03*
Y18950D02*
D03*
D34*
X22100Y36850D02*
D03*
Y37200D02*
D03*
Y37550D02*
D03*
X23400Y36850D02*
D03*
Y37200D02*
D03*
Y37550D02*
D03*
X23100Y36850D02*
D03*
X22750D02*
D03*
X22400D02*
D03*
Y37200D02*
D03*
Y37550D02*
D03*
X22750D02*
D03*
X23100D02*
D03*
Y37200D02*
D03*
X22750D02*
D03*
X22100Y17850D02*
D03*
Y18200D02*
D03*
Y18550D02*
D03*
X23400Y17850D02*
D03*
Y18200D02*
D03*
Y18550D02*
D03*
X23100Y17850D02*
D03*
X22750D02*
D03*
X22400D02*
D03*
Y18200D02*
D03*
Y18550D02*
D03*
X22750D02*
D03*
X23100D02*
D03*
Y18200D02*
D03*
X22750D02*
D03*
D35*
X32800Y17000D02*
D03*
X33600D02*
D03*
X32000D02*
D03*
X33700Y32400D02*
D03*
X32000D02*
D03*
X32800D02*
D03*
M02*
