M48
;Layer_Color=9474304
;FILE_FORMAT=2:4
INCH,LZ
;TYPE=PLATED
T1F00S00C0.0150
T2F00S00C0.0200
T3F00S00C0.0250
T4F00S00C0.0280
T5F00S00C0.0400
T6F00S00C0.0512
T7F00S00C0.0620
T8F00S00C0.0670
T9F00S00C0.2146
%
T01
X0221Y01785
X0224
X02275
X0231
X0234
Y0182
X0231
Y01855
X0234
X02275
X0224
X0221
Y0182
X0224
X02275
Y03685
X0231
X0234
X0224
X0221
Y0372
X0224
Y03755
X0221
X02275
X0231
X0234
Y0372
X0231
X02275
T02
X02475Y0175
Y0182
Y01895
X02075
Y0182
Y0175
Y0365
X02475
Y0372
Y03795
X02075
Y0372
T03
X032Y017
X0328
X0336
X0337Y0324
X0328
X032
T04
X0025Y0025
X0075
X0125
X0175
X0225
X0275
X0325
X0375
Y0075
Y0125
X0325
X0275
Y0075
X0225
X02295Y011265
X0256Y0164
Y02
X0254Y0211
X02875Y02
X0309Y0173
X0361
X0199Y0164
X01945Y0157
X0176Y0141
Y0131
X0174Y01855
X0178Y01965
X0199Y02
X01375Y0175
X0075
Y0125
Y0075
X0125
X0175
X0024Y0074
X0025Y0125
Y0175
Y0225
Y0275
X005Y0252
X0025Y0325
X0075
Y0275
X0085Y0267
X0095
X01375Y0275
X0163Y02835
X01875Y0275
X0186Y02265
X013Y02285
Y02385
X0075Y0225
X0125Y0325
X0163Y0317
X0177Y0321
Y033
X01945Y03475
X0199Y0354
X0256
X025Y02875
X0259Y02745
X02875Y02875
X0309Y0323
X0359
X02275Y030415
X0233Y02505
X0224Y023
X02175
X0275Y0225
X0375Y0375
Y0425
Y0475
X0325
Y0425
X0275
X02505Y044
X0221Y04355
X0253Y04
X0256Y039
X0275Y0375
X0199Y039
X0203Y0405
X0175Y0425
Y0375
X0125
Y0425
X0075
Y0375
Y0475
X0125
X0175
X0025
Y0425
Y0375
T05
X0326Y008
X0366Y0193
X01Y0079
X00125Y015
Y03
X0366Y0303
X0325Y03975
X028Y04625
X02
X0145Y03975
X01
T06
X0366Y0238
Y0258
T07
X02375Y04625
T08
X02275Y04525
X02475
Y04725
X02275
T09
X005Y015
Y03
M30
