%TF.GenerationSoftware,KiCad,Pcbnew,8.0.3*%
%TF.CreationDate,2025-01-25T16:13:06+05:30*%
%TF.ProjectId,TRNG_surrogate_digital_control,54524e47-5f73-4757-9272-6f676174655f,rev?*%
%TF.SameCoordinates,Original*%
%TF.FileFunction,Soldermask,Bot*%
%TF.FilePolarity,Negative*%
%FSLAX46Y46*%
G04 Gerber Fmt 4.6, Leading zero omitted, Abs format (unit mm)*
G04 Created by KiCad (PCBNEW 8.0.3) date 2025-01-25 16:13:06*
%MOMM*%
%LPD*%
G01*
G04 APERTURE LIST*
G04 Aperture macros list*
%AMRoundRect*
0 Rectangle with rounded corners*
0 $1 Rounding radius*
0 $2 $3 $4 $5 $6 $7 $8 $9 X,Y pos of 4 corners*
0 Add a 4 corners polygon primitive as box body*
4,1,4,$2,$3,$4,$5,$6,$7,$8,$9,$2,$3,0*
0 Add four circle primitives for the rounded corners*
1,1,$1+$1,$2,$3*
1,1,$1+$1,$4,$5*
1,1,$1+$1,$6,$7*
1,1,$1+$1,$8,$9*
0 Add four rect primitives between the rounded corners*
20,1,$1+$1,$2,$3,$4,$5,0*
20,1,$1+$1,$4,$5,$6,$7,0*
20,1,$1+$1,$6,$7,$8,$9,0*
20,1,$1+$1,$8,$9,$2,$3,0*%
G04 Aperture macros list end*
%ADD10C,1.600000*%
%ADD11O,1.600000X1.600000*%
%ADD12R,1.800000X1.800000*%
%ADD13O,1.800000X1.800000*%
%ADD14R,1.600000X1.600000*%
%ADD15R,2.600000X2.600000*%
%ADD16C,2.600000*%
%ADD17R,1.300000X1.300000*%
%ADD18C,1.300000*%
%ADD19R,1.700000X1.700000*%
%ADD20O,1.700000X1.700000*%
%ADD21O,1.600000X2.500000*%
%ADD22O,3.500000X7.000000*%
%ADD23RoundRect,0.102000X-0.765000X-0.765000X0.765000X-0.765000X0.765000X0.765000X-0.765000X0.765000X0*%
%ADD24C,1.734000*%
G04 APERTURE END LIST*
D10*
%TO.C,R15*%
X119750000Y-133250000D03*
D11*
X132450000Y-133250000D03*
%TD*%
D10*
%TO.C,R19*%
X137850000Y-111760000D03*
D11*
X137850000Y-124460000D03*
%TD*%
D12*
%TO.C,D4*%
X142540000Y-130250000D03*
D13*
X150160000Y-130250000D03*
%TD*%
D12*
%TO.C,D1*%
X149660000Y-103500000D03*
D13*
X142040000Y-103500000D03*
%TD*%
D14*
%TO.C,Multiplier1*%
X121200000Y-80285000D03*
D11*
X121200000Y-82825000D03*
X121200000Y-85365000D03*
X121200000Y-87905000D03*
X121200000Y-90445000D03*
X121200000Y-92985000D03*
X121200000Y-95525000D03*
X128820000Y-95525000D03*
X128820000Y-92985000D03*
X128820000Y-90445000D03*
X128820000Y-87905000D03*
X128820000Y-85365000D03*
X128820000Y-82825000D03*
X128820000Y-80285000D03*
%TD*%
D14*
%TO.C,U2*%
X96730000Y-122630000D03*
D11*
X96730000Y-125170000D03*
X96730000Y-127710000D03*
X96730000Y-130250000D03*
X104350000Y-130250000D03*
X104350000Y-127710000D03*
X104350000Y-125170000D03*
X104350000Y-122630000D03*
%TD*%
D10*
%TO.C,R5*%
X110250000Y-134100000D03*
D11*
X110250000Y-121400000D03*
%TD*%
D10*
%TO.C,R12*%
X133100000Y-96610000D03*
D11*
X133100000Y-109310000D03*
%TD*%
D12*
%TO.C,D2*%
X139410000Y-128250000D03*
D13*
X131790000Y-128250000D03*
%TD*%
D10*
%TO.C,R9*%
X133350000Y-93810000D03*
D11*
X133350000Y-81110000D03*
%TD*%
D15*
%TO.C,J1*%
X103010000Y-67500000D03*
D16*
X97930000Y-67500000D03*
X92850000Y-67500000D03*
%TD*%
D14*
%TO.C,U6*%
X120730000Y-121500000D03*
D11*
X120730000Y-124040000D03*
X120730000Y-126580000D03*
X120730000Y-129120000D03*
X128350000Y-129120000D03*
X128350000Y-126580000D03*
X128350000Y-124040000D03*
X128350000Y-121500000D03*
%TD*%
D14*
%TO.C,Multiplier2*%
X120730000Y-100750000D03*
D11*
X120730000Y-103290000D03*
X120730000Y-105830000D03*
X120730000Y-108370000D03*
X120730000Y-110910000D03*
X120730000Y-113450000D03*
X120730000Y-115990000D03*
X128350000Y-115990000D03*
X128350000Y-113450000D03*
X128350000Y-110910000D03*
X128350000Y-108370000D03*
X128350000Y-105830000D03*
X128350000Y-103290000D03*
X128350000Y-100750000D03*
%TD*%
D17*
%TO.C,Q1*%
X166850000Y-65960000D03*
D18*
X165580000Y-67230000D03*
X164310000Y-65960000D03*
%TD*%
D19*
%TO.C,J2*%
X173600000Y-63800000D03*
D20*
X173600000Y-66340000D03*
X173600000Y-68880000D03*
X173600000Y-71420000D03*
X173600000Y-73960000D03*
%TD*%
D19*
%TO.C,J3*%
X180600000Y-74000000D03*
D20*
X180600000Y-71460000D03*
X180600000Y-68920000D03*
X180600000Y-66380000D03*
X180600000Y-63840000D03*
%TD*%
D14*
%TO.C,U3*%
X138480000Y-82340000D03*
D11*
X138480000Y-84880000D03*
X138480000Y-87420000D03*
X138480000Y-89960000D03*
X146100000Y-89960000D03*
X146100000Y-87420000D03*
X146100000Y-84880000D03*
X146100000Y-82340000D03*
%TD*%
D12*
%TO.C,D5*%
X142290000Y-113750000D03*
D13*
X149910000Y-113750000D03*
%TD*%
D10*
%TO.C,R18*%
X137150000Y-108250000D03*
D11*
X149850000Y-108250000D03*
%TD*%
D12*
%TO.C,D6*%
X149850000Y-119250000D03*
D13*
X142230000Y-119250000D03*
%TD*%
D10*
%TO.C,C2*%
X98500000Y-78500000D03*
X91000000Y-78500000D03*
%TD*%
%TO.C,R16*%
X133100000Y-111910000D03*
D11*
X133100000Y-124610000D03*
%TD*%
D10*
%TO.C,R7*%
X150100000Y-94500000D03*
D11*
X137400000Y-94500000D03*
%TD*%
D10*
%TO.C,R8*%
X149700000Y-99250000D03*
D11*
X137000000Y-99250000D03*
%TD*%
D21*
%TO.C,Modulating_signal*%
X115595000Y-73580000D03*
D22*
X110515000Y-68500000D03*
D21*
X113055000Y-73580000D03*
D22*
X120675000Y-68500000D03*
%TD*%
D10*
%TO.C,R6*%
X150350000Y-90850000D03*
D11*
X150350000Y-78150000D03*
%TD*%
D14*
%TO.C,U1*%
X96730000Y-106750000D03*
D11*
X96730000Y-109290000D03*
X96730000Y-111830000D03*
X96730000Y-114370000D03*
X104350000Y-114370000D03*
X104350000Y-111830000D03*
X104350000Y-109290000D03*
X104350000Y-106750000D03*
%TD*%
D10*
%TO.C,R3*%
X110025000Y-116660000D03*
D11*
X110025000Y-103960000D03*
%TD*%
D10*
%TO.C,R17*%
X103700000Y-84275000D03*
D11*
X91000000Y-84275000D03*
%TD*%
D10*
%TO.C,R14*%
X115600000Y-121550000D03*
D11*
X115600000Y-134250000D03*
%TD*%
D10*
%TO.C,R11*%
X103700000Y-89200000D03*
D11*
X91000000Y-89200000D03*
%TD*%
D21*
%TO.C,Vout*%
X151770000Y-73580000D03*
D22*
X146690000Y-68500000D03*
D21*
X149230000Y-73580000D03*
D22*
X156850000Y-68500000D03*
%TD*%
D10*
%TO.C,R2*%
X91000000Y-99500000D03*
D11*
X103700000Y-99500000D03*
%TD*%
D10*
%TO.C,C1*%
X169100000Y-73960000D03*
X161600000Y-73960000D03*
%TD*%
%TO.C,R4*%
X91850000Y-121050000D03*
D11*
X91850000Y-133750000D03*
%TD*%
D14*
%TO.C,U5*%
X108635000Y-79580000D03*
D11*
X108635000Y-82120000D03*
X108635000Y-84660000D03*
X108635000Y-87200000D03*
X116255000Y-87200000D03*
X116255000Y-84660000D03*
X116255000Y-82120000D03*
X116255000Y-79580000D03*
%TD*%
D14*
%TO.C,U7*%
X109080000Y-92480000D03*
D11*
X109080000Y-95020000D03*
X109080000Y-97560000D03*
X109080000Y-100100000D03*
X116700000Y-100100000D03*
X116700000Y-97560000D03*
X116700000Y-95020000D03*
X116700000Y-92480000D03*
%TD*%
D10*
%TO.C,R13*%
X115375000Y-104060000D03*
D11*
X115375000Y-116760000D03*
%TD*%
D12*
%TO.C,D3*%
X149850000Y-124750000D03*
D13*
X142230000Y-124750000D03*
%TD*%
D21*
%TO.C,Noise*%
X134170000Y-73580000D03*
D22*
X129090000Y-68500000D03*
D21*
X131630000Y-73580000D03*
D22*
X139250000Y-68500000D03*
%TD*%
D23*
%TO.C,U4*%
X155600000Y-87070000D03*
D24*
X155600000Y-89610000D03*
X155600000Y-92150000D03*
X155600000Y-94690000D03*
X155600000Y-97230000D03*
X155600000Y-99770000D03*
X155600000Y-102310000D03*
X155600000Y-104850000D03*
X155600000Y-107390000D03*
X155600000Y-109930000D03*
X155600000Y-112470000D03*
X155600000Y-115010000D03*
X155600000Y-117550000D03*
X155600000Y-120090000D03*
X155600000Y-122630000D03*
X155600000Y-125170000D03*
X155600000Y-127710000D03*
X155600000Y-130250000D03*
X155600000Y-132790000D03*
X181000000Y-132790000D03*
X181000000Y-130250000D03*
X181000000Y-127710000D03*
X181000000Y-125170000D03*
X181000000Y-122630000D03*
X181000000Y-120090000D03*
X181000000Y-117550000D03*
X181000000Y-115010000D03*
X181000000Y-112470000D03*
X181000000Y-109930000D03*
X181000000Y-107390000D03*
X181000000Y-104850000D03*
X181000000Y-102310000D03*
X181000000Y-99770000D03*
X181000000Y-97230000D03*
X181000000Y-94690000D03*
X181000000Y-92150000D03*
X181000000Y-89610000D03*
X181000000Y-87070000D03*
%TD*%
D10*
%TO.C,R10*%
X103700000Y-94500000D03*
D11*
X91000000Y-94500000D03*
%TD*%
D10*
%TO.C,R1*%
X92000000Y-117250000D03*
D11*
X92000000Y-104550000D03*
%TD*%
M02*
