M48
; DRILL file {KiCad 8.0.3} date 2025-01-25T16:13:10+0530
; FORMAT={-:-/ absolute / metric / decimal}
; #@! TF.CreationDate,2025-01-25T16:13:10+05:30
; #@! TF.GenerationSoftware,Kicad,Pcbnew,8.0.3
; #@! TF.FileFunction,Plated,1,2,PTH
FMAT,2
METRIC
; #@! TA.AperFunction,Plated,PTH,ViaDrill
T1C0.300
; #@! TA.AperFunction,Plated,PTH,ViaDrill
T2C0.500
; #@! TA.AperFunction,Plated,PTH,ComponentDrill
T3C0.750
; #@! TA.AperFunction,Plated,PTH,ComponentDrill
T4C0.800
; #@! TA.AperFunction,Plated,PTH,ComponentDrill
T5C0.890
; #@! TA.AperFunction,Plated,PTH,ComponentDrill
T6C0.900
; #@! TA.AperFunction,Plated,PTH,ComponentDrill
T7C1.000
; #@! TA.AperFunction,Plated,PTH,ComponentDrill
T8C1.020
; #@! TA.AperFunction,Plated,PTH,ComponentDrill
T9C1.300
; #@! TA.AperFunction,Plated,PTH,ComponentDrill
T10C2.010
%
G90
G05
T1
X134.85Y-78.25
T2
X100.35Y-133.25
X102.35Y-79.25
T3
X164.31Y-65.96
X165.58Y-67.23
X166.85Y-65.96
T4
X91.0Y-78.5
X91.0Y-84.275
X91.0Y-89.2
X91.0Y-94.5
X91.0Y-99.5
X91.85Y-121.05
X91.85Y-133.75
X92.0Y-104.55
X92.0Y-117.25
X96.73Y-106.75
X96.73Y-109.29
X96.73Y-111.83
X96.73Y-114.37
X96.73Y-122.63
X96.73Y-125.17
X96.73Y-127.71
X96.73Y-130.25
X98.5Y-78.5
X103.7Y-84.275
X103.7Y-89.2
X103.7Y-94.5
X103.7Y-99.5
X104.35Y-106.75
X104.35Y-109.29
X104.35Y-111.83
X104.35Y-114.37
X104.35Y-122.63
X104.35Y-125.17
X104.35Y-127.71
X104.35Y-130.25
X108.635Y-79.58
X108.635Y-82.12
X108.635Y-84.66
X108.635Y-87.2
X109.08Y-92.48
X109.08Y-95.02
X109.08Y-97.56
X109.08Y-100.1
X110.025Y-103.96
X110.025Y-116.66
X110.25Y-121.4
X110.25Y-134.1
X115.375Y-104.06
X115.375Y-116.76
X115.6Y-121.55
X115.6Y-134.25
X116.255Y-79.58
X116.255Y-82.12
X116.255Y-84.66
X116.255Y-87.2
X116.7Y-92.48
X116.7Y-95.02
X116.7Y-97.56
X116.7Y-100.1
X119.75Y-133.25
X120.73Y-100.75
X120.73Y-103.29
X120.73Y-105.83
X120.73Y-108.37
X120.73Y-110.91
X120.73Y-113.45
X120.73Y-115.99
X120.73Y-121.5
X120.73Y-124.04
X120.73Y-126.58
X120.73Y-129.12
X121.2Y-80.285
X121.2Y-82.825
X121.2Y-85.365
X121.2Y-87.905
X121.2Y-90.445
X121.2Y-92.985
X121.2Y-95.525
X128.35Y-100.75
X128.35Y-103.29
X128.35Y-105.83
X128.35Y-108.37
X128.35Y-110.91
X128.35Y-113.45
X128.35Y-115.99
X128.35Y-121.5
X128.35Y-124.04
X128.35Y-126.58
X128.35Y-129.12
X128.82Y-80.285
X128.82Y-82.825
X128.82Y-85.365
X128.82Y-87.905
X128.82Y-90.445
X128.82Y-92.985
X128.82Y-95.525
X132.45Y-133.25
X133.1Y-96.61
X133.1Y-109.31
X133.1Y-111.91
X133.1Y-124.61
X133.35Y-81.11
X133.35Y-93.81
X137.0Y-99.25
X137.15Y-108.25
X137.4Y-94.5
X137.85Y-111.76
X137.85Y-124.46
X138.48Y-82.34
X138.48Y-84.88
X138.48Y-87.42
X138.48Y-89.96
X146.1Y-82.34
X146.1Y-84.88
X146.1Y-87.42
X146.1Y-89.96
X149.7Y-99.25
X149.85Y-108.25
X150.1Y-94.5
X150.35Y-78.15
X150.35Y-90.85
X161.6Y-73.96
X169.1Y-73.96
T5
X113.055Y-73.58
X115.595Y-73.58
X131.63Y-73.58
X134.17Y-73.58
X149.23Y-73.58
X151.77Y-73.58
T6
X131.79Y-128.25
X139.41Y-128.25
X142.04Y-103.5
X142.23Y-119.25
X142.23Y-124.75
X142.29Y-113.75
X142.54Y-130.25
X149.66Y-103.5
X149.85Y-119.25
X149.85Y-124.75
X149.91Y-113.75
X150.16Y-130.25
T7
X173.6Y-63.8
X173.6Y-66.34
X173.6Y-68.88
X173.6Y-71.42
X173.6Y-73.96
X180.6Y-63.84
X180.6Y-66.38
X180.6Y-68.92
X180.6Y-71.46
X180.6Y-74.0
T8
X155.6Y-87.07
X155.6Y-89.61
X155.6Y-92.15
X155.6Y-94.69
X155.6Y-97.23
X155.6Y-99.77
X155.6Y-102.31
X155.6Y-104.85
X155.6Y-107.39
X155.6Y-109.93
X155.6Y-112.47
X155.6Y-115.01
X155.6Y-117.55
X155.6Y-120.09
X155.6Y-122.63
X155.6Y-125.17
X155.6Y-127.71
X155.6Y-130.25
X155.6Y-132.79
X181.0Y-87.07
X181.0Y-89.61
X181.0Y-92.15
X181.0Y-94.69
X181.0Y-97.23
X181.0Y-99.77
X181.0Y-102.31
X181.0Y-104.85
X181.0Y-107.39
X181.0Y-109.93
X181.0Y-112.47
X181.0Y-115.01
X181.0Y-117.55
X181.0Y-120.09
X181.0Y-122.63
X181.0Y-125.17
X181.0Y-127.71
X181.0Y-130.25
X181.0Y-132.79
T9
X92.85Y-67.5
X97.93Y-67.5
X103.01Y-67.5
T10
X110.515Y-68.5
X120.675Y-68.5
X129.09Y-68.5
X139.25Y-68.5
X146.69Y-68.5
X156.85Y-68.5
M30
