M48
; DRILL file {KiCad 8.0.3} date 2025-01-25T16:03:04+0530
; FORMAT={-:-/ absolute / metric / decimal}
; #@! TF.CreationDate,2025-01-25T16:03:04+05:30
; #@! TF.GenerationSoftware,Kicad,Pcbnew,8.0.3
; #@! TF.FileFunction,Plated,1,2,PTH
FMAT,2
METRIC
; #@! TA.AperFunction,Plated,PTH,ViaDrill
T1C0.300
; #@! TA.AperFunction,Plated,PTH,ViaDrill
T2C0.500
; #@! TA.AperFunction,Plated,PTH,ComponentDrill
T3C0.800
; #@! TA.AperFunction,Plated,PTH,ComponentDrill
T4C0.900
; #@! TA.AperFunction,Plated,PTH,ComponentDrill
T5C1.000
; #@! TA.AperFunction,Plated,PTH,ComponentDrill
T6C1.020
; #@! TA.AperFunction,Plated,PTH,ComponentDrill
T7C1.100
; #@! TA.AperFunction,Plated,PTH,ComponentDrill
T8C1.200
; #@! TA.AperFunction,Plated,PTH,ComponentDrill
T9C1.300
%
G90
G05
T1
X95.5Y-102.94
X99.5Y-102.84
X136.4Y-108.64
X148.1Y-105.44
X180.8Y-133.74
T2
X167.0Y-133.64
X175.1Y-87.34
T3
X112.775Y-108.565
X112.85Y-113.64
X113.425Y-102.265
X113.6Y-88.54
X113.85Y-95.54
X114.5Y-119.54
X114.5Y-127.04
X118.425Y-132.09
X119.825Y-119.615
X119.825Y-127.115
X125.45Y-119.54
X125.45Y-127.04
X125.475Y-108.565
X125.55Y-113.64
X125.925Y-132.09
X126.125Y-102.265
X126.3Y-88.54
X126.55Y-95.54
X130.6Y-120.04
X131.3Y-99.915
X131.3Y-112.615
X131.35Y-92.94
X131.85Y-126.94
X131.85Y-139.64
X131.95Y-87.54
X137.25Y-125.565
X137.375Y-99.915
X137.375Y-112.615
X138.85Y-92.94
X143.1Y-108.09
X143.1Y-115.59
X143.3Y-120.04
X143.68Y-95.32
X143.68Y-97.86
X143.68Y-100.4
X143.68Y-102.94
X144.65Y-87.54
X144.75Y-125.565
X150.1Y-109.19
X150.1Y-121.89
X150.1Y-126.49
X150.1Y-139.19
X151.3Y-95.32
X151.3Y-97.86
X151.3Y-100.4
X151.3Y-102.94
X154.2Y-121.44
X154.2Y-126.54
X156.18Y-131.32
X156.18Y-133.86
X156.18Y-136.4
X156.18Y-138.94
X157.38Y-90.32
X157.38Y-92.86
X157.38Y-95.4
X157.38Y-97.94
X157.9Y-108.92
X157.9Y-111.46
X157.9Y-114.0
X157.9Y-116.54
X159.075Y-104.19
X163.8Y-131.32
X163.8Y-133.86
X163.8Y-136.4
X163.8Y-138.94
X165.0Y-90.32
X165.0Y-92.86
X165.0Y-95.4
X165.0Y-97.94
X165.52Y-108.92
X165.52Y-111.46
X165.52Y-114.0
X165.52Y-116.54
X166.575Y-104.19
X166.9Y-121.44
X166.9Y-126.54
X169.3Y-89.59
X169.3Y-97.09
X170.4Y-127.09
X170.4Y-139.79
X170.5Y-107.89
X170.5Y-120.59
X173.2Y-94.14
X173.2Y-100.14
X174.25Y-111.44
X174.4Y-105.84
X174.8Y-116.89
X174.8Y-129.59
X178.88Y-117.42
X178.88Y-119.96
X178.88Y-122.5
X178.88Y-125.04
X185.9Y-94.14
X185.9Y-100.14
X186.5Y-117.42
X186.5Y-119.96
X186.5Y-122.5
X186.5Y-125.04
X186.95Y-111.44
X187.1Y-105.84
X190.58Y-92.64
X190.58Y-95.18
X190.58Y-97.72
X190.58Y-100.26
X190.58Y-105.62
X190.58Y-108.16
X190.58Y-110.7
X190.58Y-113.24
X191.1Y-116.99
X191.1Y-129.69
X198.2Y-92.64
X198.2Y-95.18
X198.2Y-97.72
X198.2Y-100.26
X198.2Y-105.62
X198.2Y-108.16
X198.2Y-110.7
X198.2Y-113.24
T4
X178.98Y-129.94
X186.6Y-129.94
T5
X75.475Y-83.36
X75.475Y-85.9
X75.475Y-88.44
X75.475Y-90.98
X75.475Y-93.52
X75.475Y-96.06
X75.475Y-98.6
X75.475Y-101.14
X75.475Y-103.68
X75.475Y-106.22
X75.475Y-108.76
X75.475Y-111.3
X75.475Y-113.84
X75.475Y-116.38
X75.475Y-118.92
X75.475Y-121.46
X75.475Y-124.0
X75.475Y-126.54
X75.475Y-129.08
X81.6Y-139.34
X84.14Y-139.34
X86.68Y-139.34
X89.22Y-139.34
X91.76Y-139.34
X94.3Y-139.34
X96.84Y-139.34
X99.38Y-139.34
X101.92Y-139.34
X104.46Y-139.34
X107.0Y-139.34
X109.54Y-139.34
X112.08Y-139.34
X114.62Y-139.34
X115.02Y-81.54
X117.16Y-139.34
X117.56Y-81.54
X119.7Y-139.34
X120.1Y-81.54
X122.24Y-139.34
X122.64Y-81.54
X124.78Y-139.34
X125.18Y-81.54
X127.32Y-139.34
X127.72Y-81.54
X130.26Y-81.54
X132.8Y-81.54
X135.34Y-81.54
X137.88Y-81.54
T6
X82.55Y-81.145
X82.55Y-83.685
X82.55Y-86.225
X82.55Y-88.765
X82.55Y-91.305
X82.55Y-93.845
X82.55Y-96.385
X82.55Y-98.925
X82.55Y-101.465
X82.55Y-104.005
X82.55Y-106.545
X82.55Y-109.085
X82.55Y-111.625
X82.55Y-114.165
X82.55Y-116.705
X82.55Y-119.245
X82.55Y-121.785
X82.55Y-124.325
X82.55Y-126.865
X107.95Y-81.145
X107.95Y-83.685
X107.95Y-86.225
X107.95Y-88.765
X107.95Y-91.305
X107.95Y-93.845
X107.95Y-96.385
X107.95Y-98.925
X107.95Y-101.465
X107.95Y-104.005
X107.95Y-106.545
X107.95Y-109.085
X107.95Y-111.625
X107.95Y-114.165
X107.95Y-116.705
X107.95Y-119.245
X107.95Y-121.785
X107.95Y-124.325
X107.95Y-126.865
T7
X179.72Y-137.14
X182.26Y-137.14
X184.8Y-137.14
T8
X212.2Y-77.04
X212.2Y-138.0
T9
X138.52Y-135.44
X143.6Y-135.44
X152.92Y-78.94
X158.0Y-78.94
X167.94Y-78.64
X173.02Y-78.64
X178.1Y-78.64
X188.215Y-78.75
X193.295Y-78.75
X197.42Y-135.24
X202.5Y-135.24
M30
